<?xml version="1.0" encoding="utf-8" ?>
<svg baseProfile="tiny" font-family="monospace" font-size="17" font-weight="normal" height="471" version="1.2" viewBox="0,0,505,471" width="505" xmlns="http://www.w3.org/2000/svg" xmlns:ev="http://www.w3.org/2001/xml-events" xmlns:xlink="http://www.w3.org/1999/xlink"><defs /><polyline fill="none" points="378,24 378,91" stroke="black" stroke-width="1" /><polyline fill="none" points="375,54 378,60 380,54" stroke-width="1" /><polyline fill="none" points="115,95 327,95" stroke="black" stroke-width="1" /><polyline fill="none" points="217,97 223,95 217,92" stroke-width="1" /><polyline fill="none" points="325,116 111,116" stroke="black" stroke-width="1" /><polyline fill="none" points="220,118 215,116 220,113" stroke-width="1" /><polyline fill="none" points="66,33 66,84" stroke="black" stroke-width="1" /><polyline fill="none" points="63,55 66,61 68,55" stroke-width="1" /><polyline fill="none" points="95,120 95,213" stroke="black" stroke-width="1" /><polyline fill="none" points="92,163 95,169 97,163" stroke-width="1" /><polyline fill="none" points="162,237 162,291" stroke="black" stroke-width="1" /><polyline fill="none" points="159,260 162,266 164,260" stroke-width="1" /><polyline fill="none" points="161,314 161,372" stroke="black" stroke-width="1" /><polyline fill="none" points="158,339 161,345 163,339" stroke-width="1" /><polyline fill="none" points="159,400 159,465" stroke="black" stroke-width="1" /><polyline fill="none" points="156,429 159,435 161,429" stroke-width="1" /><polyline fill="none" points="29,130 29,176" stroke="black" stroke-width="1" /><polyline fill="none" points="26,149 29,155 31,149" stroke-width="1" /><rect fill="white" height="39" stroke="black" stroke-width="1" width="203" x="-34" y="151.0" /><text stroke="black" x="166.5" y="248">'Search' index</text><rect fill="white" height="39" stroke="black" stroke-width="1" width="210" x="-41" y="230.0" /><text stroke="black" x="163.0" y="327">Flow Table</text><rect fill="white" height="43" stroke="black" stroke-width="1" width="210" x="-43" y="309.0" /><text stroke="black" x="161.0" y="408">'Collect' index</text><rect fill="white" height="33" stroke="black" stroke-width="1" width="215" x="185" y="-54.0" /><text stroke="black" x="391.5" y="40">Current Rule Set</text><rect fill="white" height="45" stroke="black" stroke-width="1" width="142" x="-99" y="30.0" /><text stroke="black" x="71.0" y="130"> Packet</text><text stroke="black" x="71.0" y="147">Processor</text><rect fill="white" height="55" stroke="black" stroke-width="1" width="141" x="220" y="30.0" /><text stroke="black" x="389.5" y="135"> Packet</text><text stroke="black" x="389.5" y="152">Matching</text><text stroke="black" x="389.5" y="169"> Engine</text><text stroke="black" x="231" y="96">'match key'</text><text stroke="black" x="225" y="147">'flow key'</text><text stroke="black" x="29" y="203">Ignore</text><text stroke="black" x="79" y="44">packet</text><text stroke="black" x="79" y="61">header</text></svg>