<?xml version="1.0" encoding="utf-8" ?>
<svg baseProfile="tiny" height="214" version="1.2" viewBox="0,0,530,213" width="531" xmlns="http://www.w3.org/2000/svg" xmlns:ev="http://www.w3.org/2001/xml-events" xmlns:xlink="http://www.w3.org/1999/xlink"><defs /><text font-family="monospace" font-size="17" font-weight="normal" x="179" y="205">F</text><text font-family="monospace" font-size="17" font-weight="normal" x="187" y="205">i</text><text font-family="monospace" font-size="17" font-weight="normal" x="195" y="205">g</text><text font-family="monospace" font-size="17" font-weight="normal" x="203" y="205">u</text><text font-family="monospace" font-size="17" font-weight="normal" x="211" y="205">r</text><text font-family="monospace" font-size="17" font-weight="normal" x="219" y="205">e</text><text font-family="monospace" font-size="17" font-weight="normal" x="227" y="205"> </text><text font-family="monospace" font-size="17" font-weight="normal" x="235" y="205">1</text><text font-family="monospace" font-size="17" font-weight="normal" x="243" y="205">.</text><text font-family="monospace" font-size="17" font-weight="normal" x="251" y="205"> </text><text font-family="monospace" font-size="17" font-weight="normal" x="259" y="205"> </text><text font-family="monospace" font-size="17" font-weight="normal" x="267" y="205">A</text><text font-family="monospace" font-size="17" font-weight="normal" x="275" y="205">H</text><text font-family="monospace" font-size="17" font-weight="normal" x="283" y="205"> </text><text font-family="monospace" font-size="17" font-weight="normal" x="291" y="205">F</text><text font-family="monospace" font-size="17" font-weight="normal" x="299" y="205">o</text><text font-family="monospace" font-size="17" font-weight="normal" x="307" y="205">r</text><text font-family="monospace" font-size="17" font-weight="normal" x="315" y="205">m</text><text font-family="monospace" font-size="17" font-weight="normal" x="323" y="205">a</text><text font-family="monospace" font-size="17" font-weight="normal" x="331" y="205">t</text><polyline fill="none" points="3,39 527,39" stroke="black" stroke-width="0.75" /><polyline fill="none" points="3,39 3,75.0 527,75.0 527,39" stroke="black" stroke-width="0.75" /><line fill="none" stroke="black" stroke-width="1" x1="24" x2="24" y1="75.0" y2="72.0" /><line fill="none" stroke="black" stroke-width="1" x1="40" x2="40" y1="75.0" y2="72.0" /><line fill="none" stroke="black" stroke-width="1" x1="56" x2="56" y1="75.0" y2="72.0" /><line fill="none" stroke="black" stroke-width="2" x1="72" x2="72" y1="75.0" y2="72.0" /><line fill="none" stroke="black" stroke-width="1" x1="88" x2="88" y1="75.0" y2="72.0" /><line fill="none" stroke="black" stroke-width="1" x1="104" x2="104" y1="75.0" y2="72.0" /><line fill="none" stroke="black" stroke-width="1" x1="120" x2="120" y1="75.0" y2="72.0" /><line fill="none" stroke="black" stroke-width="2" x1="136" x2="136" y1="75.0" y2="72.0" /><line fill="none" stroke="black" stroke-width="1" x1="152" x2="152" y1="75.0" y2="72.0" /><line fill="none" stroke="black" stroke-width="1" x1="168" x2="168" y1="75.0" y2="72.0" /><line fill="none" stroke="black" stroke-width="1" x1="184" x2="184" y1="75.0" y2="72.0" /><line fill="none" stroke="black" stroke-width="2" x1="200" x2="200" y1="75.0" y2="72.0" /><line fill="none" stroke="black" stroke-width="1" x1="216" x2="216" y1="75.0" y2="72.0" /><line fill="none" stroke="black" stroke-width="1" x1="232" x2="232" y1="75.0" y2="72.0" /><line fill="none" stroke="black" stroke-width="1" x1="248" x2="248" y1="75.0" y2="72.0" /><line fill="none" stroke="black" stroke-width="2" x1="264" x2="264" y1="75.0" y2="72.0" /><line fill="none" stroke="black" stroke-width="1" x1="280" x2="280" y1="75.0" y2="72.0" /><line fill="none" stroke="black" stroke-width="1" x1="296" x2="296" y1="75.0" y2="72.0" /><line fill="none" stroke="black" stroke-width="1" x1="312" x2="312" y1="75.0" y2="72.0" /><line fill="none" stroke="black" stroke-width="2" x1="328" x2="328" y1="75.0" y2="72.0" /><line fill="none" stroke="black" stroke-width="1" x1="344" x2="344" y1="75.0" y2="72.0" /><line fill="none" stroke="black" stroke-width="1" x1="360" x2="360" y1="75.0" y2="72.0" /><line fill="none" stroke="black" stroke-width="1" x1="376" x2="376" y1="75.0" y2="72.0" /><line fill="none" stroke="black" stroke-width="2" x1="392" x2="392" y1="75.0" y2="72.0" /><line fill="none" stroke="black" stroke-width="1" x1="408" x2="408" y1="75.0" y2="72.0" /><line fill="none" stroke="black" stroke-width="1" x1="424" x2="424" y1="75.0" y2="72.0" /><line fill="none" stroke="black" stroke-width="1" x1="440" x2="440" y1="75.0" y2="72.0" /><line fill="none" stroke="black" stroke-width="2" x1="456" x2="456" y1="75.0" y2="72.0" /><line fill="none" stroke="black" stroke-width="1" x1="472" x2="472" y1="75.0" y2="72.0" /><line fill="none" stroke="black" stroke-width="1" x1="488" x2="488" y1="75.0" y2="72.0" /><line fill="none" stroke="black" stroke-width="1" x1="504" x2="504" y1="75.0" y2="72.0" /><polyline fill="none" points="3,75 3,111.0 527,111.0 527,75" stroke="black" stroke-width="0.75" /><line fill="none" stroke="black" stroke-width="1" x1="24" x2="24" y1="111.0" y2="108.0" /><line fill="none" stroke="black" stroke-width="1" x1="40" x2="40" y1="111.0" y2="108.0" /><line fill="none" stroke="black" stroke-width="1" x1="56" x2="56" y1="111.0" y2="108.0" /><line fill="none" stroke="black" stroke-width="2" x1="72" x2="72" y1="111.0" y2="108.0" /><line fill="none" stroke="black" stroke-width="1" x1="88" x2="88" y1="111.0" y2="108.0" /><line fill="none" stroke="black" stroke-width="1" x1="104" x2="104" y1="111.0" y2="108.0" /><line fill="none" stroke="black" stroke-width="1" x1="120" x2="120" y1="111.0" y2="108.0" /><line fill="none" stroke="black" stroke-width="2" x1="136" x2="136" y1="111.0" y2="108.0" /><line fill="none" stroke="black" stroke-width="1" x1="152" x2="152" y1="111.0" y2="108.0" /><line fill="none" stroke="black" stroke-width="1" x1="168" x2="168" y1="111.0" y2="108.0" /><line fill="none" stroke="black" stroke-width="1" x1="184" x2="184" y1="111.0" y2="108.0" /><line fill="none" stroke="black" stroke-width="2" x1="200" x2="200" y1="111.0" y2="108.0" /><line fill="none" stroke="black" stroke-width="1" x1="216" x2="216" y1="111.0" y2="108.0" /><line fill="none" stroke="black" stroke-width="1" x1="232" x2="232" y1="111.0" y2="108.0" /><line fill="none" stroke="black" stroke-width="1" x1="248" x2="248" y1="111.0" y2="108.0" /><line fill="none" stroke="black" stroke-width="2" x1="264" x2="264" y1="111.0" y2="108.0" /><line fill="none" stroke="black" stroke-width="1" x1="280" x2="280" y1="111.0" y2="108.0" /><line fill="none" stroke="black" stroke-width="1" x1="296" x2="296" y1="111.0" y2="108.0" /><line fill="none" stroke="black" stroke-width="1" x1="312" x2="312" y1="111.0" y2="108.0" /><line fill="none" stroke="black" stroke-width="2" x1="328" x2="328" y1="111.0" y2="108.0" /><line fill="none" stroke="black" stroke-width="1" x1="344" x2="344" y1="111.0" y2="108.0" /><line fill="none" stroke="black" stroke-width="1" x1="360" x2="360" y1="111.0" y2="108.0" /><line fill="none" stroke="black" stroke-width="1" x1="376" x2="376" y1="111.0" y2="108.0" /><line fill="none" stroke="black" stroke-width="2" x1="392" x2="392" y1="111.0" y2="108.0" /><line fill="none" stroke="black" stroke-width="1" x1="408" x2="408" y1="111.0" y2="108.0" /><line fill="none" stroke="black" stroke-width="1" x1="424" x2="424" y1="111.0" y2="108.0" /><line fill="none" stroke="black" stroke-width="1" x1="440" x2="440" y1="111.0" y2="108.0" /><line fill="none" stroke="black" stroke-width="2" x1="456" x2="456" y1="111.0" y2="108.0" /><line fill="none" stroke="black" stroke-width="1" x1="472" x2="472" y1="111.0" y2="108.0" /><line fill="none" stroke="black" stroke-width="1" x1="488" x2="488" y1="111.0" y2="108.0" /><line fill="none" stroke="black" stroke-width="1" x1="504" x2="504" y1="111.0" y2="108.0" /><polyline fill="none" points="3,111 3,147.0 527,147.0 527,111" stroke="black" stroke-width="0.75" /><line fill="none" stroke="black" stroke-width="1" x1="24" x2="24" y1="147.0" y2="144.0" /><line fill="none" stroke="black" stroke-width="1" x1="40" x2="40" y1="147.0" y2="144.0" /><line fill="none" stroke="black" stroke-width="1" x1="56" x2="56" y1="147.0" y2="144.0" /><line fill="none" stroke="black" stroke-width="2" x1="72" x2="72" y1="147.0" y2="144.0" /><line fill="none" stroke="black" stroke-width="1" x1="88" x2="88" y1="147.0" y2="144.0" /><line fill="none" stroke="black" stroke-width="1" x1="104" x2="104" y1="147.0" y2="144.0" /><line fill="none" stroke="black" stroke-width="1" x1="120" x2="120" y1="147.0" y2="144.0" /><line fill="none" stroke="black" stroke-width="2" x1="136" x2="136" y1="147.0" y2="144.0" /><line fill="none" stroke="black" stroke-width="1" x1="152" x2="152" y1="147.0" y2="144.0" /><line fill="none" stroke="black" stroke-width="1" x1="168" x2="168" y1="147.0" y2="144.0" /><line fill="none" stroke="black" stroke-width="1" x1="184" x2="184" y1="147.0" y2="144.0" /><line fill="none" stroke="black" stroke-width="2" x1="200" x2="200" y1="147.0" y2="144.0" /><line fill="none" stroke="black" stroke-width="1" x1="216" x2="216" y1="147.0" y2="144.0" /><line fill="none" stroke="black" stroke-width="1" x1="232" x2="232" y1="147.0" y2="144.0" /><line fill="none" stroke="black" stroke-width="1" x1="248" x2="248" y1="147.0" y2="144.0" /><line fill="none" stroke="black" stroke-width="2" x1="264" x2="264" y1="147.0" y2="144.0" /><line fill="none" stroke="black" stroke-width="1" x1="280" x2="280" y1="147.0" y2="144.0" /><line fill="none" stroke="black" stroke-width="1" x1="296" x2="296" y1="147.0" y2="144.0" /><line fill="none" stroke="black" stroke-width="1" x1="312" x2="312" y1="147.0" y2="144.0" /><line fill="none" stroke="black" stroke-width="2" x1="328" x2="328" y1="147.0" y2="144.0" /><line fill="none" stroke="black" stroke-width="1" x1="344" x2="344" y1="147.0" y2="144.0" /><line fill="none" stroke="black" stroke-width="1" x1="360" x2="360" y1="147.0" y2="144.0" /><line fill="none" stroke="black" stroke-width="1" x1="376" x2="376" y1="147.0" y2="144.0" /><line fill="none" stroke="black" stroke-width="2" x1="392" x2="392" y1="147.0" y2="144.0" /><line fill="none" stroke="black" stroke-width="1" x1="408" x2="408" y1="147.0" y2="144.0" /><line fill="none" stroke="black" stroke-width="1" x1="424" x2="424" y1="147.0" y2="144.0" /><line fill="none" stroke="black" stroke-width="1" x1="440" x2="440" y1="147.0" y2="144.0" /><line fill="none" stroke="black" stroke-width="2" x1="456" x2="456" y1="147.0" y2="144.0" /><line fill="none" stroke="black" stroke-width="1" x1="472" x2="472" y1="147.0" y2="144.0" /><line fill="none" stroke="black" stroke-width="1" x1="488" x2="488" y1="147.0" y2="144.0" /><line fill="none" stroke="black" stroke-width="1" x1="504" x2="504" y1="147.0" y2="144.0" /><polyline fill="none" points="3,147 3,183.0 527,183.0 527,147" stroke="black" stroke-width="0.75" /><line fill="none" stroke="black" stroke-width="1" x1="24" x2="24" y1="183.0" y2="180.0" /><line fill="none" stroke="black" stroke-width="1" x1="40" x2="40" y1="183.0" y2="180.0" /><line fill="none" stroke="black" stroke-width="1" x1="56" x2="56" y1="183.0" y2="180.0" /><line fill="none" stroke="black" stroke-width="2" x1="72" x2="72" y1="183.0" y2="180.0" /><line fill="none" stroke="black" stroke-width="1" x1="88" x2="88" y1="183.0" y2="180.0" /><line fill="none" stroke="black" stroke-width="1" x1="104" x2="104" y1="183.0" y2="180.0" /><line fill="none" stroke="black" stroke-width="1" x1="120" x2="120" y1="183.0" y2="180.0" /><line fill="none" stroke="black" stroke-width="2" x1="136" x2="136" y1="183.0" y2="180.0" /><line fill="none" stroke="black" stroke-width="1" x1="152" x2="152" y1="183.0" y2="180.0" /><line fill="none" stroke="black" stroke-width="1" x1="168" x2="168" y1="183.0" y2="180.0" /><line fill="none" stroke="black" stroke-width="1" x1="184" x2="184" y1="183.0" y2="180.0" /><line fill="none" stroke="black" stroke-width="2" x1="200" x2="200" y1="183.0" y2="180.0" /><line fill="none" stroke="black" stroke-width="1" x1="216" x2="216" y1="183.0" y2="180.0" /><line fill="none" stroke="black" stroke-width="1" x1="232" x2="232" y1="183.0" y2="180.0" /><line fill="none" stroke="black" stroke-width="1" x1="248" x2="248" y1="183.0" y2="180.0" /><line fill="none" stroke="black" stroke-width="2" x1="264" x2="264" y1="183.0" y2="180.0" /><line fill="none" stroke="black" stroke-width="1" x1="280" x2="280" y1="183.0" y2="180.0" /><line fill="none" stroke="black" stroke-width="1" x1="296" x2="296" y1="183.0" y2="180.0" /><line fill="none" stroke="black" stroke-width="1" x1="312" x2="312" y1="183.0" y2="180.0" /><line fill="none" stroke="black" stroke-width="2" x1="328" x2="328" y1="183.0" y2="180.0" /><line fill="none" stroke="black" stroke-width="1" x1="344" x2="344" y1="183.0" y2="180.0" /><line fill="none" stroke="black" stroke-width="1" x1="360" x2="360" y1="183.0" y2="180.0" /><line fill="none" stroke="black" stroke-width="1" x1="376" x2="376" y1="183.0" y2="180.0" /><line fill="none" stroke="black" stroke-width="2" x1="392" x2="392" y1="183.0" y2="180.0" /><line fill="none" stroke="black" stroke-width="1" x1="408" x2="408" y1="183.0" y2="180.0" /><line fill="none" stroke="black" stroke-width="1" x1="424" x2="424" y1="183.0" y2="180.0" /><line fill="none" stroke="black" stroke-width="1" x1="440" x2="440" y1="183.0" y2="180.0" /><line fill="none" stroke="black" stroke-width="2" x1="456" x2="456" y1="183.0" y2="180.0" /><line fill="none" stroke="black" stroke-width="1" x1="472" x2="472" y1="183.0" y2="180.0" /><line fill="none" stroke="black" stroke-width="1" x1="488" x2="488" y1="183.0" y2="180.0" /><line fill="none" stroke="black" stroke-width="1" x1="504" x2="504" y1="183.0" y2="180.0" /><text font-family="monospace" font-size="17" font-weight="normal" x="9" y="16">0</text><text font-family="monospace" font-size="17" font-weight="normal" x="17" y="16"> </text><text font-family="monospace" font-size="17" font-weight="normal" x="25" y="16"> </text><text font-family="monospace" font-size="17" font-weight="normal" x="33" y="16"> </text><text font-family="monospace" font-size="17" font-weight="normal" x="41" y="16"> </text><text font-family="monospace" font-size="17" font-weight="normal" x="49" y="16"> </text><text font-family="monospace" font-size="17" font-weight="normal" x="57" y="16"> </text><text font-family="monospace" font-size="17" font-weight="normal" x="65" y="16"> </text><text font-family="monospace" font-size="17" font-weight="normal" x="73" y="16"> </text><text font-family="monospace" font-size="17" font-weight="normal" x="81" y="16"> </text><text font-family="monospace" font-size="17" font-weight="normal" x="89" y="16"> </text><text font-family="monospace" font-size="17" font-weight="normal" x="97" y="16"> </text><text font-family="monospace" font-size="17" font-weight="normal" x="105" y="16"> </text><text font-family="monospace" font-size="17" font-weight="normal" x="113" y="16"> </text><text font-family="monospace" font-size="17" font-weight="normal" x="121" y="16"> </text><text font-family="monospace" font-size="17" font-weight="normal" x="129" y="16"> </text><text font-family="monospace" font-size="17" font-weight="normal" x="137" y="16"> </text><text font-family="monospace" font-size="17" font-weight="normal" x="145" y="16"> </text><text font-family="monospace" font-size="17" font-weight="normal" x="153" y="16"> </text><text font-family="monospace" font-size="17" font-weight="normal" x="161" y="16"> </text><text font-family="monospace" font-size="17" font-weight="normal" x="169" y="16">1</text><text font-family="monospace" font-size="17" font-weight="normal" x="177" y="16"> </text><text font-family="monospace" font-size="17" font-weight="normal" x="185" y="16"> </text><text font-family="monospace" font-size="17" font-weight="normal" x="193" y="16"> </text><text font-family="monospace" font-size="17" font-weight="normal" x="201" y="16"> </text><text font-family="monospace" font-size="17" font-weight="normal" x="209" y="16"> </text><text font-family="monospace" font-size="17" font-weight="normal" x="217" y="16"> </text><text font-family="monospace" font-size="17" font-weight="normal" x="225" y="16"> </text><text font-family="monospace" font-size="17" font-weight="normal" x="233" y="16"> </text><text font-family="monospace" font-size="17" font-weight="normal" x="241" y="16"> </text><text font-family="monospace" font-size="17" font-weight="normal" x="249" y="16"> </text><text font-family="monospace" font-size="17" font-weight="normal" x="257" y="16"> </text><text font-family="monospace" font-size="17" font-weight="normal" x="265" y="16"> </text><text font-family="monospace" font-size="17" font-weight="normal" x="273" y="16"> </text><text font-family="monospace" font-size="17" font-weight="normal" x="281" y="16"> </text><text font-family="monospace" font-size="17" font-weight="normal" x="289" y="16"> </text><text font-family="monospace" font-size="17" font-weight="normal" x="297" y="16"> </text><text font-family="monospace" font-size="17" font-weight="normal" x="305" y="16"> </text><text font-family="monospace" font-size="17" font-weight="normal" x="313" y="16"> </text><text font-family="monospace" font-size="17" font-weight="normal" x="321" y="16"> </text><text font-family="monospace" font-size="17" font-weight="normal" x="329" y="16">2</text><text font-family="monospace" font-size="17" font-weight="normal" x="337" y="16"> </text><text font-family="monospace" font-size="17" font-weight="normal" x="345" y="16"> </text><text font-family="monospace" font-size="17" font-weight="normal" x="353" y="16"> </text><text font-family="monospace" font-size="17" font-weight="normal" x="361" y="16"> </text><text font-family="monospace" font-size="17" font-weight="normal" x="369" y="16"> </text><text font-family="monospace" font-size="17" font-weight="normal" x="377" y="16"> </text><text font-family="monospace" font-size="17" font-weight="normal" x="385" y="16"> </text><text font-family="monospace" font-size="17" font-weight="normal" x="393" y="16"> </text><text font-family="monospace" font-size="17" font-weight="normal" x="401" y="16"> </text><text font-family="monospace" font-size="17" font-weight="normal" x="409" y="16"> </text><text font-family="monospace" font-size="17" font-weight="normal" x="417" y="16"> </text><text font-family="monospace" font-size="17" font-weight="normal" x="425" y="16"> </text><text font-family="monospace" font-size="17" font-weight="normal" x="433" y="16"> </text><text font-family="monospace" font-size="17" font-weight="normal" x="441" y="16"> </text><text font-family="monospace" font-size="17" font-weight="normal" x="449" y="16"> </text><text font-family="monospace" font-size="17" font-weight="normal" x="457" y="16"> </text><text font-family="monospace" font-size="17" font-weight="normal" x="465" y="16"> </text><text font-family="monospace" font-size="17" font-weight="normal" x="473" y="16"> </text><text font-family="monospace" font-size="17" font-weight="normal" x="481" y="16"> </text><text font-family="monospace" font-size="17" font-weight="normal" x="489" y="16">3</text><text font-family="monospace" font-size="17" font-weight="normal" x="497" y="16"> </text><text font-family="monospace" font-size="17" font-weight="normal" x="505" y="16"> </text><text font-family="monospace" font-size="17" font-weight="normal" x="9" y="33">0</text><text font-family="monospace" font-size="17" font-weight="normal" x="17" y="33"> </text><text font-family="monospace" font-size="17" font-weight="normal" x="25" y="33">1</text><text font-family="monospace" font-size="17" font-weight="normal" x="33" y="33"> </text><text font-family="monospace" font-size="17" font-weight="normal" x="41" y="33">2</text><text font-family="monospace" font-size="17" font-weight="normal" x="49" y="33"> </text><text font-family="monospace" font-size="17" font-weight="normal" x="57" y="33">3</text><text font-family="monospace" font-size="17" font-weight="normal" x="65" y="33"> </text><text font-family="monospace" font-size="17" font-weight="normal" x="73" y="33">4</text><text font-family="monospace" font-size="17" font-weight="normal" x="81" y="33"> </text><text font-family="monospace" font-size="17" font-weight="normal" x="89" y="33">5</text><text font-family="monospace" font-size="17" font-weight="normal" x="97" y="33"> </text><text font-family="monospace" font-size="17" font-weight="normal" x="105" y="33">6</text><text font-family="monospace" font-size="17" font-weight="normal" x="113" y="33"> </text><text font-family="monospace" font-size="17" font-weight="normal" x="121" y="33">7</text><text font-family="monospace" font-size="17" font-weight="normal" x="129" y="33"> </text><text font-family="monospace" font-size="17" font-weight="normal" x="137" y="33">8</text><text font-family="monospace" font-size="17" font-weight="normal" x="145" y="33"> </text><text font-family="monospace" font-size="17" font-weight="normal" x="153" y="33">9</text><text font-family="monospace" font-size="17" font-weight="normal" x="161" y="33"> </text><text font-family="monospace" font-size="17" font-weight="normal" x="169" y="33">0</text><text font-family="monospace" font-size="17" font-weight="normal" x="177" y="33"> </text><text font-family="monospace" font-size="17" font-weight="normal" x="185" y="33">1</text><text font-family="monospace" font-size="17" font-weight="normal" x="193" y="33"> </text><text font-family="monospace" font-size="17" font-weight="normal" x="201" y="33">2</text><text font-family="monospace" font-size="17" font-weight="normal" x="209" y="33"> </text><text font-family="monospace" font-size="17" font-weight="normal" x="217" y="33">3</text><text font-family="monospace" font-size="17" font-weight="normal" x="225" y="33"> </text><text font-family="monospace" font-size="17" font-weight="normal" x="233" y="33">4</text><text font-family="monospace" font-size="17" font-weight="normal" x="241" y="33"> </text><text font-family="monospace" font-size="17" font-weight="normal" x="249" y="33">5</text><text font-family="monospace" font-size="17" font-weight="normal" x="257" y="33"> </text><text font-family="monospace" font-size="17" font-weight="normal" x="265" y="33">6</text><text font-family="monospace" font-size="17" font-weight="normal" x="273" y="33"> </text><text font-family="monospace" font-size="17" font-weight="normal" x="281" y="33">7</text><text font-family="monospace" font-size="17" font-weight="normal" x="289" y="33"> </text><text font-family="monospace" font-size="17" font-weight="normal" x="297" y="33">8</text><text font-family="monospace" font-size="17" font-weight="normal" x="305" y="33"> </text><text font-family="monospace" font-size="17" font-weight="normal" x="313" y="33">9</text><text font-family="monospace" font-size="17" font-weight="normal" x="321" y="33"> </text><text font-family="monospace" font-size="17" font-weight="normal" x="329" y="33">0</text><text font-family="monospace" font-size="17" font-weight="normal" x="337" y="33"> </text><text font-family="monospace" font-size="17" font-weight="normal" x="345" y="33">1</text><text font-family="monospace" font-size="17" font-weight="normal" x="353" y="33"> </text><text font-family="monospace" font-size="17" font-weight="normal" x="361" y="33">2</text><text font-family="monospace" font-size="17" font-weight="normal" x="369" y="33"> </text><text font-family="monospace" font-size="17" font-weight="normal" x="377" y="33">3</text><text font-family="monospace" font-size="17" font-weight="normal" x="385" y="33"> </text><text font-family="monospace" font-size="17" font-weight="normal" x="393" y="33">4</text><text font-family="monospace" font-size="17" font-weight="normal" x="401" y="33"> </text><text font-family="monospace" font-size="17" font-weight="normal" x="409" y="33">5</text><text font-family="monospace" font-size="17" font-weight="normal" x="417" y="33"> </text><text font-family="monospace" font-size="17" font-weight="normal" x="425" y="33">6</text><text font-family="monospace" font-size="17" font-weight="normal" x="433" y="33"> </text><text font-family="monospace" font-size="17" font-weight="normal" x="441" y="33">7</text><text font-family="monospace" font-size="17" font-weight="normal" x="449" y="33"> </text><text font-family="monospace" font-size="17" font-weight="normal" x="457" y="33">8</text><text font-family="monospace" font-size="17" font-weight="normal" x="465" y="33"> </text><text font-family="monospace" font-size="17" font-weight="normal" x="473" y="33">9</text><text font-family="monospace" font-size="17" font-weight="normal" x="481" y="33"> </text><text font-family="monospace" font-size="17" font-weight="normal" x="489" y="33">0</text><text font-family="monospace" font-size="17" font-weight="normal" x="497" y="33"> </text><text font-family="monospace" font-size="17" font-weight="normal" x="505" y="33">1</text><text font-family="monospace" font-size="17" font-weight="normal" x="25" y="61">N</text><text font-family="monospace" font-size="17" font-weight="normal" x="33" y="61">e</text><text font-family="monospace" font-size="17" font-weight="normal" x="41" y="61">x</text><text font-family="monospace" font-size="17" font-weight="normal" x="49" y="61">t</text><text font-family="monospace" font-size="17" font-weight="normal" x="57" y="61"> </text><text font-family="monospace" font-size="17" font-weight="normal" x="65" y="61">H</text><text font-family="monospace" font-size="17" font-weight="normal" x="73" y="61">e</text><text font-family="monospace" font-size="17" font-weight="normal" x="81" y="61">a</text><text font-family="monospace" font-size="17" font-weight="normal" x="89" y="61">d</text><text font-family="monospace" font-size="17" font-weight="normal" x="97" y="61">e</text><text font-family="monospace" font-size="17" font-weight="normal" x="105" y="61">r</text><line fill="none" stroke="black" stroke-width="1" x1="136" x2="136" y1="39" y2="72.0" /><text font-family="monospace" font-size="17" font-weight="normal" x="153" y="61">P</text><text font-family="monospace" font-size="17" font-weight="normal" x="161" y="61">a</text><text font-family="monospace" font-size="17" font-weight="normal" x="169" y="61">y</text><text font-family="monospace" font-size="17" font-weight="normal" x="177" y="61">l</text><text font-family="monospace" font-size="17" font-weight="normal" x="185" y="61">o</text><text font-family="monospace" font-size="17" font-weight="normal" x="193" y="61">a</text><text font-family="monospace" font-size="17" font-weight="normal" x="201" y="61">d</text><text font-family="monospace" font-size="17" font-weight="normal" x="209" y="61"> </text><text font-family="monospace" font-size="17" font-weight="normal" x="217" y="61">L</text><text font-family="monospace" font-size="17" font-weight="normal" x="225" y="61">e</text><text font-family="monospace" font-size="17" font-weight="normal" x="233" y="61">n</text><line fill="none" stroke="black" stroke-width="1" x1="264" x2="264" y1="39" y2="72.0" /><text font-family="monospace" font-size="17" font-weight="normal" x="357" y="61">R</text><text font-family="monospace" font-size="17" font-weight="normal" x="365" y="61">E</text><text font-family="monospace" font-size="17" font-weight="normal" x="373" y="61">S</text><text font-family="monospace" font-size="17" font-weight="normal" x="381" y="61">E</text><text font-family="monospace" font-size="17" font-weight="normal" x="389" y="61">R</text><text font-family="monospace" font-size="17" font-weight="normal" x="397" y="61">V</text><text font-family="monospace" font-size="17" font-weight="normal" x="405" y="61">E</text><text font-family="monospace" font-size="17" font-weight="normal" x="413" y="61">D</text><text font-family="monospace" font-size="17" font-weight="normal" x="137" y="97">S</text><text font-family="monospace" font-size="17" font-weight="normal" x="145" y="97">e</text><text font-family="monospace" font-size="17" font-weight="normal" x="153" y="97">c</text><text font-family="monospace" font-size="17" font-weight="normal" x="161" y="97">u</text><text font-family="monospace" font-size="17" font-weight="normal" x="169" y="97">r</text><text font-family="monospace" font-size="17" font-weight="normal" x="177" y="97">i</text><text font-family="monospace" font-size="17" font-weight="normal" x="185" y="97">t</text><text font-family="monospace" font-size="17" font-weight="normal" x="193" y="97">y</text><text font-family="monospace" font-size="17" font-weight="normal" x="201" y="97"> </text><text font-family="monospace" font-size="17" font-weight="normal" x="209" y="97">P</text><text font-family="monospace" font-size="17" font-weight="normal" x="217" y="97">a</text><text font-family="monospace" font-size="17" font-weight="normal" x="225" y="97">r</text><text font-family="monospace" font-size="17" font-weight="normal" x="233" y="97">a</text><text font-family="monospace" font-size="17" font-weight="normal" x="241" y="97">m</text><text font-family="monospace" font-size="17" font-weight="normal" x="249" y="97">e</text><text font-family="monospace" font-size="17" font-weight="normal" x="257" y="97">t</text><text font-family="monospace" font-size="17" font-weight="normal" x="265" y="97">e</text><text font-family="monospace" font-size="17" font-weight="normal" x="273" y="97">r</text><text font-family="monospace" font-size="17" font-weight="normal" x="281" y="97">s</text><text font-family="monospace" font-size="17" font-weight="normal" x="289" y="97"> </text><text font-family="monospace" font-size="17" font-weight="normal" x="297" y="97">I</text><text font-family="monospace" font-size="17" font-weight="normal" x="305" y="97">n</text><text font-family="monospace" font-size="17" font-weight="normal" x="313" y="97">d</text><text font-family="monospace" font-size="17" font-weight="normal" x="321" y="97">e</text><text font-family="monospace" font-size="17" font-weight="normal" x="329" y="97">x</text><text font-family="monospace" font-size="17" font-weight="normal" x="337" y="97"> </text><text font-family="monospace" font-size="17" font-weight="normal" x="345" y="97">(</text><text font-family="monospace" font-size="17" font-weight="normal" x="353" y="97">S</text><text font-family="monospace" font-size="17" font-weight="normal" x="361" y="97">P</text><text font-family="monospace" font-size="17" font-weight="normal" x="369" y="97">I</text><text font-family="monospace" font-size="17" font-weight="normal" x="377" y="97">)</text><text font-family="monospace" font-size="17" font-weight="normal" x="177" y="133">S</text><text font-family="monospace" font-size="17" font-weight="normal" x="185" y="133">e</text><text font-family="monospace" font-size="17" font-weight="normal" x="193" y="133">q</text><text font-family="monospace" font-size="17" font-weight="normal" x="201" y="133">u</text><text font-family="monospace" font-size="17" font-weight="normal" x="209" y="133">e</text><text font-family="monospace" font-size="17" font-weight="normal" x="217" y="133">n</text><text font-family="monospace" font-size="17" font-weight="normal" x="225" y="133">c</text><text font-family="monospace" font-size="17" font-weight="normal" x="233" y="133">e</text><text font-family="monospace" font-size="17" font-weight="normal" x="241" y="133"> </text><text font-family="monospace" font-size="17" font-weight="normal" x="249" y="133">N</text><text font-family="monospace" font-size="17" font-weight="normal" x="257" y="133">u</text><text font-family="monospace" font-size="17" font-weight="normal" x="265" y="133">m</text><text font-family="monospace" font-size="17" font-weight="normal" x="273" y="133">b</text><text font-family="monospace" font-size="17" font-weight="normal" x="281" y="133">e</text><text font-family="monospace" font-size="17" font-weight="normal" x="289" y="133">r</text><text font-family="monospace" font-size="17" font-weight="normal" x="297" y="133"> </text><text font-family="monospace" font-size="17" font-weight="normal" x="305" y="133">F</text><text font-family="monospace" font-size="17" font-weight="normal" x="313" y="133">i</text><text font-family="monospace" font-size="17" font-weight="normal" x="321" y="133">e</text><text font-family="monospace" font-size="17" font-weight="normal" x="329" y="133">l</text><text font-family="monospace" font-size="17" font-weight="normal" x="337" y="133">d</text><text font-family="monospace" font-size="17" font-weight="normal" x="117" y="169">I</text><text font-family="monospace" font-size="17" font-weight="normal" x="125" y="169">n</text><text font-family="monospace" font-size="17" font-weight="normal" x="133" y="169">t</text><text font-family="monospace" font-size="17" font-weight="normal" x="141" y="169">e</text><text font-family="monospace" font-size="17" font-weight="normal" x="149" y="169">g</text><text font-family="monospace" font-size="17" font-weight="normal" x="157" y="169">r</text><text font-family="monospace" font-size="17" font-weight="normal" x="165" y="169">i</text><text font-family="monospace" font-size="17" font-weight="normal" x="173" y="169">t</text><text font-family="monospace" font-size="17" font-weight="normal" x="181" y="169">y</text><text font-family="monospace" font-size="17" font-weight="normal" x="189" y="169"> </text><text font-family="monospace" font-size="17" font-weight="normal" x="197" y="169">C</text><text font-family="monospace" font-size="17" font-weight="normal" x="205" y="169">h</text><text font-family="monospace" font-size="17" font-weight="normal" x="213" y="169">e</text><text font-family="monospace" font-size="17" font-weight="normal" x="221" y="169">c</text><text font-family="monospace" font-size="17" font-weight="normal" x="229" y="169">k</text><text font-family="monospace" font-size="17" font-weight="normal" x="237" y="169"> </text><text font-family="monospace" font-size="17" font-weight="normal" x="245" y="169">V</text><text font-family="monospace" font-size="17" font-weight="normal" x="253" y="169">a</text><text font-family="monospace" font-size="17" font-weight="normal" x="261" y="169">l</text><text font-family="monospace" font-size="17" font-weight="normal" x="269" y="169">u</text><text font-family="monospace" font-size="17" font-weight="normal" x="277" y="169">e</text><text font-family="monospace" font-size="17" font-weight="normal" x="285" y="169">-</text><text font-family="monospace" font-size="17" font-weight="normal" x="293" y="169">I</text><text font-family="monospace" font-size="17" font-weight="normal" x="301" y="169">C</text><text font-family="monospace" font-size="17" font-weight="normal" x="309" y="169">V</text><text font-family="monospace" font-size="17" font-weight="normal" x="317" y="169"> </text><text font-family="monospace" font-size="17" font-weight="normal" x="325" y="169">(</text><text font-family="monospace" font-size="17" font-weight="normal" x="333" y="169">v</text><text font-family="monospace" font-size="17" font-weight="normal" x="341" y="169">a</text><text font-family="monospace" font-size="17" font-weight="normal" x="349" y="169">r</text><text font-family="monospace" font-size="17" font-weight="normal" x="357" y="169">i</text><text font-family="monospace" font-size="17" font-weight="normal" x="365" y="169">a</text><text font-family="monospace" font-size="17" font-weight="normal" x="373" y="169">b</text><text font-family="monospace" font-size="17" font-weight="normal" x="381" y="169">l</text><text font-family="monospace" font-size="17" font-weight="normal" x="389" y="169">e</text><text font-family="monospace" font-size="17" font-weight="normal" x="397" y="169">)</text></svg>