<?xml version="1.0" encoding="utf-8" ?>
<svg baseProfile="tiny" height="338" version="1.2" viewBox="0,0,530,337" width="531" xmlns="http://www.w3.org/2000/svg" xmlns:ev="http://www.w3.org/2001/xml-events" xmlns:xlink="http://www.w3.org/1999/xlink"><defs /><polyline fill="none" points="3,52 527,52" stroke="black" stroke-width="0.75" /><polyline fill="none" points="3,48 3,84.0 527,84.0 527,48" stroke="black" stroke-width="0.75" /><line fill="none" stroke="black" stroke-width="1" x1="24" x2="24" y1="84.0" y2="81.0" /><line fill="none" stroke="black" stroke-width="1" x1="40" x2="40" y1="84.0" y2="81.0" /><line fill="none" stroke="black" stroke-width="1" x1="56" x2="56" y1="84.0" y2="81.0" /><line fill="none" stroke="black" stroke-width="2" x1="72" x2="72" y1="84.0" y2="81.0" /><line fill="none" stroke="black" stroke-width="1" x1="88" x2="88" y1="84.0" y2="81.0" /><line fill="none" stroke="black" stroke-width="1" x1="104" x2="104" y1="84.0" y2="81.0" /><line fill="none" stroke="black" stroke-width="1" x1="120" x2="120" y1="84.0" y2="81.0" /><line fill="none" stroke="black" stroke-width="2" x1="136" x2="136" y1="84.0" y2="81.0" /><line fill="none" stroke="black" stroke-width="1" x1="152" x2="152" y1="84.0" y2="81.0" /><line fill="none" stroke="black" stroke-width="1" x1="168" x2="168" y1="84.0" y2="81.0" /><line fill="none" stroke="black" stroke-width="1" x1="184" x2="184" y1="84.0" y2="81.0" /><line fill="none" stroke="black" stroke-width="2" x1="200" x2="200" y1="84.0" y2="81.0" /><line fill="none" stroke="black" stroke-width="1" x1="216" x2="216" y1="84.0" y2="81.0" /><line fill="none" stroke="black" stroke-width="1" x1="232" x2="232" y1="84.0" y2="81.0" /><line fill="none" stroke="black" stroke-width="1" x1="248" x2="248" y1="84.0" y2="81.0" /><line fill="none" stroke="black" stroke-width="2" x1="264" x2="264" y1="84.0" y2="81.0" /><line fill="none" stroke="black" stroke-width="1" x1="280" x2="280" y1="84.0" y2="81.0" /><line fill="none" stroke="black" stroke-width="1" x1="296" x2="296" y1="84.0" y2="81.0" /><line fill="none" stroke="black" stroke-width="1" x1="312" x2="312" y1="84.0" y2="81.0" /><line fill="none" stroke="black" stroke-width="2" x1="328" x2="328" y1="84.0" y2="81.0" /><line fill="none" stroke="black" stroke-width="1" x1="344" x2="344" y1="84.0" y2="81.0" /><line fill="none" stroke="black" stroke-width="1" x1="360" x2="360" y1="84.0" y2="81.0" /><line fill="none" stroke="black" stroke-width="1" x1="376" x2="376" y1="84.0" y2="81.0" /><line fill="none" stroke="black" stroke-width="2" x1="392" x2="392" y1="84.0" y2="81.0" /><line fill="none" stroke="black" stroke-width="1" x1="408" x2="408" y1="84.0" y2="81.0" /><line fill="none" stroke="black" stroke-width="1" x1="424" x2="424" y1="84.0" y2="81.0" /><line fill="none" stroke="black" stroke-width="1" x1="440" x2="440" y1="84.0" y2="81.0" /><line fill="none" stroke="black" stroke-width="2" x1="456" x2="456" y1="84.0" y2="81.0" /><line fill="none" stroke="black" stroke-width="1" x1="472" x2="472" y1="84.0" y2="81.0" /><line fill="none" stroke="black" stroke-width="1" x1="488" x2="488" y1="84.0" y2="81.0" /><line fill="none" stroke="black" stroke-width="1" x1="504" x2="504" y1="84.0" y2="81.0" /><polyline fill="none" points="3,84 3,120.0 527,120.0 527,84" stroke="black" stroke-width="0.75" /><line fill="none" stroke="black" stroke-width="1" x1="24" x2="24" y1="120.0" y2="117.0" /><line fill="none" stroke="black" stroke-width="1" x1="40" x2="40" y1="120.0" y2="117.0" /><line fill="none" stroke="black" stroke-width="1" x1="56" x2="56" y1="120.0" y2="117.0" /><line fill="none" stroke="black" stroke-width="2" x1="72" x2="72" y1="120.0" y2="117.0" /><line fill="none" stroke="black" stroke-width="1" x1="88" x2="88" y1="120.0" y2="117.0" /><line fill="none" stroke="black" stroke-width="1" x1="104" x2="104" y1="120.0" y2="117.0" /><line fill="none" stroke="black" stroke-width="1" x1="120" x2="120" y1="120.0" y2="117.0" /><line fill="none" stroke="black" stroke-width="2" x1="136" x2="136" y1="120.0" y2="117.0" /><line fill="none" stroke="black" stroke-width="1" x1="152" x2="152" y1="120.0" y2="117.0" /><line fill="none" stroke="black" stroke-width="1" x1="168" x2="168" y1="120.0" y2="117.0" /><line fill="none" stroke="black" stroke-width="1" x1="184" x2="184" y1="120.0" y2="117.0" /><line fill="none" stroke="black" stroke-width="2" x1="200" x2="200" y1="120.0" y2="117.0" /><line fill="none" stroke="black" stroke-width="1" x1="216" x2="216" y1="120.0" y2="117.0" /><line fill="none" stroke="black" stroke-width="1" x1="232" x2="232" y1="120.0" y2="117.0" /><line fill="none" stroke="black" stroke-width="1" x1="248" x2="248" y1="120.0" y2="117.0" /><line fill="none" stroke="black" stroke-width="2" x1="264" x2="264" y1="120.0" y2="117.0" /><line fill="none" stroke="black" stroke-width="1" x1="280" x2="280" y1="120.0" y2="117.0" /><line fill="none" stroke="black" stroke-width="1" x1="296" x2="296" y1="120.0" y2="117.0" /><line fill="none" stroke="black" stroke-width="1" x1="312" x2="312" y1="120.0" y2="117.0" /><line fill="none" stroke="black" stroke-width="2" x1="328" x2="328" y1="120.0" y2="117.0" /><line fill="none" stroke="black" stroke-width="1" x1="344" x2="344" y1="120.0" y2="117.0" /><line fill="none" stroke="black" stroke-width="1" x1="360" x2="360" y1="120.0" y2="117.0" /><line fill="none" stroke="black" stroke-width="1" x1="376" x2="376" y1="120.0" y2="117.0" /><line fill="none" stroke="black" stroke-width="2" x1="392" x2="392" y1="120.0" y2="117.0" /><line fill="none" stroke="black" stroke-width="1" x1="408" x2="408" y1="120.0" y2="117.0" /><line fill="none" stroke="black" stroke-width="1" x1="424" x2="424" y1="120.0" y2="117.0" /><line fill="none" stroke="black" stroke-width="1" x1="440" x2="440" y1="120.0" y2="117.0" /><line fill="none" stroke="black" stroke-width="2" x1="456" x2="456" y1="120.0" y2="117.0" /><line fill="none" stroke="black" stroke-width="1" x1="472" x2="472" y1="120.0" y2="117.0" /><line fill="none" stroke="black" stroke-width="1" x1="488" x2="488" y1="120.0" y2="117.0" /><line fill="none" stroke="black" stroke-width="1" x1="504" x2="504" y1="120.0" y2="117.0" /><polyline fill="none" points="3,120 3,156.0 527,156.0 527,120" stroke="black" stroke-width="0.75" /><line fill="none" stroke="black" stroke-width="1" x1="24" x2="24" y1="156.0" y2="153.0" /><line fill="none" stroke="black" stroke-width="1" x1="40" x2="40" y1="156.0" y2="153.0" /><line fill="none" stroke="black" stroke-width="1" x1="56" x2="56" y1="156.0" y2="153.0" /><line fill="none" stroke="black" stroke-width="2" x1="72" x2="72" y1="156.0" y2="153.0" /><line fill="none" stroke="black" stroke-width="1" x1="88" x2="88" y1="156.0" y2="153.0" /><line fill="none" stroke="black" stroke-width="1" x1="104" x2="104" y1="156.0" y2="153.0" /><line fill="none" stroke="black" stroke-width="1" x1="120" x2="120" y1="156.0" y2="153.0" /><line fill="none" stroke="black" stroke-width="2" x1="136" x2="136" y1="156.0" y2="153.0" /><line fill="none" stroke="black" stroke-width="1" x1="152" x2="152" y1="156.0" y2="153.0" /><line fill="none" stroke="black" stroke-width="1" x1="168" x2="168" y1="156.0" y2="153.0" /><line fill="none" stroke="black" stroke-width="1" x1="184" x2="184" y1="156.0" y2="153.0" /><line fill="none" stroke="black" stroke-width="2" x1="200" x2="200" y1="156.0" y2="153.0" /><line fill="none" stroke="black" stroke-width="1" x1="216" x2="216" y1="156.0" y2="153.0" /><line fill="none" stroke="black" stroke-width="1" x1="232" x2="232" y1="156.0" y2="153.0" /><line fill="none" stroke="black" stroke-width="1" x1="248" x2="248" y1="156.0" y2="153.0" /><line fill="none" stroke="black" stroke-width="2" x1="264" x2="264" y1="156.0" y2="153.0" /><line fill="none" stroke="black" stroke-width="1" x1="280" x2="280" y1="156.0" y2="153.0" /><line fill="none" stroke="black" stroke-width="1" x1="296" x2="296" y1="156.0" y2="153.0" /><line fill="none" stroke="black" stroke-width="1" x1="312" x2="312" y1="156.0" y2="153.0" /><line fill="none" stroke="black" stroke-width="2" x1="328" x2="328" y1="156.0" y2="153.0" /><line fill="none" stroke="black" stroke-width="1" x1="344" x2="344" y1="156.0" y2="153.0" /><line fill="none" stroke="black" stroke-width="1" x1="360" x2="360" y1="156.0" y2="153.0" /><line fill="none" stroke="black" stroke-width="1" x1="376" x2="376" y1="156.0" y2="153.0" /><line fill="none" stroke="black" stroke-width="2" x1="392" x2="392" y1="156.0" y2="153.0" /><line fill="none" stroke="black" stroke-width="1" x1="408" x2="408" y1="156.0" y2="153.0" /><line fill="none" stroke="black" stroke-width="1" x1="424" x2="424" y1="156.0" y2="153.0" /><line fill="none" stroke="black" stroke-width="1" x1="440" x2="440" y1="156.0" y2="153.0" /><line fill="none" stroke="black" stroke-width="2" x1="456" x2="456" y1="156.0" y2="153.0" /><line fill="none" stroke="black" stroke-width="1" x1="472" x2="472" y1="156.0" y2="153.0" /><line fill="none" stroke="black" stroke-width="1" x1="488" x2="488" y1="156.0" y2="153.0" /><line fill="none" stroke="black" stroke-width="1" x1="504" x2="504" y1="156.0" y2="153.0" /><polyline fill="none" points="3,156 3,260.0 527,260.0 527,156" stroke="black" stroke-width="0.75" /><line fill="none" stroke="black" stroke-width="1" x1="24" x2="24" y1="260.0" y2="257.0" /><line fill="none" stroke="black" stroke-width="1" x1="40" x2="40" y1="260.0" y2="257.0" /><line fill="none" stroke="black" stroke-width="1" x1="56" x2="56" y1="260.0" y2="257.0" /><line fill="none" stroke="black" stroke-width="2" x1="72" x2="72" y1="260.0" y2="257.0" /><line fill="none" stroke="black" stroke-width="1" x1="88" x2="88" y1="260.0" y2="257.0" /><line fill="none" stroke="black" stroke-width="1" x1="104" x2="104" y1="260.0" y2="257.0" /><line fill="none" stroke="black" stroke-width="1" x1="120" x2="120" y1="260.0" y2="257.0" /><line fill="none" stroke="black" stroke-width="2" x1="136" x2="136" y1="260.0" y2="257.0" /><line fill="none" stroke="black" stroke-width="1" x1="152" x2="152" y1="260.0" y2="257.0" /><line fill="none" stroke="black" stroke-width="1" x1="168" x2="168" y1="260.0" y2="257.0" /><line fill="none" stroke="black" stroke-width="1" x1="184" x2="184" y1="260.0" y2="257.0" /><line fill="none" stroke="black" stroke-width="2" x1="200" x2="200" y1="260.0" y2="257.0" /><line fill="none" stroke="black" stroke-width="1" x1="216" x2="216" y1="260.0" y2="257.0" /><line fill="none" stroke="black" stroke-width="1" x1="232" x2="232" y1="260.0" y2="257.0" /><line fill="none" stroke="black" stroke-width="1" x1="248" x2="248" y1="260.0" y2="257.0" /><line fill="none" stroke="black" stroke-width="2" x1="264" x2="264" y1="260.0" y2="257.0" /><line fill="none" stroke="black" stroke-width="1" x1="280" x2="280" y1="260.0" y2="257.0" /><line fill="none" stroke="black" stroke-width="1" x1="296" x2="296" y1="260.0" y2="257.0" /><line fill="none" stroke="black" stroke-width="1" x1="312" x2="312" y1="260.0" y2="257.0" /><line fill="none" stroke="black" stroke-width="2" x1="328" x2="328" y1="260.0" y2="257.0" /><line fill="none" stroke="black" stroke-width="1" x1="344" x2="344" y1="260.0" y2="257.0" /><line fill="none" stroke="black" stroke-width="1" x1="360" x2="360" y1="260.0" y2="257.0" /><line fill="none" stroke="black" stroke-width="1" x1="376" x2="376" y1="260.0" y2="257.0" /><line fill="none" stroke="black" stroke-width="2" x1="392" x2="392" y1="260.0" y2="257.0" /><line fill="none" stroke="black" stroke-width="1" x1="408" x2="408" y1="260.0" y2="257.0" /><line fill="none" stroke="black" stroke-width="1" x1="424" x2="424" y1="260.0" y2="257.0" /><line fill="none" stroke="black" stroke-width="1" x1="440" x2="440" y1="260.0" y2="257.0" /><line fill="none" stroke="black" stroke-width="2" x1="456" x2="456" y1="260.0" y2="257.0" /><line fill="none" stroke="black" stroke-width="1" x1="472" x2="472" y1="260.0" y2="257.0" /><line fill="none" stroke="black" stroke-width="1" x1="488" x2="488" y1="260.0" y2="257.0" /><line fill="none" stroke="black" stroke-width="1" x1="504" x2="504" y1="260.0" y2="257.0" /><polyline fill="none" points="3,226 3,262.0 527,262.0 527,226" stroke="black" stroke-width="0.75" /><line fill="none" stroke="black" stroke-width="1" x1="24" x2="24" y1="262.0" y2="259.0" /><line fill="none" stroke="black" stroke-width="1" x1="40" x2="40" y1="262.0" y2="259.0" /><line fill="none" stroke="black" stroke-width="1" x1="56" x2="56" y1="262.0" y2="259.0" /><line fill="none" stroke="black" stroke-width="2" x1="72" x2="72" y1="262.0" y2="259.0" /><line fill="none" stroke="black" stroke-width="1" x1="88" x2="88" y1="262.0" y2="259.0" /><line fill="none" stroke="black" stroke-width="1" x1="104" x2="104" y1="262.0" y2="259.0" /><line fill="none" stroke="black" stroke-width="1" x1="120" x2="120" y1="262.0" y2="259.0" /><line fill="none" stroke="black" stroke-width="2" x1="136" x2="136" y1="262.0" y2="259.0" /><line fill="none" stroke="black" stroke-width="1" x1="152" x2="152" y1="262.0" y2="259.0" /><line fill="none" stroke="black" stroke-width="1" x1="168" x2="168" y1="262.0" y2="259.0" /><line fill="none" stroke="black" stroke-width="1" x1="184" x2="184" y1="262.0" y2="259.0" /><line fill="none" stroke="black" stroke-width="2" x1="200" x2="200" y1="262.0" y2="259.0" /><line fill="none" stroke="black" stroke-width="1" x1="216" x2="216" y1="262.0" y2="259.0" /><line fill="none" stroke="black" stroke-width="1" x1="232" x2="232" y1="262.0" y2="259.0" /><line fill="none" stroke="black" stroke-width="1" x1="248" x2="248" y1="262.0" y2="259.0" /><line fill="none" stroke="black" stroke-width="2" x1="264" x2="264" y1="262.0" y2="259.0" /><line fill="none" stroke="black" stroke-width="1" x1="280" x2="280" y1="262.0" y2="259.0" /><line fill="none" stroke="black" stroke-width="1" x1="296" x2="296" y1="262.0" y2="259.0" /><line fill="none" stroke="black" stroke-width="1" x1="312" x2="312" y1="262.0" y2="259.0" /><line fill="none" stroke="black" stroke-width="2" x1="328" x2="328" y1="262.0" y2="259.0" /><line fill="none" stroke="black" stroke-width="1" x1="344" x2="344" y1="262.0" y2="259.0" /><line fill="none" stroke="black" stroke-width="1" x1="360" x2="360" y1="262.0" y2="259.0" /><line fill="none" stroke="black" stroke-width="1" x1="376" x2="376" y1="262.0" y2="259.0" /><line fill="none" stroke="black" stroke-width="2" x1="392" x2="392" y1="262.0" y2="259.0" /><line fill="none" stroke="black" stroke-width="1" x1="408" x2="408" y1="262.0" y2="259.0" /><line fill="none" stroke="black" stroke-width="1" x1="424" x2="424" y1="262.0" y2="259.0" /><line fill="none" stroke="black" stroke-width="1" x1="440" x2="440" y1="262.0" y2="259.0" /><line fill="none" stroke="black" stroke-width="2" x1="456" x2="456" y1="262.0" y2="259.0" /><line fill="none" stroke="black" stroke-width="1" x1="472" x2="472" y1="262.0" y2="259.0" /><line fill="none" stroke="black" stroke-width="1" x1="488" x2="488" y1="262.0" y2="259.0" /><line fill="none" stroke="black" stroke-width="1" x1="504" x2="504" y1="262.0" y2="259.0" /><polyline fill="none" points="3,262 3,298.0 527,298.0 527,262" stroke="black" stroke-width="0.75" /><line fill="none" stroke="black" stroke-width="1" x1="24" x2="24" y1="298.0" y2="295.0" /><line fill="none" stroke="black" stroke-width="1" x1="40" x2="40" y1="298.0" y2="295.0" /><line fill="none" stroke="black" stroke-width="1" x1="56" x2="56" y1="298.0" y2="295.0" /><line fill="none" stroke="black" stroke-width="2" x1="72" x2="72" y1="298.0" y2="295.0" /><line fill="none" stroke="black" stroke-width="1" x1="88" x2="88" y1="298.0" y2="295.0" /><line fill="none" stroke="black" stroke-width="1" x1="104" x2="104" y1="298.0" y2="295.0" /><line fill="none" stroke="black" stroke-width="1" x1="120" x2="120" y1="298.0" y2="295.0" /><line fill="none" stroke="black" stroke-width="2" x1="136" x2="136" y1="298.0" y2="295.0" /><line fill="none" stroke="black" stroke-width="1" x1="152" x2="152" y1="298.0" y2="295.0" /><line fill="none" stroke="black" stroke-width="1" x1="168" x2="168" y1="298.0" y2="295.0" /><line fill="none" stroke="black" stroke-width="1" x1="184" x2="184" y1="298.0" y2="295.0" /><line fill="none" stroke="black" stroke-width="2" x1="200" x2="200" y1="298.0" y2="295.0" /><line fill="none" stroke="black" stroke-width="1" x1="216" x2="216" y1="298.0" y2="295.0" /><line fill="none" stroke="black" stroke-width="1" x1="232" x2="232" y1="298.0" y2="295.0" /><line fill="none" stroke="black" stroke-width="1" x1="248" x2="248" y1="298.0" y2="295.0" /><line fill="none" stroke="black" stroke-width="2" x1="264" x2="264" y1="298.0" y2="295.0" /><line fill="none" stroke="black" stroke-width="1" x1="280" x2="280" y1="298.0" y2="295.0" /><line fill="none" stroke="black" stroke-width="1" x1="296" x2="296" y1="298.0" y2="295.0" /><line fill="none" stroke="black" stroke-width="1" x1="312" x2="312" y1="298.0" y2="295.0" /><line fill="none" stroke="black" stroke-width="2" x1="328" x2="328" y1="298.0" y2="295.0" /><line fill="none" stroke="black" stroke-width="1" x1="344" x2="344" y1="298.0" y2="295.0" /><line fill="none" stroke="black" stroke-width="1" x1="360" x2="360" y1="298.0" y2="295.0" /><line fill="none" stroke="black" stroke-width="1" x1="376" x2="376" y1="298.0" y2="295.0" /><line fill="none" stroke="black" stroke-width="2" x1="392" x2="392" y1="298.0" y2="295.0" /><line fill="none" stroke="black" stroke-width="1" x1="408" x2="408" y1="298.0" y2="295.0" /><line fill="none" stroke="black" stroke-width="1" x1="424" x2="424" y1="298.0" y2="295.0" /><line fill="none" stroke="black" stroke-width="1" x1="440" x2="440" y1="298.0" y2="295.0" /><line fill="none" stroke="black" stroke-width="2" x1="456" x2="456" y1="298.0" y2="295.0" /><line fill="none" stroke="black" stroke-width="1" x1="472" x2="472" y1="298.0" y2="295.0" /><line fill="none" stroke="black" stroke-width="1" x1="488" x2="488" y1="298.0" y2="295.0" /><line fill="none" stroke="black" stroke-width="1" x1="504" x2="504" y1="298.0" y2="295.0" /><polyline fill="none" points="3,298 3,334.0 527,334.0 527,298" stroke="black" stroke-width="0.75" /><line fill="none" stroke="black" stroke-width="1" x1="24" x2="24" y1="334.0" y2="331.0" /><line fill="none" stroke="black" stroke-width="1" x1="40" x2="40" y1="334.0" y2="331.0" /><line fill="none" stroke="black" stroke-width="1" x1="56" x2="56" y1="334.0" y2="331.0" /><line fill="none" stroke="black" stroke-width="2" x1="72" x2="72" y1="334.0" y2="331.0" /><line fill="none" stroke="black" stroke-width="1" x1="88" x2="88" y1="334.0" y2="331.0" /><line fill="none" stroke="black" stroke-width="1" x1="104" x2="104" y1="334.0" y2="331.0" /><line fill="none" stroke="black" stroke-width="1" x1="120" x2="120" y1="334.0" y2="331.0" /><line fill="none" stroke="black" stroke-width="2" x1="136" x2="136" y1="334.0" y2="331.0" /><line fill="none" stroke="black" stroke-width="1" x1="152" x2="152" y1="334.0" y2="331.0" /><line fill="none" stroke="black" stroke-width="1" x1="168" x2="168" y1="334.0" y2="331.0" /><line fill="none" stroke="black" stroke-width="1" x1="184" x2="184" y1="334.0" y2="331.0" /><line fill="none" stroke="black" stroke-width="2" x1="200" x2="200" y1="334.0" y2="331.0" /><line fill="none" stroke="black" stroke-width="1" x1="216" x2="216" y1="334.0" y2="331.0" /><line fill="none" stroke="black" stroke-width="1" x1="232" x2="232" y1="334.0" y2="331.0" /><line fill="none" stroke="black" stroke-width="1" x1="248" x2="248" y1="334.0" y2="331.0" /><line fill="none" stroke="black" stroke-width="2" x1="264" x2="264" y1="334.0" y2="331.0" /><line fill="none" stroke="black" stroke-width="1" x1="280" x2="280" y1="334.0" y2="331.0" /><line fill="none" stroke="black" stroke-width="1" x1="296" x2="296" y1="334.0" y2="331.0" /><line fill="none" stroke="black" stroke-width="1" x1="312" x2="312" y1="334.0" y2="331.0" /><line fill="none" stroke="black" stroke-width="2" x1="328" x2="328" y1="334.0" y2="331.0" /><line fill="none" stroke="black" stroke-width="1" x1="344" x2="344" y1="334.0" y2="331.0" /><line fill="none" stroke="black" stroke-width="1" x1="360" x2="360" y1="334.0" y2="331.0" /><line fill="none" stroke="black" stroke-width="1" x1="376" x2="376" y1="334.0" y2="331.0" /><line fill="none" stroke="black" stroke-width="2" x1="392" x2="392" y1="334.0" y2="331.0" /><line fill="none" stroke="black" stroke-width="1" x1="408" x2="408" y1="334.0" y2="331.0" /><line fill="none" stroke="black" stroke-width="1" x1="424" x2="424" y1="334.0" y2="331.0" /><line fill="none" stroke="black" stroke-width="1" x1="440" x2="440" y1="334.0" y2="331.0" /><line fill="none" stroke="black" stroke-width="2" x1="456" x2="456" y1="334.0" y2="331.0" /><line fill="none" stroke="black" stroke-width="1" x1="472" x2="472" y1="334.0" y2="331.0" /><line fill="none" stroke="black" stroke-width="1" x1="488" x2="488" y1="334.0" y2="331.0" /><line fill="none" stroke="black" stroke-width="1" x1="504" x2="504" y1="334.0" y2="331.0" /><text font-family="monospace" font-size="17" font-weight="normal" x="9" y="25">0</text><text font-family="monospace" font-size="17" font-weight="normal" x="17" y="25"> </text><text font-family="monospace" font-size="17" font-weight="normal" x="25" y="25"> </text><text font-family="monospace" font-size="17" font-weight="normal" x="33" y="25"> </text><text font-family="monospace" font-size="17" font-weight="normal" x="41" y="25"> </text><text font-family="monospace" font-size="17" font-weight="normal" x="49" y="25"> </text><text font-family="monospace" font-size="17" font-weight="normal" x="57" y="25"> </text><text font-family="monospace" font-size="17" font-weight="normal" x="65" y="25"> </text><text font-family="monospace" font-size="17" font-weight="normal" x="73" y="25"> </text><text font-family="monospace" font-size="17" font-weight="normal" x="81" y="25"> </text><text font-family="monospace" font-size="17" font-weight="normal" x="89" y="25"> </text><text font-family="monospace" font-size="17" font-weight="normal" x="97" y="25"> </text><text font-family="monospace" font-size="17" font-weight="normal" x="105" y="25"> </text><text font-family="monospace" font-size="17" font-weight="normal" x="113" y="25"> </text><text font-family="monospace" font-size="17" font-weight="normal" x="121" y="25"> </text><text font-family="monospace" font-size="17" font-weight="normal" x="129" y="25"> </text><text font-family="monospace" font-size="17" font-weight="normal" x="137" y="25"> </text><text font-family="monospace" font-size="17" font-weight="normal" x="145" y="25"> </text><text font-family="monospace" font-size="17" font-weight="normal" x="153" y="25"> </text><text font-family="monospace" font-size="17" font-weight="normal" x="161" y="25"> </text><text font-family="monospace" font-size="17" font-weight="normal" x="169" y="25">1</text><text font-family="monospace" font-size="17" font-weight="normal" x="177" y="25"> </text><text font-family="monospace" font-size="17" font-weight="normal" x="185" y="25"> </text><text font-family="monospace" font-size="17" font-weight="normal" x="193" y="25"> </text><text font-family="monospace" font-size="17" font-weight="normal" x="201" y="25"> </text><text font-family="monospace" font-size="17" font-weight="normal" x="209" y="25"> </text><text font-family="monospace" font-size="17" font-weight="normal" x="217" y="25"> </text><text font-family="monospace" font-size="17" font-weight="normal" x="225" y="25"> </text><text font-family="monospace" font-size="17" font-weight="normal" x="233" y="25"> </text><text font-family="monospace" font-size="17" font-weight="normal" x="241" y="25"> </text><text font-family="monospace" font-size="17" font-weight="normal" x="249" y="25"> </text><text font-family="monospace" font-size="17" font-weight="normal" x="257" y="25"> </text><text font-family="monospace" font-size="17" font-weight="normal" x="265" y="25"> </text><text font-family="monospace" font-size="17" font-weight="normal" x="273" y="25"> </text><text font-family="monospace" font-size="17" font-weight="normal" x="281" y="25"> </text><text font-family="monospace" font-size="17" font-weight="normal" x="289" y="25"> </text><text font-family="monospace" font-size="17" font-weight="normal" x="297" y="25"> </text><text font-family="monospace" font-size="17" font-weight="normal" x="305" y="25"> </text><text font-family="monospace" font-size="17" font-weight="normal" x="313" y="25"> </text><text font-family="monospace" font-size="17" font-weight="normal" x="321" y="25"> </text><text font-family="monospace" font-size="17" font-weight="normal" x="329" y="25">2</text><text font-family="monospace" font-size="17" font-weight="normal" x="337" y="25"> </text><text font-family="monospace" font-size="17" font-weight="normal" x="345" y="25"> </text><text font-family="monospace" font-size="17" font-weight="normal" x="353" y="25"> </text><text font-family="monospace" font-size="17" font-weight="normal" x="361" y="25"> </text><text font-family="monospace" font-size="17" font-weight="normal" x="369" y="25"> </text><text font-family="monospace" font-size="17" font-weight="normal" x="377" y="25"> </text><text font-family="monospace" font-size="17" font-weight="normal" x="385" y="25"> </text><text font-family="monospace" font-size="17" font-weight="normal" x="393" y="25"> </text><text font-family="monospace" font-size="17" font-weight="normal" x="401" y="25"> </text><text font-family="monospace" font-size="17" font-weight="normal" x="409" y="25"> </text><text font-family="monospace" font-size="17" font-weight="normal" x="417" y="25"> </text><text font-family="monospace" font-size="17" font-weight="normal" x="425" y="25"> </text><text font-family="monospace" font-size="17" font-weight="normal" x="433" y="25"> </text><text font-family="monospace" font-size="17" font-weight="normal" x="441" y="25"> </text><text font-family="monospace" font-size="17" font-weight="normal" x="449" y="25"> </text><text font-family="monospace" font-size="17" font-weight="normal" x="457" y="25"> </text><text font-family="monospace" font-size="17" font-weight="normal" x="465" y="25"> </text><text font-family="monospace" font-size="17" font-weight="normal" x="473" y="25"> </text><text font-family="monospace" font-size="17" font-weight="normal" x="481" y="25"> </text><text font-family="monospace" font-size="17" font-weight="normal" x="489" y="25">3</text><text font-family="monospace" font-size="17" font-weight="normal" x="497" y="25"> </text><text font-family="monospace" font-size="17" font-weight="normal" x="505" y="25"> </text><text font-family="monospace" font-size="17" font-weight="normal" x="9" y="42">0</text><text font-family="monospace" font-size="17" font-weight="normal" x="17" y="42"> </text><text font-family="monospace" font-size="17" font-weight="normal" x="25" y="42">1</text><text font-family="monospace" font-size="17" font-weight="normal" x="33" y="42"> </text><text font-family="monospace" font-size="17" font-weight="normal" x="41" y="42">2</text><text font-family="monospace" font-size="17" font-weight="normal" x="49" y="42"> </text><text font-family="monospace" font-size="17" font-weight="normal" x="57" y="42">3</text><text font-family="monospace" font-size="17" font-weight="normal" x="65" y="42"> </text><text font-family="monospace" font-size="17" font-weight="normal" x="73" y="42">4</text><text font-family="monospace" font-size="17" font-weight="normal" x="81" y="42"> </text><text font-family="monospace" font-size="17" font-weight="normal" x="89" y="42">5</text><text font-family="monospace" font-size="17" font-weight="normal" x="97" y="42"> </text><text font-family="monospace" font-size="17" font-weight="normal" x="105" y="42">6</text><text font-family="monospace" font-size="17" font-weight="normal" x="113" y="42"> </text><text font-family="monospace" font-size="17" font-weight="normal" x="121" y="42">7</text><text font-family="monospace" font-size="17" font-weight="normal" x="129" y="42"> </text><text font-family="monospace" font-size="17" font-weight="normal" x="137" y="42">8</text><text font-family="monospace" font-size="17" font-weight="normal" x="145" y="42"> </text><text font-family="monospace" font-size="17" font-weight="normal" x="153" y="42">9</text><text font-family="monospace" font-size="17" font-weight="normal" x="161" y="42"> </text><text font-family="monospace" font-size="17" font-weight="normal" x="169" y="42">0</text><text font-family="monospace" font-size="17" font-weight="normal" x="177" y="42"> </text><text font-family="monospace" font-size="17" font-weight="normal" x="185" y="42">1</text><text font-family="monospace" font-size="17" font-weight="normal" x="193" y="42"> </text><text font-family="monospace" font-size="17" font-weight="normal" x="201" y="42">2</text><text font-family="monospace" font-size="17" font-weight="normal" x="209" y="42"> </text><text font-family="monospace" font-size="17" font-weight="normal" x="217" y="42">3</text><text font-family="monospace" font-size="17" font-weight="normal" x="225" y="42"> </text><text font-family="monospace" font-size="17" font-weight="normal" x="233" y="42">4</text><text font-family="monospace" font-size="17" font-weight="normal" x="241" y="42"> </text><text font-family="monospace" font-size="17" font-weight="normal" x="249" y="42">5</text><text font-family="monospace" font-size="17" font-weight="normal" x="257" y="42"> </text><text font-family="monospace" font-size="17" font-weight="normal" x="265" y="42">6</text><text font-family="monospace" font-size="17" font-weight="normal" x="273" y="42"> </text><text font-family="monospace" font-size="17" font-weight="normal" x="281" y="42">7</text><text font-family="monospace" font-size="17" font-weight="normal" x="289" y="42"> </text><text font-family="monospace" font-size="17" font-weight="normal" x="297" y="42">8</text><text font-family="monospace" font-size="17" font-weight="normal" x="305" y="42"> </text><text font-family="monospace" font-size="17" font-weight="normal" x="313" y="42">9</text><text font-family="monospace" font-size="17" font-weight="normal" x="321" y="42"> </text><text font-family="monospace" font-size="17" font-weight="normal" x="329" y="42">0</text><text font-family="monospace" font-size="17" font-weight="normal" x="337" y="42"> </text><text font-family="monospace" font-size="17" font-weight="normal" x="345" y="42">1</text><text font-family="monospace" font-size="17" font-weight="normal" x="353" y="42"> </text><text font-family="monospace" font-size="17" font-weight="normal" x="361" y="42">2</text><text font-family="monospace" font-size="17" font-weight="normal" x="369" y="42"> </text><text font-family="monospace" font-size="17" font-weight="normal" x="377" y="42">3</text><text font-family="monospace" font-size="17" font-weight="normal" x="385" y="42"> </text><text font-family="monospace" font-size="17" font-weight="normal" x="393" y="42">4</text><text font-family="monospace" font-size="17" font-weight="normal" x="401" y="42"> </text><text font-family="monospace" font-size="17" font-weight="normal" x="409" y="42">5</text><text font-family="monospace" font-size="17" font-weight="normal" x="417" y="42"> </text><text font-family="monospace" font-size="17" font-weight="normal" x="425" y="42">6</text><text font-family="monospace" font-size="17" font-weight="normal" x="433" y="42"> </text><text font-family="monospace" font-size="17" font-weight="normal" x="441" y="42">7</text><text font-family="monospace" font-size="17" font-weight="normal" x="449" y="42"> </text><text font-family="monospace" font-size="17" font-weight="normal" x="457" y="42">8</text><text font-family="monospace" font-size="17" font-weight="normal" x="465" y="42"> </text><text font-family="monospace" font-size="17" font-weight="normal" x="473" y="42">9</text><text font-family="monospace" font-size="17" font-weight="normal" x="481" y="42"> </text><text font-family="monospace" font-size="17" font-weight="normal" x="489" y="42">0</text><text font-family="monospace" font-size="17" font-weight="normal" x="497" y="42"> </text><text font-family="monospace" font-size="17" font-weight="normal" x="505" y="42">1</text><text font-family="monospace" font-size="17" font-weight="normal" x="89" y="70">S</text><text font-family="monospace" font-size="17" font-weight="normal" x="97" y="70">o</text><text font-family="monospace" font-size="17" font-weight="normal" x="105" y="70">u</text><text font-family="monospace" font-size="17" font-weight="normal" x="113" y="70">r</text><text font-family="monospace" font-size="17" font-weight="normal" x="121" y="70">c</text><text font-family="monospace" font-size="17" font-weight="normal" x="129" y="70">e</text><text font-family="monospace" font-size="17" font-weight="normal" x="137" y="70"> </text><text font-family="monospace" font-size="17" font-weight="normal" x="145" y="70">P</text><text font-family="monospace" font-size="17" font-weight="normal" x="153" y="70">o</text><text font-family="monospace" font-size="17" font-weight="normal" x="161" y="70">r</text><text font-family="monospace" font-size="17" font-weight="normal" x="169" y="70">t</text><line fill="none" stroke="black" stroke-width="1" x1="264" x2="264" y1="48" y2="81.0" /><text font-family="monospace" font-size="17" font-weight="normal" x="325" y="70">D</text><text font-family="monospace" font-size="17" font-weight="normal" x="333" y="70">e</text><text font-family="monospace" font-size="17" font-weight="normal" x="341" y="70">s</text><text font-family="monospace" font-size="17" font-weight="normal" x="349" y="70">t</text><text font-family="monospace" font-size="17" font-weight="normal" x="357" y="70">i</text><text font-family="monospace" font-size="17" font-weight="normal" x="365" y="70">n</text><text font-family="monospace" font-size="17" font-weight="normal" x="373" y="70">a</text><text font-family="monospace" font-size="17" font-weight="normal" x="381" y="70">t</text><text font-family="monospace" font-size="17" font-weight="normal" x="389" y="70">i</text><text font-family="monospace" font-size="17" font-weight="normal" x="397" y="70">o</text><text font-family="monospace" font-size="17" font-weight="normal" x="405" y="70">n</text><text font-family="monospace" font-size="17" font-weight="normal" x="413" y="70"> </text><text font-family="monospace" font-size="17" font-weight="normal" x="421" y="70">P</text><text font-family="monospace" font-size="17" font-weight="normal" x="429" y="70">o</text><text font-family="monospace" font-size="17" font-weight="normal" x="437" y="70">r</text><text font-family="monospace" font-size="17" font-weight="normal" x="445" y="70">t</text><text font-family="monospace" font-size="17" font-weight="normal" x="201" y="106">S</text><text font-family="monospace" font-size="17" font-weight="normal" x="209" y="106">e</text><text font-family="monospace" font-size="17" font-weight="normal" x="217" y="106">q</text><text font-family="monospace" font-size="17" font-weight="normal" x="225" y="106">u</text><text font-family="monospace" font-size="17" font-weight="normal" x="233" y="106">e</text><text font-family="monospace" font-size="17" font-weight="normal" x="241" y="106">n</text><text font-family="monospace" font-size="17" font-weight="normal" x="249" y="106">c</text><text font-family="monospace" font-size="17" font-weight="normal" x="257" y="106">e</text><text font-family="monospace" font-size="17" font-weight="normal" x="265" y="106"> </text><text font-family="monospace" font-size="17" font-weight="normal" x="273" y="106">N</text><text font-family="monospace" font-size="17" font-weight="normal" x="281" y="106">u</text><text font-family="monospace" font-size="17" font-weight="normal" x="289" y="106">m</text><text font-family="monospace" font-size="17" font-weight="normal" x="297" y="106">b</text><text font-family="monospace" font-size="17" font-weight="normal" x="305" y="106">e</text><text font-family="monospace" font-size="17" font-weight="normal" x="313" y="106">r</text><text font-family="monospace" font-size="17" font-weight="normal" x="173" y="142">A</text><text font-family="monospace" font-size="17" font-weight="normal" x="181" y="142">c</text><text font-family="monospace" font-size="17" font-weight="normal" x="189" y="142">k</text><text font-family="monospace" font-size="17" font-weight="normal" x="197" y="142">n</text><text font-family="monospace" font-size="17" font-weight="normal" x="205" y="142">o</text><text font-family="monospace" font-size="17" font-weight="normal" x="213" y="142">w</text><text font-family="monospace" font-size="17" font-weight="normal" x="221" y="142">l</text><text font-family="monospace" font-size="17" font-weight="normal" x="229" y="142">e</text><text font-family="monospace" font-size="17" font-weight="normal" x="237" y="142">d</text><text font-family="monospace" font-size="17" font-weight="normal" x="245" y="142">g</text><text font-family="monospace" font-size="17" font-weight="normal" x="253" y="142">e</text><text font-family="monospace" font-size="17" font-weight="normal" x="261" y="142">m</text><text font-family="monospace" font-size="17" font-weight="normal" x="269" y="142">e</text><text font-family="monospace" font-size="17" font-weight="normal" x="277" y="142">n</text><text font-family="monospace" font-size="17" font-weight="normal" x="285" y="142">t</text><text font-family="monospace" font-size="17" font-weight="normal" x="293" y="142"> </text><text font-family="monospace" font-size="17" font-weight="normal" x="301" y="142">N</text><text font-family="monospace" font-size="17" font-weight="normal" x="309" y="142">u</text><text font-family="monospace" font-size="17" font-weight="normal" x="317" y="142">m</text><text font-family="monospace" font-size="17" font-weight="normal" x="325" y="142">b</text><text font-family="monospace" font-size="17" font-weight="normal" x="333" y="142">e</text><text font-family="monospace" font-size="17" font-weight="normal" x="341" y="142">r</text><text font-family="monospace" font-size="17" font-weight="normal" x="17" y="204"> </text><text font-family="monospace" font-size="17" font-weight="normal" x="25" y="204">D</text><text font-family="monospace" font-size="17" font-weight="normal" x="33" y="204">a</text><text font-family="monospace" font-size="17" font-weight="normal" x="41" y="204">t</text><text font-family="monospace" font-size="17" font-weight="normal" x="49" y="204">a</text><text font-family="monospace" font-size="17" font-weight="normal" x="13" y="221">O</text><text font-family="monospace" font-size="17" font-weight="normal" x="21" y="221">f</text><text font-family="monospace" font-size="17" font-weight="normal" x="29" y="221">f</text><text font-family="monospace" font-size="17" font-weight="normal" x="37" y="221">s</text><text font-family="monospace" font-size="17" font-weight="normal" x="45" y="221">e</text><text font-family="monospace" font-size="17" font-weight="normal" x="53" y="221">t</text><line fill="none" stroke="black" stroke-width="1" x1="72" x2="72" y1="156" y2="257.0" /><text font-family="monospace" font-size="17" font-weight="normal" x="81" y="212">R</text><text font-family="monospace" font-size="17" font-weight="normal" x="89" y="212">s</text><text font-family="monospace" font-size="17" font-weight="normal" x="97" y="212">r</text><text font-family="monospace" font-size="17" font-weight="normal" x="105" y="212">v</text><text font-family="monospace" font-size="17" font-weight="normal" x="113" y="212">d</text><line fill="none" stroke="black" stroke-width="1" x1="136" x2="136" y1="156" y2="257.0" /><text font-family="monospace" font-size="17" font-weight="normal" x="137" y="195">C</text><text font-family="monospace" font-size="17" font-weight="normal" x="137" y="212">W</text><text font-family="monospace" font-size="17" font-weight="normal" x="137" y="229">R</text><line fill="none" stroke="black" stroke-width="1" x1="152" x2="152" y1="156" y2="257.0" /><text font-family="monospace" font-size="17" font-weight="normal" x="153" y="195">E</text><text font-family="monospace" font-size="17" font-weight="normal" x="153" y="212">C</text><text font-family="monospace" font-size="17" font-weight="normal" x="153" y="229">E</text><line fill="none" stroke="black" stroke-width="1" x1="168" x2="168" y1="156" y2="257.0" /><text font-family="monospace" font-size="17" font-weight="normal" x="169" y="195">U</text><text font-family="monospace" font-size="17" font-weight="normal" x="169" y="212">R</text><text font-family="monospace" font-size="17" font-weight="normal" x="169" y="229">G</text><line fill="none" stroke="black" stroke-width="1" x1="184" x2="184" y1="156" y2="257.0" /><text font-family="monospace" font-size="17" font-weight="normal" x="185" y="195">A</text><text font-family="monospace" font-size="17" font-weight="normal" x="185" y="212">C</text><text font-family="monospace" font-size="17" font-weight="normal" x="185" y="229">K</text><line fill="none" stroke="black" stroke-width="1" x1="200" x2="200" y1="156" y2="257.0" /><text font-family="monospace" font-size="17" font-weight="normal" x="201" y="195">P</text><text font-family="monospace" font-size="17" font-weight="normal" x="201" y="212">S</text><text font-family="monospace" font-size="17" font-weight="normal" x="201" y="229">H</text><line fill="none" stroke="black" stroke-width="1" x1="216" x2="216" y1="156" y2="257.0" /><text font-family="monospace" font-size="17" font-weight="normal" x="217" y="195">R</text><text font-family="monospace" font-size="17" font-weight="normal" x="217" y="212">S</text><text font-family="monospace" font-size="17" font-weight="normal" x="217" y="229">T</text><line fill="none" stroke="black" stroke-width="1" x1="232" x2="232" y1="156" y2="257.0" /><text font-family="monospace" font-size="17" font-weight="normal" x="233" y="195">S</text><text font-family="monospace" font-size="17" font-weight="normal" x="233" y="212">Y</text><text font-family="monospace" font-size="17" font-weight="normal" x="233" y="229">N</text><line fill="none" stroke="black" stroke-width="1" x1="248" x2="248" y1="156" y2="257.0" /><text font-family="monospace" font-size="17" font-weight="normal" x="249" y="195">F</text><text font-family="monospace" font-size="17" font-weight="normal" x="249" y="212">I</text><text font-family="monospace" font-size="17" font-weight="normal" x="249" y="229">N</text><line fill="none" stroke="black" stroke-width="1" x1="264" x2="264" y1="156" y2="257.0" /><text font-family="monospace" font-size="17" font-weight="normal" x="365" y="212">W</text><text font-family="monospace" font-size="17" font-weight="normal" x="373" y="212">i</text><text font-family="monospace" font-size="17" font-weight="normal" x="381" y="212">n</text><text font-family="monospace" font-size="17" font-weight="normal" x="389" y="212">d</text><text font-family="monospace" font-size="17" font-weight="normal" x="397" y="212">o</text><text font-family="monospace" font-size="17" font-weight="normal" x="405" y="212">w</text><text font-family="monospace" font-size="17" font-weight="normal" x="101" y="248">C</text><text font-family="monospace" font-size="17" font-weight="normal" x="109" y="248">h</text><text font-family="monospace" font-size="17" font-weight="normal" x="117" y="248">e</text><text font-family="monospace" font-size="17" font-weight="normal" x="125" y="248">c</text><text font-family="monospace" font-size="17" font-weight="normal" x="133" y="248">k</text><text font-family="monospace" font-size="17" font-weight="normal" x="141" y="248">s</text><text font-family="monospace" font-size="17" font-weight="normal" x="149" y="248">u</text><text font-family="monospace" font-size="17" font-weight="normal" x="157" y="248">m</text><line fill="none" stroke="black" stroke-width="1" x1="264" x2="264" y1="226" y2="259.0" /><text font-family="monospace" font-size="17" font-weight="normal" x="333" y="248">U</text><text font-family="monospace" font-size="17" font-weight="normal" x="341" y="248">r</text><text font-family="monospace" font-size="17" font-weight="normal" x="349" y="248">g</text><text font-family="monospace" font-size="17" font-weight="normal" x="357" y="248">e</text><text font-family="monospace" font-size="17" font-weight="normal" x="365" y="248">n</text><text font-family="monospace" font-size="17" font-weight="normal" x="373" y="248">t</text><text font-family="monospace" font-size="17" font-weight="normal" x="381" y="248"> </text><text font-family="monospace" font-size="17" font-weight="normal" x="389" y="248">P</text><text font-family="monospace" font-size="17" font-weight="normal" x="397" y="248">o</text><text font-family="monospace" font-size="17" font-weight="normal" x="405" y="248">i</text><text font-family="monospace" font-size="17" font-weight="normal" x="413" y="248">n</text><text font-family="monospace" font-size="17" font-weight="normal" x="421" y="248">t</text><text font-family="monospace" font-size="17" font-weight="normal" x="429" y="248">e</text><text font-family="monospace" font-size="17" font-weight="normal" x="437" y="248">r</text><text font-family="monospace" font-size="17" font-weight="normal" x="225" y="284">[</text><text font-family="monospace" font-size="17" font-weight="normal" x="233" y="284">O</text><text font-family="monospace" font-size="17" font-weight="normal" x="241" y="284">p</text><text font-family="monospace" font-size="17" font-weight="normal" x="249" y="284">t</text><text font-family="monospace" font-size="17" font-weight="normal" x="257" y="284">i</text><text font-family="monospace" font-size="17" font-weight="normal" x="265" y="284">o</text><text font-family="monospace" font-size="17" font-weight="normal" x="273" y="284">n</text><text font-family="monospace" font-size="17" font-weight="normal" x="281" y="284">s</text><text font-family="monospace" font-size="17" font-weight="normal" x="289" y="284">]</text><text font-family="monospace" font-size="17" font-weight="normal" x="245" y="320">D</text><text font-family="monospace" font-size="17" font-weight="normal" x="253" y="320">a</text><text font-family="monospace" font-size="17" font-weight="normal" x="261" y="320">t</text><text font-family="monospace" font-size="17" font-weight="normal" x="269" y="320">a</text></svg>