<?xml version="1.0" encoding="utf-8" ?>
<svg baseProfile="tiny" font-family="monospace" font-size="14" font-weight="normal" height="670.0" version="1.2" viewBox="0,0,530,670.0" width="530" xmlns="http://www.w3.org/2000/svg" xmlns:ev="http://www.w3.org/2001/xml-events" xmlns:xlink="http://www.w3.org/1999/xlink"><defs /><text stroke="black" x="130" y="637">Figure</text><text stroke="black" x="186" y="637">6:</text><text stroke="black" x="210" y="637">NSH</text><text stroke="black" x="242" y="637">Using</text><text stroke="black" x="290" y="637">SRv6</text><text stroke="black" x="330" y="637">Transport</text><text stroke="black" x="130" y="651.0"> </text><polyline fill="none" points="3,48 527,48" stroke="black" stroke-width="1" /><line stroke="black" stroke-width="2" x1="27.0" x2="27.0" y1="45" y2="48" /><line stroke="black" stroke-width="2" x1="43.0" x2="43.0" y1="45" y2="48" /><line stroke="black" stroke-width="2" x1="59.0" x2="59.0" y1="45" y2="48" /><line stroke="black" stroke-width="3" x1="75.0" x2="75.0" y1="45" y2="48" /><line stroke="black" stroke-width="2" x1="91.0" x2="91.0" y1="45" y2="48" /><line stroke="black" stroke-width="2" x1="107.0" x2="107.0" y1="45" y2="48" /><line stroke="black" stroke-width="2" x1="123.0" x2="123.0" y1="45" y2="48" /><line stroke="black" stroke-width="3" x1="139.0" x2="139.0" y1="45" y2="48" /><line stroke="black" stroke-width="2" x1="155.0" x2="155.0" y1="45" y2="48" /><line stroke="black" stroke-width="2" x1="171.0" x2="171.0" y1="45" y2="48" /><line stroke="black" stroke-width="2" x1="187.0" x2="187.0" y1="45" y2="48" /><line stroke="black" stroke-width="3" x1="203.0" x2="203.0" y1="45" y2="48" /><line stroke="black" stroke-width="2" x1="219.0" x2="219.0" y1="45" y2="48" /><line stroke="black" stroke-width="2" x1="235.0" x2="235.0" y1="45" y2="48" /><line stroke="black" stroke-width="2" x1="251.0" x2="251.0" y1="45" y2="48" /><line stroke="black" stroke-width="3" x1="267.0" x2="267.0" y1="45" y2="48" /><line stroke="black" stroke-width="2" x1="283.0" x2="283.0" y1="45" y2="48" /><line stroke="black" stroke-width="2" x1="299.0" x2="299.0" y1="45" y2="48" /><line stroke="black" stroke-width="2" x1="315.0" x2="315.0" y1="45" y2="48" /><line stroke="black" stroke-width="3" x1="331.0" x2="331.0" y1="45" y2="48" /><line stroke="black" stroke-width="2" x1="347.0" x2="347.0" y1="45" y2="48" /><line stroke="black" stroke-width="2" x1="363.0" x2="363.0" y1="45" y2="48" /><line stroke="black" stroke-width="2" x1="379.0" x2="379.0" y1="45" y2="48" /><line stroke="black" stroke-width="3" x1="395.0" x2="395.0" y1="45" y2="48" /><line stroke="black" stroke-width="2" x1="411.0" x2="411.0" y1="45" y2="48" /><line stroke="black" stroke-width="2" x1="427.0" x2="427.0" y1="45" y2="48" /><line stroke="black" stroke-width="2" x1="443.0" x2="443.0" y1="45" y2="48" /><line stroke="black" stroke-width="3" x1="459.0" x2="459.0" y1="45" y2="48" /><line stroke="black" stroke-width="2" x1="475.0" x2="475.0" y1="45" y2="48" /><line stroke="black" stroke-width="2" x1="491.0" x2="491.0" y1="45" y2="48" /><line stroke="black" stroke-width="2" x1="507.0" x2="507.0" y1="45" y2="48" /><polyline fill="none" points="3,48 3,84 527,84 527,48" stroke="black" stroke-width="1" /><line stroke="black" stroke-width="2" x1="27.0" x2="27.0" y1="81" y2="84" /><line stroke="black" stroke-width="2" x1="43.0" x2="43.0" y1="81" y2="84" /><line stroke="black" stroke-width="2" x1="59.0" x2="59.0" y1="81" y2="84" /><line stroke="black" stroke-width="3" x1="75.0" x2="75.0" y1="81" y2="84" /><line stroke="black" stroke-width="2" x1="91.0" x2="91.0" y1="81" y2="84" /><line stroke="black" stroke-width="2" x1="107.0" x2="107.0" y1="81" y2="84" /><line stroke="black" stroke-width="2" x1="123.0" x2="123.0" y1="81" y2="84" /><line stroke="black" stroke-width="3" x1="139.0" x2="139.0" y1="81" y2="84" /><line stroke="black" stroke-width="2" x1="155.0" x2="155.0" y1="81" y2="84" /><line stroke="black" stroke-width="2" x1="171.0" x2="171.0" y1="81" y2="84" /><line stroke="black" stroke-width="2" x1="187.0" x2="187.0" y1="81" y2="84" /><line stroke="black" stroke-width="3" x1="203.0" x2="203.0" y1="81" y2="84" /><line stroke="black" stroke-width="2" x1="219.0" x2="219.0" y1="81" y2="84" /><line stroke="black" stroke-width="2" x1="235.0" x2="235.0" y1="81" y2="84" /><line stroke="black" stroke-width="2" x1="251.0" x2="251.0" y1="81" y2="84" /><line stroke="black" stroke-width="3" x1="267.0" x2="267.0" y1="81" y2="84" /><line stroke="black" stroke-width="2" x1="283.0" x2="283.0" y1="81" y2="84" /><line stroke="black" stroke-width="2" x1="299.0" x2="299.0" y1="81" y2="84" /><line stroke="black" stroke-width="2" x1="315.0" x2="315.0" y1="81" y2="84" /><line stroke="black" stroke-width="3" x1="331.0" x2="331.0" y1="81" y2="84" /><line stroke="black" stroke-width="2" x1="347.0" x2="347.0" y1="81" y2="84" /><line stroke="black" stroke-width="2" x1="363.0" x2="363.0" y1="81" y2="84" /><line stroke="black" stroke-width="2" x1="379.0" x2="379.0" y1="81" y2="84" /><line stroke="black" stroke-width="3" x1="395.0" x2="395.0" y1="81" y2="84" /><line stroke="black" stroke-width="2" x1="411.0" x2="411.0" y1="81" y2="84" /><line stroke="black" stroke-width="2" x1="427.0" x2="427.0" y1="81" y2="84" /><line stroke="black" stroke-width="2" x1="443.0" x2="443.0" y1="81" y2="84" /><line stroke="black" stroke-width="3" x1="459.0" x2="459.0" y1="81" y2="84" /><line stroke="black" stroke-width="2" x1="475.0" x2="475.0" y1="81" y2="84" /><line stroke="black" stroke-width="2" x1="491.0" x2="491.0" y1="81" y2="84" /><line stroke="black" stroke-width="2" x1="507.0" x2="507.0" y1="81" y2="84" /><polyline fill="none" points="3,84 3,120 527,120 527,84" stroke="black" stroke-width="1" /><line stroke="black" stroke-width="2" x1="27.0" x2="27.0" y1="117" y2="120" /><line stroke="black" stroke-width="2" x1="43.0" x2="43.0" y1="117" y2="120" /><line stroke="black" stroke-width="2" x1="59.0" x2="59.0" y1="117" y2="120" /><line stroke="black" stroke-width="3" x1="75.0" x2="75.0" y1="117" y2="120" /><line stroke="black" stroke-width="2" x1="91.0" x2="91.0" y1="117" y2="120" /><line stroke="black" stroke-width="2" x1="107.0" x2="107.0" y1="117" y2="120" /><line stroke="black" stroke-width="2" x1="123.0" x2="123.0" y1="117" y2="120" /><line stroke="black" stroke-width="3" x1="139.0" x2="139.0" y1="117" y2="120" /><line stroke="black" stroke-width="2" x1="155.0" x2="155.0" y1="117" y2="120" /><line stroke="black" stroke-width="2" x1="171.0" x2="171.0" y1="117" y2="120" /><line stroke="black" stroke-width="2" x1="187.0" x2="187.0" y1="117" y2="120" /><line stroke="black" stroke-width="3" x1="203.0" x2="203.0" y1="117" y2="120" /><line stroke="black" stroke-width="2" x1="219.0" x2="219.0" y1="117" y2="120" /><line stroke="black" stroke-width="2" x1="235.0" x2="235.0" y1="117" y2="120" /><line stroke="black" stroke-width="2" x1="251.0" x2="251.0" y1="117" y2="120" /><line stroke="black" stroke-width="3" x1="267.0" x2="267.0" y1="117" y2="120" /><line stroke="black" stroke-width="2" x1="283.0" x2="283.0" y1="117" y2="120" /><line stroke="black" stroke-width="2" x1="299.0" x2="299.0" y1="117" y2="120" /><line stroke="black" stroke-width="2" x1="315.0" x2="315.0" y1="117" y2="120" /><line stroke="black" stroke-width="3" x1="331.0" x2="331.0" y1="117" y2="120" /><line stroke="black" stroke-width="2" x1="347.0" x2="347.0" y1="117" y2="120" /><line stroke="black" stroke-width="2" x1="363.0" x2="363.0" y1="117" y2="120" /><line stroke="black" stroke-width="2" x1="379.0" x2="379.0" y1="117" y2="120" /><line stroke="black" stroke-width="3" x1="395.0" x2="395.0" y1="117" y2="120" /><line stroke="black" stroke-width="2" x1="411.0" x2="411.0" y1="117" y2="120" /><line stroke="black" stroke-width="2" x1="427.0" x2="427.0" y1="117" y2="120" /><line stroke="black" stroke-width="2" x1="443.0" x2="443.0" y1="117" y2="120" /><line stroke="black" stroke-width="3" x1="459.0" x2="459.0" y1="117" y2="120" /><line stroke="black" stroke-width="2" x1="475.0" x2="475.0" y1="117" y2="120" /><line stroke="black" stroke-width="2" x1="491.0" x2="491.0" y1="117" y2="120" /><line stroke="black" stroke-width="2" x1="507.0" x2="507.0" y1="117" y2="120" /><polyline fill="none" points="3,120 3,207 527,207 527,120" stroke="black" stroke-width="1" /><line stroke="black" stroke-width="2" x1="27.0" x2="27.0" y1="204" y2="207" /><line stroke="black" stroke-width="2" x1="43.0" x2="43.0" y1="204" y2="207" /><line stroke="black" stroke-width="2" x1="59.0" x2="59.0" y1="204" y2="207" /><line stroke="black" stroke-width="3" x1="75.0" x2="75.0" y1="204" y2="207" /><line stroke="black" stroke-width="2" x1="91.0" x2="91.0" y1="204" y2="207" /><line stroke="black" stroke-width="2" x1="107.0" x2="107.0" y1="204" y2="207" /><line stroke="black" stroke-width="2" x1="123.0" x2="123.0" y1="204" y2="207" /><line stroke="black" stroke-width="3" x1="139.0" x2="139.0" y1="204" y2="207" /><line stroke="black" stroke-width="2" x1="155.0" x2="155.0" y1="204" y2="207" /><line stroke="black" stroke-width="2" x1="171.0" x2="171.0" y1="204" y2="207" /><line stroke="black" stroke-width="2" x1="187.0" x2="187.0" y1="204" y2="207" /><line stroke="black" stroke-width="3" x1="203.0" x2="203.0" y1="204" y2="207" /><line stroke="black" stroke-width="2" x1="219.0" x2="219.0" y1="204" y2="207" /><line stroke="black" stroke-width="2" x1="235.0" x2="235.0" y1="204" y2="207" /><line stroke="black" stroke-width="2" x1="251.0" x2="251.0" y1="204" y2="207" /><line stroke="black" stroke-width="3" x1="267.0" x2="267.0" y1="204" y2="207" /><line stroke="black" stroke-width="2" x1="283.0" x2="283.0" y1="204" y2="207" /><line stroke="black" stroke-width="2" x1="299.0" x2="299.0" y1="204" y2="207" /><line stroke="black" stroke-width="2" x1="315.0" x2="315.0" y1="204" y2="207" /><line stroke="black" stroke-width="3" x1="331.0" x2="331.0" y1="204" y2="207" /><line stroke="black" stroke-width="2" x1="347.0" x2="347.0" y1="204" y2="207" /><line stroke="black" stroke-width="2" x1="363.0" x2="363.0" y1="204" y2="207" /><line stroke="black" stroke-width="2" x1="379.0" x2="379.0" y1="204" y2="207" /><line stroke="black" stroke-width="3" x1="395.0" x2="395.0" y1="204" y2="207" /><line stroke="black" stroke-width="2" x1="411.0" x2="411.0" y1="204" y2="207" /><line stroke="black" stroke-width="2" x1="427.0" x2="427.0" y1="204" y2="207" /><line stroke="black" stroke-width="2" x1="443.0" x2="443.0" y1="204" y2="207" /><line stroke="black" stroke-width="3" x1="459.0" x2="459.0" y1="204" y2="207" /><line stroke="black" stroke-width="2" x1="475.0" x2="475.0" y1="204" y2="207" /><line stroke="black" stroke-width="2" x1="491.0" x2="491.0" y1="204" y2="207" /><line stroke="black" stroke-width="2" x1="507.0" x2="507.0" y1="204" y2="207" /><polyline fill="none" points="3,207 3,242" stroke="black" stroke-width="1" /><polyline fill="none" points="3,293 3,311 527,311 527,276" stroke="black" stroke-width="1" /><polyline fill="none" points="527,207 527,225" stroke="black" stroke-width="1" /><line stroke="black" stroke-width="2" x1="27.0" x2="27.0" y1="308" y2="311" /><line stroke="black" stroke-width="2" x1="43.0" x2="43.0" y1="308" y2="311" /><line stroke="black" stroke-width="2" x1="59.0" x2="59.0" y1="308" y2="311" /><line stroke="black" stroke-width="3" x1="75.0" x2="75.0" y1="308" y2="311" /><line stroke="black" stroke-width="2" x1="91.0" x2="91.0" y1="308" y2="311" /><line stroke="black" stroke-width="2" x1="107.0" x2="107.0" y1="308" y2="311" /><line stroke="black" stroke-width="2" x1="123.0" x2="123.0" y1="308" y2="311" /><line stroke="black" stroke-width="3" x1="139.0" x2="139.0" y1="308" y2="311" /><line stroke="black" stroke-width="2" x1="155.0" x2="155.0" y1="308" y2="311" /><line stroke="black" stroke-width="2" x1="171.0" x2="171.0" y1="308" y2="311" /><line stroke="black" stroke-width="2" x1="187.0" x2="187.0" y1="308" y2="311" /><line stroke="black" stroke-width="3" x1="203.0" x2="203.0" y1="308" y2="311" /><line stroke="black" stroke-width="2" x1="219.0" x2="219.0" y1="308" y2="311" /><line stroke="black" stroke-width="2" x1="235.0" x2="235.0" y1="308" y2="311" /><line stroke="black" stroke-width="2" x1="251.0" x2="251.0" y1="308" y2="311" /><line stroke="black" stroke-width="3" x1="267.0" x2="267.0" y1="308" y2="311" /><line stroke="black" stroke-width="2" x1="283.0" x2="283.0" y1="308" y2="311" /><line stroke="black" stroke-width="2" x1="299.0" x2="299.0" y1="308" y2="311" /><line stroke="black" stroke-width="2" x1="315.0" x2="315.0" y1="308" y2="311" /><line stroke="black" stroke-width="3" x1="331.0" x2="331.0" y1="308" y2="311" /><line stroke="black" stroke-width="2" x1="347.0" x2="347.0" y1="308" y2="311" /><line stroke="black" stroke-width="2" x1="363.0" x2="363.0" y1="308" y2="311" /><line stroke="black" stroke-width="2" x1="379.0" x2="379.0" y1="308" y2="311" /><line stroke="black" stroke-width="3" x1="395.0" x2="395.0" y1="308" y2="311" /><line stroke="black" stroke-width="2" x1="411.0" x2="411.0" y1="308" y2="311" /><line stroke="black" stroke-width="2" x1="427.0" x2="427.0" y1="308" y2="311" /><line stroke="black" stroke-width="2" x1="443.0" x2="443.0" y1="308" y2="311" /><line stroke="black" stroke-width="3" x1="459.0" x2="459.0" y1="308" y2="311" /><line stroke="black" stroke-width="2" x1="475.0" x2="475.0" y1="308" y2="311" /><line stroke="black" stroke-width="2" x1="491.0" x2="491.0" y1="308" y2="311" /><line stroke="black" stroke-width="2" x1="507.0" x2="507.0" y1="308" y2="311" /><polyline fill="none" points="3,311 3,398 527,398 527,311" stroke="black" stroke-width="1" /><line stroke="black" stroke-width="2" x1="27.0" x2="27.0" y1="395" y2="398" /><line stroke="black" stroke-width="2" x1="43.0" x2="43.0" y1="395" y2="398" /><line stroke="black" stroke-width="2" x1="59.0" x2="59.0" y1="395" y2="398" /><line stroke="black" stroke-width="3" x1="75.0" x2="75.0" y1="395" y2="398" /><line stroke="black" stroke-width="2" x1="91.0" x2="91.0" y1="395" y2="398" /><line stroke="black" stroke-width="2" x1="107.0" x2="107.0" y1="395" y2="398" /><line stroke="black" stroke-width="2" x1="123.0" x2="123.0" y1="395" y2="398" /><line stroke="black" stroke-width="3" x1="139.0" x2="139.0" y1="395" y2="398" /><line stroke="black" stroke-width="2" x1="155.0" x2="155.0" y1="395" y2="398" /><line stroke="black" stroke-width="2" x1="171.0" x2="171.0" y1="395" y2="398" /><line stroke="black" stroke-width="2" x1="187.0" x2="187.0" y1="395" y2="398" /><line stroke="black" stroke-width="3" x1="203.0" x2="203.0" y1="395" y2="398" /><line stroke="black" stroke-width="2" x1="219.0" x2="219.0" y1="395" y2="398" /><line stroke="black" stroke-width="2" x1="235.0" x2="235.0" y1="395" y2="398" /><line stroke="black" stroke-width="2" x1="251.0" x2="251.0" y1="395" y2="398" /><line stroke="black" stroke-width="3" x1="267.0" x2="267.0" y1="395" y2="398" /><line stroke="black" stroke-width="2" x1="283.0" x2="283.0" y1="395" y2="398" /><line stroke="black" stroke-width="2" x1="299.0" x2="299.0" y1="395" y2="398" /><line stroke="black" stroke-width="2" x1="315.0" x2="315.0" y1="395" y2="398" /><line stroke="black" stroke-width="3" x1="331.0" x2="331.0" y1="395" y2="398" /><line stroke="black" stroke-width="2" x1="347.0" x2="347.0" y1="395" y2="398" /><line stroke="black" stroke-width="2" x1="363.0" x2="363.0" y1="395" y2="398" /><line stroke="black" stroke-width="2" x1="379.0" x2="379.0" y1="395" y2="398" /><line stroke="black" stroke-width="3" x1="395.0" x2="395.0" y1="395" y2="398" /><line stroke="black" stroke-width="2" x1="411.0" x2="411.0" y1="395" y2="398" /><line stroke="black" stroke-width="2" x1="427.0" x2="427.0" y1="395" y2="398" /><line stroke="black" stroke-width="2" x1="443.0" x2="443.0" y1="395" y2="398" /><line stroke="black" stroke-width="3" x1="459.0" x2="459.0" y1="395" y2="398" /><line stroke="black" stroke-width="2" x1="475.0" x2="475.0" y1="395" y2="398" /><line stroke="black" stroke-width="2" x1="491.0" x2="491.0" y1="395" y2="398" /><line stroke="black" stroke-width="2" x1="507.0" x2="507.0" y1="395" y2="398" /><polyline fill="none" points="3,398 3,419" stroke="black" stroke-width="1" /><polyline fill="none" points="3,458 3,468 527,468 527,447" stroke="black" stroke-width="1" /><polyline fill="none" points="527,398 527,408" stroke="black" stroke-width="1" /><line stroke="black" stroke-width="2" x1="27.0" x2="27.0" y1="465" y2="468" /><line stroke="black" stroke-width="2" x1="43.0" x2="43.0" y1="465" y2="468" /><line stroke="black" stroke-width="2" x1="59.0" x2="59.0" y1="465" y2="468" /><line stroke="black" stroke-width="3" x1="75.0" x2="75.0" y1="465" y2="468" /><line stroke="black" stroke-width="2" x1="91.0" x2="91.0" y1="465" y2="468" /><line stroke="black" stroke-width="2" x1="107.0" x2="107.0" y1="465" y2="468" /><line stroke="black" stroke-width="2" x1="123.0" x2="123.0" y1="465" y2="468" /><line stroke="black" stroke-width="3" x1="139.0" x2="139.0" y1="465" y2="468" /><line stroke="black" stroke-width="2" x1="155.0" x2="155.0" y1="465" y2="468" /><line stroke="black" stroke-width="2" x1="171.0" x2="171.0" y1="465" y2="468" /><line stroke="black" stroke-width="2" x1="187.0" x2="187.0" y1="465" y2="468" /><line stroke="black" stroke-width="3" x1="203.0" x2="203.0" y1="465" y2="468" /><line stroke="black" stroke-width="2" x1="219.0" x2="219.0" y1="465" y2="468" /><line stroke="black" stroke-width="2" x1="235.0" x2="235.0" y1="465" y2="468" /><line stroke="black" stroke-width="2" x1="251.0" x2="251.0" y1="465" y2="468" /><line stroke="black" stroke-width="3" x1="267.0" x2="267.0" y1="465" y2="468" /><line stroke="black" stroke-width="2" x1="283.0" x2="283.0" y1="465" y2="468" /><line stroke="black" stroke-width="2" x1="299.0" x2="299.0" y1="465" y2="468" /><line stroke="black" stroke-width="2" x1="315.0" x2="315.0" y1="465" y2="468" /><line stroke="black" stroke-width="3" x1="331.0" x2="331.0" y1="465" y2="468" /><line stroke="black" stroke-width="2" x1="347.0" x2="347.0" y1="465" y2="468" /><line stroke="black" stroke-width="2" x1="363.0" x2="363.0" y1="465" y2="468" /><line stroke="black" stroke-width="2" x1="379.0" x2="379.0" y1="465" y2="468" /><line stroke="black" stroke-width="3" x1="395.0" x2="395.0" y1="465" y2="468" /><line stroke="black" stroke-width="2" x1="411.0" x2="411.0" y1="465" y2="468" /><line stroke="black" stroke-width="2" x1="427.0" x2="427.0" y1="465" y2="468" /><line stroke="black" stroke-width="2" x1="443.0" x2="443.0" y1="465" y2="468" /><line stroke="black" stroke-width="3" x1="459.0" x2="459.0" y1="465" y2="468" /><line stroke="black" stroke-width="2" x1="475.0" x2="475.0" y1="465" y2="468" /><line stroke="black" stroke-width="2" x1="491.0" x2="491.0" y1="465" y2="468" /><line stroke="black" stroke-width="2" x1="507.0" x2="507.0" y1="465" y2="468" /><polyline fill="none" points="3,468 3,504 527,504 527,468" stroke="black" stroke-width="1" /><line stroke="black" stroke-width="2" x1="27.0" x2="27.0" y1="501" y2="504" /><line stroke="black" stroke-width="2" x1="43.0" x2="43.0" y1="501" y2="504" /><line stroke="black" stroke-width="2" x1="59.0" x2="59.0" y1="501" y2="504" /><line stroke="black" stroke-width="3" x1="75.0" x2="75.0" y1="501" y2="504" /><line stroke="black" stroke-width="2" x1="91.0" x2="91.0" y1="501" y2="504" /><line stroke="black" stroke-width="2" x1="107.0" x2="107.0" y1="501" y2="504" /><line stroke="black" stroke-width="2" x1="123.0" x2="123.0" y1="501" y2="504" /><line stroke="black" stroke-width="3" x1="139.0" x2="139.0" y1="501" y2="504" /><line stroke="black" stroke-width="2" x1="155.0" x2="155.0" y1="501" y2="504" /><line stroke="black" stroke-width="2" x1="171.0" x2="171.0" y1="501" y2="504" /><line stroke="black" stroke-width="2" x1="187.0" x2="187.0" y1="501" y2="504" /><line stroke="black" stroke-width="3" x1="203.0" x2="203.0" y1="501" y2="504" /><line stroke="black" stroke-width="2" x1="219.0" x2="219.0" y1="501" y2="504" /><line stroke="black" stroke-width="2" x1="235.0" x2="235.0" y1="501" y2="504" /><line stroke="black" stroke-width="2" x1="251.0" x2="251.0" y1="501" y2="504" /><line stroke="black" stroke-width="3" x1="267.0" x2="267.0" y1="501" y2="504" /><line stroke="black" stroke-width="2" x1="283.0" x2="283.0" y1="501" y2="504" /><line stroke="black" stroke-width="2" x1="299.0" x2="299.0" y1="501" y2="504" /><line stroke="black" stroke-width="2" x1="315.0" x2="315.0" y1="501" y2="504" /><line stroke="black" stroke-width="3" x1="331.0" x2="331.0" y1="501" y2="504" /><line stroke="black" stroke-width="2" x1="347.0" x2="347.0" y1="501" y2="504" /><line stroke="black" stroke-width="2" x1="363.0" x2="363.0" y1="501" y2="504" /><line stroke="black" stroke-width="2" x1="379.0" x2="379.0" y1="501" y2="504" /><line stroke="black" stroke-width="3" x1="395.0" x2="395.0" y1="501" y2="504" /><line stroke="black" stroke-width="2" x1="411.0" x2="411.0" y1="501" y2="504" /><line stroke="black" stroke-width="2" x1="427.0" x2="427.0" y1="501" y2="504" /><line stroke="black" stroke-width="2" x1="443.0" x2="443.0" y1="501" y2="504" /><line stroke="black" stroke-width="3" x1="459.0" x2="459.0" y1="501" y2="504" /><line stroke="black" stroke-width="2" x1="475.0" x2="475.0" y1="501" y2="504" /><line stroke="black" stroke-width="2" x1="491.0" x2="491.0" y1="501" y2="504" /><line stroke="black" stroke-width="2" x1="507.0" x2="507.0" y1="501" y2="504" /><polyline fill="none" points="3,504 3,540 527,540 527,504" stroke="black" stroke-width="1" /><line stroke="black" stroke-width="2" x1="27.0" x2="27.0" y1="537" y2="540" /><line stroke="black" stroke-width="2" x1="43.0" x2="43.0" y1="537" y2="540" /><line stroke="black" stroke-width="2" x1="59.0" x2="59.0" y1="537" y2="540" /><line stroke="black" stroke-width="3" x1="75.0" x2="75.0" y1="537" y2="540" /><line stroke="black" stroke-width="2" x1="91.0" x2="91.0" y1="537" y2="540" /><line stroke="black" stroke-width="2" x1="107.0" x2="107.0" y1="537" y2="540" /><line stroke="black" stroke-width="2" x1="123.0" x2="123.0" y1="537" y2="540" /><line stroke="black" stroke-width="3" x1="139.0" x2="139.0" y1="537" y2="540" /><line stroke="black" stroke-width="2" x1="155.0" x2="155.0" y1="537" y2="540" /><line stroke="black" stroke-width="2" x1="171.0" x2="171.0" y1="537" y2="540" /><line stroke="black" stroke-width="2" x1="187.0" x2="187.0" y1="537" y2="540" /><line stroke="black" stroke-width="3" x1="203.0" x2="203.0" y1="537" y2="540" /><line stroke="black" stroke-width="2" x1="219.0" x2="219.0" y1="537" y2="540" /><line stroke="black" stroke-width="2" x1="235.0" x2="235.0" y1="537" y2="540" /><line stroke="black" stroke-width="2" x1="251.0" x2="251.0" y1="537" y2="540" /><line stroke="black" stroke-width="3" x1="267.0" x2="267.0" y1="537" y2="540" /><line stroke="black" stroke-width="2" x1="283.0" x2="283.0" y1="537" y2="540" /><line stroke="black" stroke-width="2" x1="299.0" x2="299.0" y1="537" y2="540" /><line stroke="black" stroke-width="2" x1="315.0" x2="315.0" y1="537" y2="540" /><line stroke="black" stroke-width="3" x1="331.0" x2="331.0" y1="537" y2="540" /><line stroke="black" stroke-width="2" x1="347.0" x2="347.0" y1="537" y2="540" /><line stroke="black" stroke-width="2" x1="363.0" x2="363.0" y1="537" y2="540" /><line stroke="black" stroke-width="2" x1="379.0" x2="379.0" y1="537" y2="540" /><line stroke="black" stroke-width="3" x1="395.0" x2="395.0" y1="537" y2="540" /><line stroke="black" stroke-width="2" x1="411.0" x2="411.0" y1="537" y2="540" /><line stroke="black" stroke-width="2" x1="427.0" x2="427.0" y1="537" y2="540" /><line stroke="black" stroke-width="2" x1="443.0" x2="443.0" y1="537" y2="540" /><line stroke="black" stroke-width="3" x1="459.0" x2="459.0" y1="537" y2="540" /><line stroke="black" stroke-width="2" x1="475.0" x2="475.0" y1="537" y2="540" /><line stroke="black" stroke-width="2" x1="491.0" x2="491.0" y1="537" y2="540" /><line stroke="black" stroke-width="2" x1="507.0" x2="507.0" y1="537" y2="540" /><polyline fill="none" points="3,540 3,561" stroke="black" stroke-width="1" /><polyline fill="none" points="3,600 3,610 527,610 527,589" stroke="black" stroke-width="1" /><polyline fill="none" points="527,540 527,550" stroke="black" stroke-width="1" /><line stroke="black" stroke-width="2" x1="27.0" x2="27.0" y1="607" y2="610" /><line stroke="black" stroke-width="2" x1="43.0" x2="43.0" y1="607" y2="610" /><line stroke="black" stroke-width="2" x1="59.0" x2="59.0" y1="607" y2="610" /><line stroke="black" stroke-width="3" x1="75.0" x2="75.0" y1="607" y2="610" /><line stroke="black" stroke-width="2" x1="91.0" x2="91.0" y1="607" y2="610" /><line stroke="black" stroke-width="2" x1="107.0" x2="107.0" y1="607" y2="610" /><line stroke="black" stroke-width="2" x1="123.0" x2="123.0" y1="607" y2="610" /><line stroke="black" stroke-width="3" x1="139.0" x2="139.0" y1="607" y2="610" /><line stroke="black" stroke-width="2" x1="155.0" x2="155.0" y1="607" y2="610" /><line stroke="black" stroke-width="2" x1="171.0" x2="171.0" y1="607" y2="610" /><line stroke="black" stroke-width="2" x1="187.0" x2="187.0" y1="607" y2="610" /><line stroke="black" stroke-width="3" x1="203.0" x2="203.0" y1="607" y2="610" /><line stroke="black" stroke-width="2" x1="219.0" x2="219.0" y1="607" y2="610" /><line stroke="black" stroke-width="2" x1="235.0" x2="235.0" y1="607" y2="610" /><line stroke="black" stroke-width="2" x1="251.0" x2="251.0" y1="607" y2="610" /><line stroke="black" stroke-width="3" x1="267.0" x2="267.0" y1="607" y2="610" /><line stroke="black" stroke-width="2" x1="283.0" x2="283.0" y1="607" y2="610" /><line stroke="black" stroke-width="2" x1="299.0" x2="299.0" y1="607" y2="610" /><line stroke="black" stroke-width="2" x1="315.0" x2="315.0" y1="607" y2="610" /><line stroke="black" stroke-width="3" x1="331.0" x2="331.0" y1="607" y2="610" /><line stroke="black" stroke-width="2" x1="347.0" x2="347.0" y1="607" y2="610" /><line stroke="black" stroke-width="2" x1="363.0" x2="363.0" y1="607" y2="610" /><line stroke="black" stroke-width="2" x1="379.0" x2="379.0" y1="607" y2="610" /><line stroke="black" stroke-width="3" x1="395.0" x2="395.0" y1="607" y2="610" /><line stroke="black" stroke-width="2" x1="411.0" x2="411.0" y1="607" y2="610" /><line stroke="black" stroke-width="2" x1="427.0" x2="427.0" y1="607" y2="610" /><line stroke="black" stroke-width="2" x1="443.0" x2="443.0" y1="607" y2="610" /><line stroke="black" stroke-width="3" x1="459.0" x2="459.0" y1="607" y2="610" /><line stroke="black" stroke-width="2" x1="475.0" x2="475.0" y1="607" y2="610" /><line stroke="black" stroke-width="2" x1="491.0" x2="491.0" y1="607" y2="610" /><line stroke="black" stroke-width="2" x1="507.0" x2="507.0" y1="607" y2="610" /><text stroke="black" x="14" y="24">0</text><text stroke="black" x="174" y="24">1</text><text stroke="black" x="334" y="24">2</text><text stroke="black" x="494" y="24">3</text><text stroke="black" x="14" y="38.0">0</text><text stroke="black" x="30" y="38.0">1</text><text stroke="black" x="46" y="38.0">2</text><text stroke="black" x="62" y="38.0">3</text><text stroke="black" x="78" y="38.0">4</text><text stroke="black" x="94" y="38.0">5</text><text stroke="black" x="110" y="38.0">6</text><text stroke="black" x="126" y="38.0">7</text><text stroke="black" x="142" y="38.0">8</text><text stroke="black" x="158" y="38.0">9</text><text stroke="black" x="174" y="38.0">0</text><text stroke="black" x="190" y="38.0">1</text><text stroke="black" x="206" y="38.0">2</text><text stroke="black" x="222" y="38.0">3</text><text stroke="black" x="238" y="38.0">4</text><text stroke="black" x="254" y="38.0">5</text><text stroke="black" x="270" y="38.0">6</text><text stroke="black" x="286" y="38.0">7</text><text stroke="black" x="302" y="38.0">8</text><text stroke="black" x="318" y="38.0">9</text><text stroke="black" x="334" y="38.0">0</text><text stroke="black" x="350" y="38.0">1</text><text stroke="black" x="366" y="38.0">2</text><text stroke="black" x="382" y="38.0">3</text><text stroke="black" x="398" y="38.0">4</text><text stroke="black" x="414" y="38.0">5</text><text stroke="black" x="430" y="38.0">6</text><text stroke="black" x="446" y="38.0">7</text><text stroke="black" x="462" y="38.0">8</text><text stroke="black" x="478" y="38.0">9</text><text stroke="black" x="494" y="38.0">0</text><text stroke="black" x="510" y="38.0">1</text><text stroke="black" x="30" y="68">Next Header</text><polyline fill="none" points="139,48 139,81" stroke="black" stroke-width="1" /><text stroke="black" x="158" y="68">Hdr Ext Len</text><polyline fill="none" points="267,48 267,81" stroke="black" stroke-width="1" /><text stroke="black" x="282" y="68">Routing Type</text><polyline fill="none" points="395,48 395,81" stroke="black" stroke-width="1" /><text stroke="black" x="406" y="68">Segments Left</text><text stroke="black" x="34" y="104">Last Entry</text><polyline fill="none" points="139,84 139,117" stroke="black" stroke-width="1" /><text stroke="black" x="182" y="104">Flags</text><polyline fill="none" points="267,84 267,117" stroke="black" stroke-width="1" /><text stroke="black" x="382" y="104">Tag</text><text stroke="black" x="114" y="166">Segment List[n] (128-bit IPv6 address)</text><text stroke="black" x="254" y="261">...</text><text stroke="black" x="114" y="356">Segment List[n] (128-bit IPv6 address)</text><text stroke="black" x="86" y="435">Optional</text><text stroke="black" x="158" y="435">Type</text><text stroke="black" x="198" y="435">Length</text><text stroke="black" x="254" y="435">Value</text><text stroke="black" x="302" y="435">objects</text><text stroke="black" x="366" y="435">(variable)</text><text stroke="black" x="14" y="488">Ver</text><polyline fill="none" points="43,468 43,501" stroke="black" stroke-width="1" /><text stroke="black" x="46" y="488">O</text><polyline fill="none" points="59,468 59,501" stroke="black" stroke-width="1" /><text stroke="black" x="62" y="488">U</text><polyline fill="none" points="75,468 75,501" stroke="black" stroke-width="1" /><text stroke="black" x="110" y="488">TTL</text><polyline fill="none" points="171,468 171,501" stroke="black" stroke-width="1" /><text stroke="black" x="194" y="488">Length</text><polyline fill="none" points="267,468 267,501" stroke="black" stroke-width="1" /><text stroke="black" x="270" y="488">U</text><polyline fill="none" points="283,468 283,501" stroke="black" stroke-width="1" /><text stroke="black" x="286" y="488">U</text><polyline fill="none" points="299,468 299,501" stroke="black" stroke-width="1" /><text stroke="black" x="302" y="488">U</text><polyline fill="none" points="315,468 315,501" stroke="black" stroke-width="1" /><text stroke="black" x="318" y="488">U</text><polyline fill="none" points="331,468 331,501" stroke="black" stroke-width="1" /><text stroke="black" x="334" y="488">MD Type</text><polyline fill="none" points="395,468 395,501" stroke="black" stroke-width="1" /><text stroke="black" x="406" y="488">Next Protocol</text><text stroke="black" x="110" y="524">Service Path Identifier</text><polyline fill="none" points="395,504 395,537" stroke="black" stroke-width="1" /><text stroke="black" x="406" y="524">Service Index</text><text stroke="black" x="110" y="577">Variable-Length Context Headers  (opt.)</text></svg>