<?xml version="1.0" encoding="utf-8" ?>
<svg baseProfile="tiny" height="266" version="1.2" viewBox="0,0,530,265" width="531" xmlns="http://www.w3.org/2000/svg" xmlns:ev="http://www.w3.org/2001/xml-events" xmlns:xlink="http://www.w3.org/1999/xlink"><defs /><polyline fill="none" points="3,48 527,48" stroke="brown" stroke-width="0.75" /><polyline fill="none" points="3,48 3,84 527,84 527,48" stroke="red" stroke-width="0.75" /><line fill="none" stroke="black" stroke-width="1" x1="27.0" x2="27.0" y1="80" y2="84" /><line fill="none" stroke="black" stroke-width="1" x1="43.0" x2="43.0" y1="80" y2="84" /><line fill="none" stroke="black" stroke-width="1" x1="59.0" x2="59.0" y1="80" y2="84" /><line fill="none" stroke="black" stroke-width="2" x1="75.0" x2="75.0" y1="80" y2="84" /><line fill="none" stroke="black" stroke-width="1" x1="91.0" x2="91.0" y1="80" y2="84" /><line fill="none" stroke="black" stroke-width="1" x1="107.0" x2="107.0" y1="80" y2="84" /><line fill="none" stroke="black" stroke-width="1" x1="123.0" x2="123.0" y1="80" y2="84" /><line fill="none" stroke="black" stroke-width="2" x1="139.0" x2="139.0" y1="80" y2="84" /><line fill="none" stroke="black" stroke-width="1" x1="155.0" x2="155.0" y1="80" y2="84" /><line fill="none" stroke="black" stroke-width="1" x1="171.0" x2="171.0" y1="80" y2="84" /><line fill="none" stroke="black" stroke-width="1" x1="187.0" x2="187.0" y1="80" y2="84" /><line fill="none" stroke="black" stroke-width="2" x1="203.0" x2="203.0" y1="80" y2="84" /><line fill="none" stroke="black" stroke-width="1" x1="219.0" x2="219.0" y1="80" y2="84" /><line fill="none" stroke="black" stroke-width="1" x1="235.0" x2="235.0" y1="80" y2="84" /><line fill="none" stroke="black" stroke-width="1" x1="251.0" x2="251.0" y1="80" y2="84" /><line fill="none" stroke="black" stroke-width="2" x1="267.0" x2="267.0" y1="80" y2="84" /><line fill="none" stroke="black" stroke-width="1" x1="283.0" x2="283.0" y1="80" y2="84" /><line fill="none" stroke="black" stroke-width="1" x1="299.0" x2="299.0" y1="80" y2="84" /><line fill="none" stroke="black" stroke-width="1" x1="315.0" x2="315.0" y1="80" y2="84" /><line fill="none" stroke="black" stroke-width="2" x1="331.0" x2="331.0" y1="80" y2="84" /><line fill="none" stroke="black" stroke-width="1" x1="347.0" x2="347.0" y1="80" y2="84" /><line fill="none" stroke="black" stroke-width="1" x1="363.0" x2="363.0" y1="80" y2="84" /><line fill="none" stroke="black" stroke-width="1" x1="379.0" x2="379.0" y1="80" y2="84" /><line fill="none" stroke="black" stroke-width="2" x1="395.0" x2="395.0" y1="80" y2="84" /><line fill="none" stroke="black" stroke-width="1" x1="411.0" x2="411.0" y1="80" y2="84" /><line fill="none" stroke="black" stroke-width="1" x1="427.0" x2="427.0" y1="80" y2="84" /><line fill="none" stroke="black" stroke-width="1" x1="443.0" x2="443.0" y1="80" y2="84" /><line fill="none" stroke="black" stroke-width="2" x1="459.0" x2="459.0" y1="80" y2="84" /><line fill="none" stroke="black" stroke-width="1" x1="475.0" x2="475.0" y1="80" y2="84" /><line fill="none" stroke="black" stroke-width="1" x1="491.0" x2="491.0" y1="80" y2="84" /><line fill="none" stroke="black" stroke-width="1" x1="507.0" x2="507.0" y1="80" y2="84" /><polyline fill="none" points="3,84 3,120 527,120 527,84" stroke="orange" stroke-width="0.75" /><line fill="none" stroke="black" stroke-width="1" x1="27.0" x2="27.0" y1="116" y2="120" /><line fill="none" stroke="black" stroke-width="1" x1="43.0" x2="43.0" y1="116" y2="120" /><line fill="none" stroke="black" stroke-width="1" x1="59.0" x2="59.0" y1="116" y2="120" /><line fill="none" stroke="black" stroke-width="2" x1="75.0" x2="75.0" y1="116" y2="120" /><line fill="none" stroke="black" stroke-width="1" x1="91.0" x2="91.0" y1="116" y2="120" /><line fill="none" stroke="black" stroke-width="1" x1="107.0" x2="107.0" y1="116" y2="120" /><line fill="none" stroke="black" stroke-width="1" x1="123.0" x2="123.0" y1="116" y2="120" /><line fill="none" stroke="black" stroke-width="2" x1="139.0" x2="139.0" y1="116" y2="120" /><line fill="none" stroke="black" stroke-width="1" x1="155.0" x2="155.0" y1="116" y2="120" /><line fill="none" stroke="black" stroke-width="1" x1="171.0" x2="171.0" y1="116" y2="120" /><line fill="none" stroke="black" stroke-width="1" x1="187.0" x2="187.0" y1="116" y2="120" /><line fill="none" stroke="black" stroke-width="2" x1="203.0" x2="203.0" y1="116" y2="120" /><line fill="none" stroke="black" stroke-width="1" x1="219.0" x2="219.0" y1="116" y2="120" /><line fill="none" stroke="black" stroke-width="1" x1="235.0" x2="235.0" y1="116" y2="120" /><line fill="none" stroke="black" stroke-width="1" x1="251.0" x2="251.0" y1="116" y2="120" /><line fill="none" stroke="black" stroke-width="2" x1="267.0" x2="267.0" y1="116" y2="120" /><line fill="none" stroke="black" stroke-width="1" x1="283.0" x2="283.0" y1="116" y2="120" /><line fill="none" stroke="black" stroke-width="1" x1="299.0" x2="299.0" y1="116" y2="120" /><line fill="none" stroke="black" stroke-width="1" x1="315.0" x2="315.0" y1="116" y2="120" /><line fill="none" stroke="black" stroke-width="2" x1="331.0" x2="331.0" y1="116" y2="120" /><line fill="none" stroke="black" stroke-width="1" x1="347.0" x2="347.0" y1="116" y2="120" /><line fill="none" stroke="black" stroke-width="1" x1="363.0" x2="363.0" y1="116" y2="120" /><line fill="none" stroke="black" stroke-width="1" x1="379.0" x2="379.0" y1="116" y2="120" /><line fill="none" stroke="black" stroke-width="2" x1="395.0" x2="395.0" y1="116" y2="120" /><line fill="none" stroke="black" stroke-width="1" x1="411.0" x2="411.0" y1="116" y2="120" /><line fill="none" stroke="black" stroke-width="1" x1="427.0" x2="427.0" y1="116" y2="120" /><line fill="none" stroke="black" stroke-width="1" x1="443.0" x2="443.0" y1="116" y2="120" /><line fill="none" stroke="black" stroke-width="2" x1="459.0" x2="459.0" y1="116" y2="120" /><line fill="none" stroke="black" stroke-width="1" x1="475.0" x2="475.0" y1="116" y2="120" /><line fill="none" stroke="black" stroke-width="1" x1="491.0" x2="491.0" y1="116" y2="120" /><line fill="none" stroke="black" stroke-width="1" x1="507.0" x2="507.0" y1="116" y2="120" /><polyline fill="none" points="3,120 3,156 527,156 527,120" stroke="yellow" stroke-width="0.75" /><line fill="none" stroke="black" stroke-width="1" x1="27.0" x2="27.0" y1="152" y2="156" /><line fill="none" stroke="black" stroke-width="1" x1="43.0" x2="43.0" y1="152" y2="156" /><line fill="none" stroke="black" stroke-width="1" x1="59.0" x2="59.0" y1="152" y2="156" /><line fill="none" stroke="black" stroke-width="2" x1="75.0" x2="75.0" y1="152" y2="156" /><line fill="none" stroke="black" stroke-width="1" x1="91.0" x2="91.0" y1="152" y2="156" /><line fill="none" stroke="black" stroke-width="1" x1="107.0" x2="107.0" y1="152" y2="156" /><line fill="none" stroke="black" stroke-width="1" x1="123.0" x2="123.0" y1="152" y2="156" /><line fill="none" stroke="black" stroke-width="2" x1="139.0" x2="139.0" y1="152" y2="156" /><line fill="none" stroke="black" stroke-width="1" x1="155.0" x2="155.0" y1="152" y2="156" /><line fill="none" stroke="black" stroke-width="1" x1="171.0" x2="171.0" y1="152" y2="156" /><line fill="none" stroke="black" stroke-width="1" x1="187.0" x2="187.0" y1="152" y2="156" /><line fill="none" stroke="black" stroke-width="2" x1="203.0" x2="203.0" y1="152" y2="156" /><line fill="none" stroke="black" stroke-width="1" x1="219.0" x2="219.0" y1="152" y2="156" /><line fill="none" stroke="black" stroke-width="1" x1="235.0" x2="235.0" y1="152" y2="156" /><line fill="none" stroke="black" stroke-width="1" x1="251.0" x2="251.0" y1="152" y2="156" /><line fill="none" stroke="black" stroke-width="2" x1="267.0" x2="267.0" y1="152" y2="156" /><line fill="none" stroke="black" stroke-width="1" x1="283.0" x2="283.0" y1="152" y2="156" /><line fill="none" stroke="black" stroke-width="1" x1="299.0" x2="299.0" y1="152" y2="156" /><line fill="none" stroke="black" stroke-width="1" x1="315.0" x2="315.0" y1="152" y2="156" /><line fill="none" stroke="black" stroke-width="2" x1="331.0" x2="331.0" y1="152" y2="156" /><line fill="none" stroke="black" stroke-width="1" x1="347.0" x2="347.0" y1="152" y2="156" /><line fill="none" stroke="black" stroke-width="1" x1="363.0" x2="363.0" y1="152" y2="156" /><line fill="none" stroke="black" stroke-width="1" x1="379.0" x2="379.0" y1="152" y2="156" /><line fill="none" stroke="black" stroke-width="2" x1="395.0" x2="395.0" y1="152" y2="156" /><line fill="none" stroke="black" stroke-width="1" x1="411.0" x2="411.0" y1="152" y2="156" /><line fill="none" stroke="black" stroke-width="1" x1="427.0" x2="427.0" y1="152" y2="156" /><line fill="none" stroke="black" stroke-width="1" x1="443.0" x2="443.0" y1="152" y2="156" /><line fill="none" stroke="black" stroke-width="2" x1="459.0" x2="459.0" y1="152" y2="156" /><line fill="none" stroke="black" stroke-width="1" x1="475.0" x2="475.0" y1="152" y2="156" /><line fill="none" stroke="black" stroke-width="1" x1="491.0" x2="491.0" y1="152" y2="156" /><line fill="none" stroke="black" stroke-width="1" x1="507.0" x2="507.0" y1="152" y2="156" /><polyline fill="none" points="3,156 3,226 527,226 527,156" stroke="green" stroke-width="0.75" /><line fill="none" stroke="black" stroke-width="1" x1="27.0" x2="27.0" y1="222" y2="226" /><line fill="none" stroke="black" stroke-width="1" x1="43.0" x2="43.0" y1="222" y2="226" /><line fill="none" stroke="black" stroke-width="1" x1="59.0" x2="59.0" y1="222" y2="226" /><line fill="none" stroke="black" stroke-width="2" x1="75.0" x2="75.0" y1="222" y2="226" /><line fill="none" stroke="black" stroke-width="1" x1="91.0" x2="91.0" y1="222" y2="226" /><line fill="none" stroke="black" stroke-width="1" x1="107.0" x2="107.0" y1="222" y2="226" /><line fill="none" stroke="black" stroke-width="1" x1="123.0" x2="123.0" y1="222" y2="226" /><line fill="none" stroke="black" stroke-width="2" x1="139.0" x2="139.0" y1="222" y2="226" /><line fill="none" stroke="black" stroke-width="1" x1="155.0" x2="155.0" y1="222" y2="226" /><line fill="none" stroke="black" stroke-width="1" x1="171.0" x2="171.0" y1="222" y2="226" /><line fill="none" stroke="black" stroke-width="1" x1="187.0" x2="187.0" y1="222" y2="226" /><line fill="none" stroke="black" stroke-width="2" x1="203.0" x2="203.0" y1="222" y2="226" /><line fill="none" stroke="black" stroke-width="1" x1="219.0" x2="219.0" y1="222" y2="226" /><line fill="none" stroke="black" stroke-width="1" x1="235.0" x2="235.0" y1="222" y2="226" /><line fill="none" stroke="black" stroke-width="1" x1="251.0" x2="251.0" y1="222" y2="226" /><line fill="none" stroke="black" stroke-width="2" x1="267.0" x2="267.0" y1="222" y2="226" /><line fill="none" stroke="black" stroke-width="1" x1="283.0" x2="283.0" y1="222" y2="226" /><line fill="none" stroke="black" stroke-width="1" x1="299.0" x2="299.0" y1="222" y2="226" /><line fill="none" stroke="black" stroke-width="1" x1="315.0" x2="315.0" y1="222" y2="226" /><line fill="none" stroke="black" stroke-width="2" x1="331.0" x2="331.0" y1="222" y2="226" /><line fill="none" stroke="black" stroke-width="1" x1="347.0" x2="347.0" y1="222" y2="226" /><line fill="none" stroke="black" stroke-width="1" x1="363.0" x2="363.0" y1="222" y2="226" /><line fill="none" stroke="black" stroke-width="1" x1="379.0" x2="379.0" y1="222" y2="226" /><line fill="none" stroke="black" stroke-width="2" x1="395.0" x2="395.0" y1="222" y2="226" /><line fill="none" stroke="black" stroke-width="1" x1="411.0" x2="411.0" y1="222" y2="226" /><line fill="none" stroke="black" stroke-width="1" x1="427.0" x2="427.0" y1="222" y2="226" /><line fill="none" stroke="black" stroke-width="1" x1="443.0" x2="443.0" y1="222" y2="226" /><line fill="none" stroke="black" stroke-width="2" x1="459.0" x2="459.0" y1="222" y2="226" /><line fill="none" stroke="black" stroke-width="1" x1="475.0" x2="475.0" y1="222" y2="226" /><line fill="none" stroke="black" stroke-width="1" x1="491.0" x2="491.0" y1="222" y2="226" /><line fill="none" stroke="black" stroke-width="1" x1="507.0" x2="507.0" y1="222" y2="226" /><polyline fill="none" points="3,226 3,262 527,262 527,226" stroke="blue" stroke-width="0.75" /><line fill="none" stroke="black" stroke-width="1" x1="27.0" x2="27.0" y1="258" y2="262" /><line fill="none" stroke="black" stroke-width="1" x1="43.0" x2="43.0" y1="258" y2="262" /><line fill="none" stroke="black" stroke-width="1" x1="59.0" x2="59.0" y1="258" y2="262" /><line fill="none" stroke="black" stroke-width="2" x1="75.0" x2="75.0" y1="258" y2="262" /><line fill="none" stroke="black" stroke-width="1" x1="91.0" x2="91.0" y1="258" y2="262" /><line fill="none" stroke="black" stroke-width="1" x1="107.0" x2="107.0" y1="258" y2="262" /><line fill="none" stroke="black" stroke-width="1" x1="123.0" x2="123.0" y1="258" y2="262" /><line fill="none" stroke="black" stroke-width="2" x1="139.0" x2="139.0" y1="258" y2="262" /><line fill="none" stroke="black" stroke-width="1" x1="155.0" x2="155.0" y1="258" y2="262" /><line fill="none" stroke="black" stroke-width="1" x1="171.0" x2="171.0" y1="258" y2="262" /><line fill="none" stroke="black" stroke-width="1" x1="187.0" x2="187.0" y1="258" y2="262" /><line fill="none" stroke="black" stroke-width="2" x1="203.0" x2="203.0" y1="258" y2="262" /><line fill="none" stroke="black" stroke-width="1" x1="219.0" x2="219.0" y1="258" y2="262" /><line fill="none" stroke="black" stroke-width="1" x1="235.0" x2="235.0" y1="258" y2="262" /><line fill="none" stroke="black" stroke-width="1" x1="251.0" x2="251.0" y1="258" y2="262" /><line fill="none" stroke="black" stroke-width="2" x1="267.0" x2="267.0" y1="258" y2="262" /><line fill="none" stroke="black" stroke-width="1" x1="283.0" x2="283.0" y1="258" y2="262" /><line fill="none" stroke="black" stroke-width="1" x1="299.0" x2="299.0" y1="258" y2="262" /><line fill="none" stroke="black" stroke-width="1" x1="315.0" x2="315.0" y1="258" y2="262" /><line fill="none" stroke="black" stroke-width="2" x1="331.0" x2="331.0" y1="258" y2="262" /><line fill="none" stroke="black" stroke-width="1" x1="347.0" x2="347.0" y1="258" y2="262" /><line fill="none" stroke="black" stroke-width="1" x1="363.0" x2="363.0" y1="258" y2="262" /><line fill="none" stroke="black" stroke-width="1" x1="379.0" x2="379.0" y1="258" y2="262" /><line fill="none" stroke="black" stroke-width="2" x1="395.0" x2="395.0" y1="258" y2="262" /><line fill="none" stroke="black" stroke-width="1" x1="411.0" x2="411.0" y1="258" y2="262" /><line fill="none" stroke="black" stroke-width="1" x1="427.0" x2="427.0" y1="258" y2="262" /><line fill="none" stroke="black" stroke-width="1" x1="443.0" x2="443.0" y1="258" y2="262" /><line fill="none" stroke="black" stroke-width="2" x1="459.0" x2="459.0" y1="258" y2="262" /><line fill="none" stroke="black" stroke-width="1" x1="475.0" x2="475.0" y1="258" y2="262" /><line fill="none" stroke="black" stroke-width="1" x1="491.0" x2="491.0" y1="258" y2="262" /><line fill="none" stroke="black" stroke-width="1" x1="507.0" x2="507.0" y1="258" y2="262" /><text font-family="monospace" font-size="17" font-weight="normal" x="15" y="24">0</text><text font-family="monospace" font-size="17" font-weight="normal" x="23" y="24"> </text><text font-family="monospace" font-size="17" font-weight="normal" x="31" y="24"> </text><text font-family="monospace" font-size="17" font-weight="normal" x="39" y="24"> </text><text font-family="monospace" font-size="17" font-weight="normal" x="47" y="24"> </text><text font-family="monospace" font-size="17" font-weight="normal" x="55" y="24"> </text><text font-family="monospace" font-size="17" font-weight="normal" x="63" y="24"> </text><text font-family="monospace" font-size="17" font-weight="normal" x="71" y="24"> </text><text font-family="monospace" font-size="17" font-weight="normal" x="79" y="24"> </text><text font-family="monospace" font-size="17" font-weight="normal" x="87" y="24"> </text><text font-family="monospace" font-size="17" font-weight="normal" x="95" y="24"> </text><text font-family="monospace" font-size="17" font-weight="normal" x="103" y="24"> </text><text font-family="monospace" font-size="17" font-weight="normal" x="111" y="24"> </text><text font-family="monospace" font-size="17" font-weight="normal" x="119" y="24"> </text><text font-family="monospace" font-size="17" font-weight="normal" x="127" y="24"> </text><text font-family="monospace" font-size="17" font-weight="normal" x="135" y="24"> </text><text font-family="monospace" font-size="17" font-weight="normal" x="143" y="24"> </text><text font-family="monospace" font-size="17" font-weight="normal" x="151" y="24"> </text><text font-family="monospace" font-size="17" font-weight="normal" x="159" y="24"> </text><text font-family="monospace" font-size="17" font-weight="normal" x="167" y="24"> </text><text font-family="monospace" font-size="17" font-weight="normal" x="175" y="24">1</text><text font-family="monospace" font-size="17" font-weight="normal" x="183" y="24"> </text><text font-family="monospace" font-size="17" font-weight="normal" x="191" y="24"> </text><text font-family="monospace" font-size="17" font-weight="normal" x="199" y="24"> </text><text font-family="monospace" font-size="17" font-weight="normal" x="207" y="24"> </text><text font-family="monospace" font-size="17" font-weight="normal" x="215" y="24"> </text><text font-family="monospace" font-size="17" font-weight="normal" x="223" y="24"> </text><text font-family="monospace" font-size="17" font-weight="normal" x="231" y="24"> </text><text font-family="monospace" font-size="17" font-weight="normal" x="239" y="24"> </text><text font-family="monospace" font-size="17" font-weight="normal" x="247" y="24"> </text><text font-family="monospace" font-size="17" font-weight="normal" x="255" y="24"> </text><text font-family="monospace" font-size="17" font-weight="normal" x="263" y="24"> </text><text font-family="monospace" font-size="17" font-weight="normal" x="271" y="24"> </text><text font-family="monospace" font-size="17" font-weight="normal" x="279" y="24"> </text><text font-family="monospace" font-size="17" font-weight="normal" x="287" y="24"> </text><text font-family="monospace" font-size="17" font-weight="normal" x="295" y="24"> </text><text font-family="monospace" font-size="17" font-weight="normal" x="303" y="24"> </text><text font-family="monospace" font-size="17" font-weight="normal" x="311" y="24"> </text><text font-family="monospace" font-size="17" font-weight="normal" x="319" y="24"> </text><text font-family="monospace" font-size="17" font-weight="normal" x="327" y="24"> </text><text font-family="monospace" font-size="17" font-weight="normal" x="335" y="24">2</text><text font-family="monospace" font-size="17" font-weight="normal" x="343" y="24"> </text><text font-family="monospace" font-size="17" font-weight="normal" x="351" y="24"> </text><text font-family="monospace" font-size="17" font-weight="normal" x="359" y="24"> </text><text font-family="monospace" font-size="17" font-weight="normal" x="367" y="24"> </text><text font-family="monospace" font-size="17" font-weight="normal" x="375" y="24"> </text><text font-family="monospace" font-size="17" font-weight="normal" x="383" y="24"> </text><text font-family="monospace" font-size="17" font-weight="normal" x="391" y="24"> </text><text font-family="monospace" font-size="17" font-weight="normal" x="399" y="24"> </text><text font-family="monospace" font-size="17" font-weight="normal" x="407" y="24"> </text><text font-family="monospace" font-size="17" font-weight="normal" x="415" y="24"> </text><text font-family="monospace" font-size="17" font-weight="normal" x="423" y="24"> </text><text font-family="monospace" font-size="17" font-weight="normal" x="431" y="24"> </text><text font-family="monospace" font-size="17" font-weight="normal" x="439" y="24"> </text><text font-family="monospace" font-size="17" font-weight="normal" x="447" y="24"> </text><text font-family="monospace" font-size="17" font-weight="normal" x="455" y="24"> </text><text font-family="monospace" font-size="17" font-weight="normal" x="463" y="24"> </text><text font-family="monospace" font-size="17" font-weight="normal" x="471" y="24"> </text><text font-family="monospace" font-size="17" font-weight="normal" x="479" y="24"> </text><text font-family="monospace" font-size="17" font-weight="normal" x="487" y="24"> </text><text font-family="monospace" font-size="17" font-weight="normal" x="495" y="24">3</text><text font-family="monospace" font-size="17" font-weight="normal" x="503" y="24"> </text><text font-family="monospace" font-size="17" font-weight="normal" x="511" y="24"> </text><text font-family="monospace" font-size="17" font-weight="normal" x="15" y="41">0</text><text font-family="monospace" font-size="17" font-weight="normal" x="23" y="41"> </text><text font-family="monospace" font-size="17" font-weight="normal" x="31" y="41">1</text><text font-family="monospace" font-size="17" font-weight="normal" x="39" y="41"> </text><text font-family="monospace" font-size="17" font-weight="normal" x="47" y="41">2</text><text font-family="monospace" font-size="17" font-weight="normal" x="55" y="41"> </text><text font-family="monospace" font-size="17" font-weight="normal" x="63" y="41">3</text><text font-family="monospace" font-size="17" font-weight="normal" x="71" y="41"> </text><text font-family="monospace" font-size="17" font-weight="normal" x="79" y="41">4</text><text font-family="monospace" font-size="17" font-weight="normal" x="87" y="41"> </text><text font-family="monospace" font-size="17" font-weight="normal" x="95" y="41">5</text><text font-family="monospace" font-size="17" font-weight="normal" x="103" y="41"> </text><text font-family="monospace" font-size="17" font-weight="normal" x="111" y="41">6</text><text font-family="monospace" font-size="17" font-weight="normal" x="119" y="41"> </text><text font-family="monospace" font-size="17" font-weight="normal" x="127" y="41">7</text><text font-family="monospace" font-size="17" font-weight="normal" x="135" y="41"> </text><text font-family="monospace" font-size="17" font-weight="normal" x="143" y="41">8</text><text font-family="monospace" font-size="17" font-weight="normal" x="151" y="41"> </text><text font-family="monospace" font-size="17" font-weight="normal" x="159" y="41">9</text><text font-family="monospace" font-size="17" font-weight="normal" x="167" y="41"> </text><text font-family="monospace" font-size="17" font-weight="normal" x="175" y="41">0</text><text font-family="monospace" font-size="17" font-weight="normal" x="183" y="41"> </text><text font-family="monospace" font-size="17" font-weight="normal" x="191" y="41">1</text><text font-family="monospace" font-size="17" font-weight="normal" x="199" y="41"> </text><text font-family="monospace" font-size="17" font-weight="normal" x="207" y="41">2</text><text font-family="monospace" font-size="17" font-weight="normal" x="215" y="41"> </text><text font-family="monospace" font-size="17" font-weight="normal" x="223" y="41">3</text><text font-family="monospace" font-size="17" font-weight="normal" x="231" y="41"> </text><text font-family="monospace" font-size="17" font-weight="normal" x="239" y="41">4</text><text font-family="monospace" font-size="17" font-weight="normal" x="247" y="41"> </text><text font-family="monospace" font-size="17" font-weight="normal" x="255" y="41">5</text><text font-family="monospace" font-size="17" font-weight="normal" x="263" y="41"> </text><text font-family="monospace" font-size="17" font-weight="normal" x="271" y="41">6</text><text font-family="monospace" font-size="17" font-weight="normal" x="279" y="41"> </text><text font-family="monospace" font-size="17" font-weight="normal" x="287" y="41">7</text><text font-family="monospace" font-size="17" font-weight="normal" x="295" y="41"> </text><text font-family="monospace" font-size="17" font-weight="normal" x="303" y="41">8</text><text font-family="monospace" font-size="17" font-weight="normal" x="311" y="41"> </text><text font-family="monospace" font-size="17" font-weight="normal" x="319" y="41">9</text><text font-family="monospace" font-size="17" font-weight="normal" x="327" y="41"> </text><text font-family="monospace" font-size="17" font-weight="normal" x="335" y="41">0</text><text font-family="monospace" font-size="17" font-weight="normal" x="343" y="41"> </text><text font-family="monospace" font-size="17" font-weight="normal" x="351" y="41">1</text><text font-family="monospace" font-size="17" font-weight="normal" x="359" y="41"> </text><text font-family="monospace" font-size="17" font-weight="normal" x="367" y="41">2</text><text font-family="monospace" font-size="17" font-weight="normal" x="375" y="41"> </text><text font-family="monospace" font-size="17" font-weight="normal" x="383" y="41">3</text><text font-family="monospace" font-size="17" font-weight="normal" x="391" y="41"> </text><text font-family="monospace" font-size="17" font-weight="normal" x="399" y="41">4</text><text font-family="monospace" font-size="17" font-weight="normal" x="407" y="41"> </text><text font-family="monospace" font-size="17" font-weight="normal" x="415" y="41">5</text><text font-family="monospace" font-size="17" font-weight="normal" x="423" y="41"> </text><text font-family="monospace" font-size="17" font-weight="normal" x="431" y="41">6</text><text font-family="monospace" font-size="17" font-weight="normal" x="439" y="41"> </text><text font-family="monospace" font-size="17" font-weight="normal" x="447" y="41">7</text><text font-family="monospace" font-size="17" font-weight="normal" x="455" y="41"> </text><text font-family="monospace" font-size="17" font-weight="normal" x="463" y="41">8</text><text font-family="monospace" font-size="17" font-weight="normal" x="471" y="41"> </text><text font-family="monospace" font-size="17" font-weight="normal" x="479" y="41">9</text><text font-family="monospace" font-size="17" font-weight="normal" x="487" y="41"> </text><text font-family="monospace" font-size="17" font-weight="normal" x="495" y="41">0</text><text font-family="monospace" font-size="17" font-weight="normal" x="503" y="41"> </text><text font-family="monospace" font-size="17" font-weight="normal" x="511" y="41">1</text><text font-family="monospace" font-size="17" font-weight="normal" x="95" y="65">S</text><text font-family="monospace" font-size="17" font-weight="normal" x="103" y="65">o</text><text font-family="monospace" font-size="17" font-weight="normal" x="111" y="65">u</text><text font-family="monospace" font-size="17" font-weight="normal" x="119" y="65">r</text><text font-family="monospace" font-size="17" font-weight="normal" x="127" y="65">c</text><text font-family="monospace" font-size="17" font-weight="normal" x="135" y="65">e</text><text font-family="monospace" font-size="17" font-weight="normal" x="143" y="65"> </text><text font-family="monospace" font-size="17" font-weight="normal" x="151" y="65">P</text><text font-family="monospace" font-size="17" font-weight="normal" x="159" y="65">o</text><text font-family="monospace" font-size="17" font-weight="normal" x="167" y="65">r</text><text font-family="monospace" font-size="17" font-weight="normal" x="175" y="65">t</text><line fill="none" stroke="red" stroke-width="1" x1="267" x2="267" y1="48" y2="84" /><text font-family="monospace" font-size="17" font-weight="normal" x="331" y="65">D</text><text font-family="monospace" font-size="17" font-weight="normal" x="339" y="65">e</text><text font-family="monospace" font-size="17" font-weight="normal" x="347" y="65">s</text><text font-family="monospace" font-size="17" font-weight="normal" x="355" y="65">t</text><text font-family="monospace" font-size="17" font-weight="normal" x="363" y="65">i</text><text font-family="monospace" font-size="17" font-weight="normal" x="371" y="65">n</text><text font-family="monospace" font-size="17" font-weight="normal" x="379" y="65">a</text><text font-family="monospace" font-size="17" font-weight="normal" x="387" y="65">t</text><text font-family="monospace" font-size="17" font-weight="normal" x="395" y="65">i</text><text font-family="monospace" font-size="17" font-weight="normal" x="403" y="65">o</text><text font-family="monospace" font-size="17" font-weight="normal" x="411" y="65">n</text><text font-family="monospace" font-size="17" font-weight="normal" x="419" y="65"> </text><text font-family="monospace" font-size="17" font-weight="normal" x="427" y="65">P</text><text font-family="monospace" font-size="17" font-weight="normal" x="435" y="65">o</text><text font-family="monospace" font-size="17" font-weight="normal" x="443" y="65">r</text><text font-family="monospace" font-size="17" font-weight="normal" x="451" y="65">t</text><text font-family="monospace" font-size="17" font-weight="normal" x="207" y="101">S</text><text font-family="monospace" font-size="17" font-weight="normal" x="215" y="101">e</text><text font-family="monospace" font-size="17" font-weight="normal" x="223" y="101">q</text><text font-family="monospace" font-size="17" font-weight="normal" x="231" y="101">u</text><text font-family="monospace" font-size="17" font-weight="normal" x="239" y="101">e</text><text font-family="monospace" font-size="17" font-weight="normal" x="247" y="101">n</text><text font-family="monospace" font-size="17" font-weight="normal" x="255" y="101">c</text><text font-family="monospace" font-size="17" font-weight="normal" x="263" y="101">e</text><text font-family="monospace" font-size="17" font-weight="normal" x="271" y="101"> </text><text font-family="monospace" font-size="17" font-weight="normal" x="279" y="101">N</text><text font-family="monospace" font-size="17" font-weight="normal" x="287" y="101">u</text><text font-family="monospace" font-size="17" font-weight="normal" x="295" y="101">m</text><text font-family="monospace" font-size="17" font-weight="normal" x="303" y="101">b</text><text font-family="monospace" font-size="17" font-weight="normal" x="311" y="101">e</text><text font-family="monospace" font-size="17" font-weight="normal" x="319" y="101">r</text><text font-family="monospace" font-size="17" font-weight="normal" x="179" y="137">A</text><text font-family="monospace" font-size="17" font-weight="normal" x="187" y="137">c</text><text font-family="monospace" font-size="17" font-weight="normal" x="195" y="137">k</text><text font-family="monospace" font-size="17" font-weight="normal" x="203" y="137">n</text><text font-family="monospace" font-size="17" font-weight="normal" x="211" y="137">o</text><text font-family="monospace" font-size="17" font-weight="normal" x="219" y="137">w</text><text font-family="monospace" font-size="17" font-weight="normal" x="227" y="137">l</text><text font-family="monospace" font-size="17" font-weight="normal" x="235" y="137">e</text><text font-family="monospace" font-size="17" font-weight="normal" x="243" y="137">d</text><text font-family="monospace" font-size="17" font-weight="normal" x="251" y="137">g</text><text font-family="monospace" font-size="17" font-weight="normal" x="259" y="137">e</text><text font-family="monospace" font-size="17" font-weight="normal" x="267" y="137">m</text><text font-family="monospace" font-size="17" font-weight="normal" x="275" y="137">e</text><text font-family="monospace" font-size="17" font-weight="normal" x="283" y="137">n</text><text font-family="monospace" font-size="17" font-weight="normal" x="291" y="137">t</text><text font-family="monospace" font-size="17" font-weight="normal" x="299" y="137"> </text><text font-family="monospace" font-size="17" font-weight="normal" x="307" y="137">N</text><text font-family="monospace" font-size="17" font-weight="normal" x="315" y="137">u</text><text font-family="monospace" font-size="17" font-weight="normal" x="323" y="137">m</text><text font-family="monospace" font-size="17" font-weight="normal" x="331" y="137">b</text><text font-family="monospace" font-size="17" font-weight="normal" x="339" y="137">e</text><text font-family="monospace" font-size="17" font-weight="normal" x="347" y="137">r</text><text font-family="monospace" font-size="17" font-weight="normal" x="23" y="190"> </text><text font-family="monospace" font-size="17" font-weight="normal" x="31" y="190">D</text><text font-family="monospace" font-size="17" font-weight="normal" x="39" y="190">a</text><text font-family="monospace" font-size="17" font-weight="normal" x="47" y="190">t</text><text font-family="monospace" font-size="17" font-weight="normal" x="55" y="190">a</text><text font-family="monospace" font-size="17" font-weight="normal" x="19" y="207">O</text><text font-family="monospace" font-size="17" font-weight="normal" x="27" y="207">f</text><text font-family="monospace" font-size="17" font-weight="normal" x="35" y="207">f</text><text font-family="monospace" font-size="17" font-weight="normal" x="43" y="207">s</text><text font-family="monospace" font-size="17" font-weight="normal" x="51" y="207">e</text><text font-family="monospace" font-size="17" font-weight="normal" x="59" y="207">t</text><line fill="none" stroke="red" stroke-width="1" x1="75" x2="75" y1="156" y2="226" /><text font-family="monospace" font-size="17" font-weight="normal" x="87" y="190">R</text><text font-family="monospace" font-size="17" font-weight="normal" x="95" y="190">s</text><text font-family="monospace" font-size="17" font-weight="normal" x="103" y="190">r</text><text font-family="monospace" font-size="17" font-weight="normal" x="111" y="190">v</text><text font-family="monospace" font-size="17" font-weight="normal" x="119" y="190">d</text><line fill="none" stroke="red" stroke-width="1" x1="139" x2="139" y1="156" y2="226" /><text font-family="monospace" font-size="17" font-weight="normal" x="143" y="190">C</text><text font-family="monospace" font-size="17" font-weight="normal" x="143" y="207">W</text><text font-family="monospace" font-size="17" font-weight="normal" x="143" y="224">R</text><line fill="none" stroke="red" stroke-width="1" x1="155" x2="155" y1="156" y2="226" /><text font-family="monospace" font-size="17" font-weight="normal" x="159" y="190">E</text><text font-family="monospace" font-size="17" font-weight="normal" x="159" y="207">C</text><text font-family="monospace" font-size="17" font-weight="normal" x="159" y="224">E</text><line fill="none" stroke="red" stroke-width="1" x1="171" x2="171" y1="156" y2="226" /><text font-family="monospace" font-size="17" font-weight="normal" x="175" y="190">U</text><text font-family="monospace" font-size="17" font-weight="normal" x="175" y="207">R</text><text font-family="monospace" font-size="17" font-weight="normal" x="175" y="224">G</text><line fill="none" stroke="red" stroke-width="1" x1="187" x2="187" y1="156" y2="226" /><text font-family="monospace" font-size="17" font-weight="normal" x="191" y="190">A</text><text font-family="monospace" font-size="17" font-weight="normal" x="191" y="207">C</text><text font-family="monospace" font-size="17" font-weight="normal" x="191" y="224">K</text><line fill="none" stroke="red" stroke-width="1" x1="203" x2="203" y1="156" y2="226" /><text font-family="monospace" font-size="17" font-weight="normal" x="207" y="190">P</text><text font-family="monospace" font-size="17" font-weight="normal" x="207" y="207">S</text><text font-family="monospace" font-size="17" font-weight="normal" x="207" y="224">H</text><line fill="none" stroke="red" stroke-width="1" x1="219" x2="219" y1="156" y2="226" /><text font-family="monospace" font-size="17" font-weight="normal" x="223" y="190">R</text><text font-family="monospace" font-size="17" font-weight="normal" x="223" y="207">S</text><text font-family="monospace" font-size="17" font-weight="normal" x="223" y="224">T</text><line fill="none" stroke="red" stroke-width="1" x1="235" x2="235" y1="156" y2="226" /><text font-family="monospace" font-size="17" font-weight="normal" x="239" y="190">S</text><text font-family="monospace" font-size="17" font-weight="normal" x="239" y="207">Y</text><text font-family="monospace" font-size="17" font-weight="normal" x="239" y="224">N</text><line fill="none" stroke="red" stroke-width="1" x1="251" x2="251" y1="156" y2="226" /><text font-family="monospace" font-size="17" font-weight="normal" x="255" y="190">F</text><text font-family="monospace" font-size="17" font-weight="normal" x="255" y="207">I</text><text font-family="monospace" font-size="17" font-weight="normal" x="255" y="224">N</text><line fill="none" stroke="red" stroke-width="1" x1="267" x2="267" y1="156" y2="226" /><text font-family="monospace" font-size="17" font-weight="normal" x="371" y="190">W</text><text font-family="monospace" font-size="17" font-weight="normal" x="379" y="190">i</text><text font-family="monospace" font-size="17" font-weight="normal" x="387" y="190">n</text><text font-family="monospace" font-size="17" font-weight="normal" x="395" y="190">d</text><text font-family="monospace" font-size="17" font-weight="normal" x="403" y="190">o</text><text font-family="monospace" font-size="17" font-weight="normal" x="411" y="190">w</text><text font-family="monospace" font-size="17" font-weight="normal" x="107" y="243">C</text><text font-family="monospace" font-size="17" font-weight="normal" x="115" y="243">h</text><text font-family="monospace" font-size="17" font-weight="normal" x="123" y="243">e</text><text font-family="monospace" font-size="17" font-weight="normal" x="131" y="243">c</text><text font-family="monospace" font-size="17" font-weight="normal" x="139" y="243">k</text><text font-family="monospace" font-size="17" font-weight="normal" x="147" y="243">s</text><text font-family="monospace" font-size="17" font-weight="normal" x="155" y="243">u</text><text font-family="monospace" font-size="17" font-weight="normal" x="163" y="243">m</text><line fill="none" stroke="red" stroke-width="1" x1="267" x2="267" y1="226" y2="262" /><text font-family="monospace" font-size="17" font-weight="normal" x="339" y="243">U</text><text font-family="monospace" font-size="17" font-weight="normal" x="347" y="243">r</text><text font-family="monospace" font-size="17" font-weight="normal" x="355" y="243">g</text><text font-family="monospace" font-size="17" font-weight="normal" x="363" y="243">e</text><text font-family="monospace" font-size="17" font-weight="normal" x="371" y="243">n</text><text font-family="monospace" font-size="17" font-weight="normal" x="379" y="243">t</text><text font-family="monospace" font-size="17" font-weight="normal" x="387" y="243"> </text><text font-family="monospace" font-size="17" font-weight="normal" x="395" y="243">P</text><text font-family="monospace" font-size="17" font-weight="normal" x="403" y="243">o</text><text font-family="monospace" font-size="17" font-weight="normal" x="411" y="243">i</text><text font-family="monospace" font-size="17" font-weight="normal" x="419" y="243">n</text><text font-family="monospace" font-size="17" font-weight="normal" x="427" y="243">t</text><text font-family="monospace" font-size="17" font-weight="normal" x="435" y="243">e</text><text font-family="monospace" font-size="17" font-weight="normal" x="443" y="243">r</text></svg>