<?xml version="1.0" encoding="utf-8" ?>
<svg baseProfile="tiny" height="88" version="1.2" viewBox="0,0,530,87" width="531" xmlns="http://www.w3.org/2000/svg" xmlns:ev="http://www.w3.org/2001/xml-events" xmlns:xlink="http://www.w3.org/1999/xlink"><defs /><polyline fill="none" points="3,39 527,39" stroke="black" stroke-width="0.75" /><polyline fill="none" points="3,39 3,75.0 527,75.0 527,39" stroke="black" stroke-width="0.75" /><line fill="none" stroke="black" stroke-width="1" x1="24" x2="24" y1="75.0" y2="72.0" /><line fill="none" stroke="black" stroke-width="1" x1="40" x2="40" y1="75.0" y2="72.0" /><line fill="none" stroke="black" stroke-width="1" x1="56" x2="56" y1="75.0" y2="72.0" /><line fill="none" stroke="black" stroke-width="2" x1="72" x2="72" y1="75.0" y2="72.0" /><line fill="none" stroke="black" stroke-width="1" x1="88" x2="88" y1="75.0" y2="72.0" /><line fill="none" stroke="black" stroke-width="1" x1="104" x2="104" y1="75.0" y2="72.0" /><line fill="none" stroke="black" stroke-width="1" x1="120" x2="120" y1="75.0" y2="72.0" /><line fill="none" stroke="black" stroke-width="2" x1="136" x2="136" y1="75.0" y2="72.0" /><line fill="none" stroke="black" stroke-width="1" x1="152" x2="152" y1="75.0" y2="72.0" /><line fill="none" stroke="black" stroke-width="1" x1="168" x2="168" y1="75.0" y2="72.0" /><line fill="none" stroke="black" stroke-width="1" x1="184" x2="184" y1="75.0" y2="72.0" /><line fill="none" stroke="black" stroke-width="2" x1="200" x2="200" y1="75.0" y2="72.0" /><line fill="none" stroke="black" stroke-width="1" x1="216" x2="216" y1="75.0" y2="72.0" /><line fill="none" stroke="black" stroke-width="1" x1="232" x2="232" y1="75.0" y2="72.0" /><line fill="none" stroke="black" stroke-width="1" x1="248" x2="248" y1="75.0" y2="72.0" /><line fill="none" stroke="black" stroke-width="2" x1="264" x2="264" y1="75.0" y2="72.0" /><line fill="none" stroke="black" stroke-width="1" x1="280" x2="280" y1="75.0" y2="72.0" /><line fill="none" stroke="black" stroke-width="1" x1="296" x2="296" y1="75.0" y2="72.0" /><line fill="none" stroke="black" stroke-width="1" x1="312" x2="312" y1="75.0" y2="72.0" /><line fill="none" stroke="black" stroke-width="2" x1="328" x2="328" y1="75.0" y2="72.0" /><line fill="none" stroke="black" stroke-width="1" x1="344" x2="344" y1="75.0" y2="72.0" /><line fill="none" stroke="black" stroke-width="1" x1="360" x2="360" y1="75.0" y2="72.0" /><line fill="none" stroke="black" stroke-width="1" x1="376" x2="376" y1="75.0" y2="72.0" /><line fill="none" stroke="black" stroke-width="2" x1="392" x2="392" y1="75.0" y2="72.0" /><line fill="none" stroke="black" stroke-width="1" x1="408" x2="408" y1="75.0" y2="72.0" /><line fill="none" stroke="black" stroke-width="1" x1="424" x2="424" y1="75.0" y2="72.0" /><line fill="none" stroke="black" stroke-width="1" x1="440" x2="440" y1="75.0" y2="72.0" /><line fill="none" stroke="black" stroke-width="2" x1="456" x2="456" y1="75.0" y2="72.0" /><line fill="none" stroke="black" stroke-width="1" x1="472" x2="472" y1="75.0" y2="72.0" /><line fill="none" stroke="black" stroke-width="1" x1="488" x2="488" y1="75.0" y2="72.0" /><line fill="none" stroke="black" stroke-width="1" x1="504" x2="504" y1="75.0" y2="72.0" /><text font-family="monospace" font-size="17" font-weight="normal" x="9" y="16">0</text><text font-family="monospace" font-size="17" font-weight="normal" x="17" y="16"> </text><text font-family="monospace" font-size="17" font-weight="normal" x="25" y="16"> </text><text font-family="monospace" font-size="17" font-weight="normal" x="33" y="16"> </text><text font-family="monospace" font-size="17" font-weight="normal" x="41" y="16"> </text><text font-family="monospace" font-size="17" font-weight="normal" x="49" y="16"> </text><text font-family="monospace" font-size="17" font-weight="normal" x="57" y="16"> </text><text font-family="monospace" font-size="17" font-weight="normal" x="65" y="16"> </text><text font-family="monospace" font-size="17" font-weight="normal" x="73" y="16"> </text><text font-family="monospace" font-size="17" font-weight="normal" x="81" y="16"> </text><text font-family="monospace" font-size="17" font-weight="normal" x="89" y="16"> </text><text font-family="monospace" font-size="17" font-weight="normal" x="97" y="16"> </text><text font-family="monospace" font-size="17" font-weight="normal" x="105" y="16"> </text><text font-family="monospace" font-size="17" font-weight="normal" x="113" y="16"> </text><text font-family="monospace" font-size="17" font-weight="normal" x="121" y="16"> </text><text font-family="monospace" font-size="17" font-weight="normal" x="129" y="16"> </text><text font-family="monospace" font-size="17" font-weight="normal" x="137" y="16"> </text><text font-family="monospace" font-size="17" font-weight="normal" x="145" y="16"> </text><text font-family="monospace" font-size="17" font-weight="normal" x="153" y="16"> </text><text font-family="monospace" font-size="17" font-weight="normal" x="161" y="16"> </text><text font-family="monospace" font-size="17" font-weight="normal" x="169" y="16">1</text><text font-family="monospace" font-size="17" font-weight="normal" x="177" y="16"> </text><text font-family="monospace" font-size="17" font-weight="normal" x="185" y="16"> </text><text font-family="monospace" font-size="17" font-weight="normal" x="193" y="16"> </text><text font-family="monospace" font-size="17" font-weight="normal" x="201" y="16"> </text><text font-family="monospace" font-size="17" font-weight="normal" x="209" y="16"> </text><text font-family="monospace" font-size="17" font-weight="normal" x="217" y="16"> </text><text font-family="monospace" font-size="17" font-weight="normal" x="225" y="16"> </text><text font-family="monospace" font-size="17" font-weight="normal" x="233" y="16"> </text><text font-family="monospace" font-size="17" font-weight="normal" x="241" y="16"> </text><text font-family="monospace" font-size="17" font-weight="normal" x="249" y="16"> </text><text font-family="monospace" font-size="17" font-weight="normal" x="257" y="16"> </text><text font-family="monospace" font-size="17" font-weight="normal" x="265" y="16"> </text><text font-family="monospace" font-size="17" font-weight="normal" x="273" y="16"> </text><text font-family="monospace" font-size="17" font-weight="normal" x="281" y="16"> </text><text font-family="monospace" font-size="17" font-weight="normal" x="289" y="16"> </text><text font-family="monospace" font-size="17" font-weight="normal" x="297" y="16"> </text><text font-family="monospace" font-size="17" font-weight="normal" x="305" y="16"> </text><text font-family="monospace" font-size="17" font-weight="normal" x="313" y="16"> </text><text font-family="monospace" font-size="17" font-weight="normal" x="321" y="16"> </text><text font-family="monospace" font-size="17" font-weight="normal" x="329" y="16">2</text><text font-family="monospace" font-size="17" font-weight="normal" x="337" y="16"> </text><text font-family="monospace" font-size="17" font-weight="normal" x="345" y="16"> </text><text font-family="monospace" font-size="17" font-weight="normal" x="353" y="16"> </text><text font-family="monospace" font-size="17" font-weight="normal" x="361" y="16"> </text><text font-family="monospace" font-size="17" font-weight="normal" x="369" y="16"> </text><text font-family="monospace" font-size="17" font-weight="normal" x="377" y="16"> </text><text font-family="monospace" font-size="17" font-weight="normal" x="385" y="16"> </text><text font-family="monospace" font-size="17" font-weight="normal" x="393" y="16"> </text><text font-family="monospace" font-size="17" font-weight="normal" x="401" y="16"> </text><text font-family="monospace" font-size="17" font-weight="normal" x="409" y="16"> </text><text font-family="monospace" font-size="17" font-weight="normal" x="417" y="16"> </text><text font-family="monospace" font-size="17" font-weight="normal" x="425" y="16"> </text><text font-family="monospace" font-size="17" font-weight="normal" x="433" y="16"> </text><text font-family="monospace" font-size="17" font-weight="normal" x="441" y="16"> </text><text font-family="monospace" font-size="17" font-weight="normal" x="449" y="16"> </text><text font-family="monospace" font-size="17" font-weight="normal" x="457" y="16"> </text><text font-family="monospace" font-size="17" font-weight="normal" x="465" y="16"> </text><text font-family="monospace" font-size="17" font-weight="normal" x="473" y="16"> </text><text font-family="monospace" font-size="17" font-weight="normal" x="481" y="16"> </text><text font-family="monospace" font-size="17" font-weight="normal" x="489" y="16">3</text><text font-family="monospace" font-size="17" font-weight="normal" x="497" y="16"> </text><text font-family="monospace" font-size="17" font-weight="normal" x="505" y="16"> </text><text font-family="monospace" font-size="17" font-weight="normal" x="9" y="33">0</text><text font-family="monospace" font-size="17" font-weight="normal" x="17" y="33"> </text><text font-family="monospace" font-size="17" font-weight="normal" x="25" y="33">1</text><text font-family="monospace" font-size="17" font-weight="normal" x="33" y="33"> </text><text font-family="monospace" font-size="17" font-weight="normal" x="41" y="33">2</text><text font-family="monospace" font-size="17" font-weight="normal" x="49" y="33"> </text><text font-family="monospace" font-size="17" font-weight="normal" x="57" y="33">3</text><text font-family="monospace" font-size="17" font-weight="normal" x="65" y="33"> </text><text font-family="monospace" font-size="17" font-weight="normal" x="73" y="33">4</text><text font-family="monospace" font-size="17" font-weight="normal" x="81" y="33"> </text><text font-family="monospace" font-size="17" font-weight="normal" x="89" y="33">5</text><text font-family="monospace" font-size="17" font-weight="normal" x="97" y="33"> </text><text font-family="monospace" font-size="17" font-weight="normal" x="105" y="33">6</text><text font-family="monospace" font-size="17" font-weight="normal" x="113" y="33"> </text><text font-family="monospace" font-size="17" font-weight="normal" x="121" y="33">7</text><text font-family="monospace" font-size="17" font-weight="normal" x="129" y="33"> </text><text font-family="monospace" font-size="17" font-weight="normal" x="137" y="33">8</text><text font-family="monospace" font-size="17" font-weight="normal" x="145" y="33"> </text><text font-family="monospace" font-size="17" font-weight="normal" x="153" y="33">9</text><text font-family="monospace" font-size="17" font-weight="normal" x="161" y="33"> </text><text font-family="monospace" font-size="17" font-weight="normal" x="169" y="33">0</text><text font-family="monospace" font-size="17" font-weight="normal" x="177" y="33"> </text><text font-family="monospace" font-size="17" font-weight="normal" x="185" y="33">1</text><text font-family="monospace" font-size="17" font-weight="normal" x="193" y="33"> </text><text font-family="monospace" font-size="17" font-weight="normal" x="201" y="33">2</text><text font-family="monospace" font-size="17" font-weight="normal" x="209" y="33"> </text><text font-family="monospace" font-size="17" font-weight="normal" x="217" y="33">3</text><text font-family="monospace" font-size="17" font-weight="normal" x="225" y="33"> </text><text font-family="monospace" font-size="17" font-weight="normal" x="233" y="33">4</text><text font-family="monospace" font-size="17" font-weight="normal" x="241" y="33"> </text><text font-family="monospace" font-size="17" font-weight="normal" x="249" y="33">5</text><text font-family="monospace" font-size="17" font-weight="normal" x="257" y="33"> </text><text font-family="monospace" font-size="17" font-weight="normal" x="265" y="33">6</text><text font-family="monospace" font-size="17" font-weight="normal" x="273" y="33"> </text><text font-family="monospace" font-size="17" font-weight="normal" x="281" y="33">7</text><text font-family="monospace" font-size="17" font-weight="normal" x="289" y="33"> </text><text font-family="monospace" font-size="17" font-weight="normal" x="297" y="33">8</text><text font-family="monospace" font-size="17" font-weight="normal" x="305" y="33"> </text><text font-family="monospace" font-size="17" font-weight="normal" x="313" y="33">9</text><text font-family="monospace" font-size="17" font-weight="normal" x="321" y="33"> </text><text font-family="monospace" font-size="17" font-weight="normal" x="329" y="33">0</text><text font-family="monospace" font-size="17" font-weight="normal" x="337" y="33"> </text><text font-family="monospace" font-size="17" font-weight="normal" x="345" y="33">1</text><text font-family="monospace" font-size="17" font-weight="normal" x="353" y="33"> </text><text font-family="monospace" font-size="17" font-weight="normal" x="361" y="33">2</text><text font-family="monospace" font-size="17" font-weight="normal" x="369" y="33"> </text><text font-family="monospace" font-size="17" font-weight="normal" x="377" y="33">3</text><text font-family="monospace" font-size="17" font-weight="normal" x="385" y="33"> </text><text font-family="monospace" font-size="17" font-weight="normal" x="393" y="33">4</text><text font-family="monospace" font-size="17" font-weight="normal" x="401" y="33"> </text><text font-family="monospace" font-size="17" font-weight="normal" x="409" y="33">5</text><text font-family="monospace" font-size="17" font-weight="normal" x="417" y="33"> </text><text font-family="monospace" font-size="17" font-weight="normal" x="425" y="33">6</text><text font-family="monospace" font-size="17" font-weight="normal" x="433" y="33"> </text><text font-family="monospace" font-size="17" font-weight="normal" x="441" y="33">7</text><text font-family="monospace" font-size="17" font-weight="normal" x="449" y="33"> </text><text font-family="monospace" font-size="17" font-weight="normal" x="457" y="33">8</text><text font-family="monospace" font-size="17" font-weight="normal" x="465" y="33"> </text><text font-family="monospace" font-size="17" font-weight="normal" x="473" y="33">9</text><text font-family="monospace" font-size="17" font-weight="normal" x="481" y="33"> </text><text font-family="monospace" font-size="17" font-weight="normal" x="489" y="33">0</text><text font-family="monospace" font-size="17" font-weight="normal" x="497" y="33"> </text><text font-family="monospace" font-size="17" font-weight="normal" x="505" y="33">1</text><text font-family="monospace" font-size="17" font-weight="normal" x="249" y="61">-</text><text font-family="monospace" font-size="17" font-weight="normal" x="257" y="61">|</text><text font-family="monospace" font-size="17" font-weight="normal" x="265" y="61">-</text></svg>