<?xml version="1.0" encoding="utf-8" ?>
<svg baseProfile="tiny" font-family="monospace" font-size="14" font-weight="normal" height="327" version="1.2" viewBox="0,0,925,327" width="925" xmlns="http://www.w3.org/2000/svg" xmlns:ev="http://www.w3.org/2001/xml-events" xmlns:xlink="http://www.w3.org/1999/xlink"><defs /><polyline fill="none" points="202,75 726,75" stroke="darkblue" stroke-width="1" /><line stroke="black" stroke-width="2" x1="226.0" x2="226.0" y1="72" y2="75" /><line stroke="black" stroke-width="2" x1="242.0" x2="242.0" y1="72" y2="75" /><line stroke="black" stroke-width="2" x1="258.0" x2="258.0" y1="72" y2="75" /><line stroke="black" stroke-width="3" x1="274.0" x2="274.0" y1="72" y2="75" /><line stroke="black" stroke-width="2" x1="290.0" x2="290.0" y1="72" y2="75" /><line stroke="black" stroke-width="2" x1="306.0" x2="306.0" y1="72" y2="75" /><line stroke="black" stroke-width="2" x1="322.0" x2="322.0" y1="72" y2="75" /><line stroke="black" stroke-width="3" x1="338.0" x2="338.0" y1="72" y2="75" /><line stroke="black" stroke-width="2" x1="354.0" x2="354.0" y1="72" y2="75" /><line stroke="black" stroke-width="2" x1="370.0" x2="370.0" y1="72" y2="75" /><line stroke="black" stroke-width="2" x1="386.0" x2="386.0" y1="72" y2="75" /><line stroke="black" stroke-width="3" x1="402.0" x2="402.0" y1="72" y2="75" /><line stroke="black" stroke-width="2" x1="418.0" x2="418.0" y1="72" y2="75" /><line stroke="black" stroke-width="2" x1="434.0" x2="434.0" y1="72" y2="75" /><line stroke="black" stroke-width="2" x1="450.0" x2="450.0" y1="72" y2="75" /><line stroke="black" stroke-width="3" x1="466.0" x2="466.0" y1="72" y2="75" /><line stroke="black" stroke-width="2" x1="482.0" x2="482.0" y1="72" y2="75" /><line stroke="black" stroke-width="2" x1="498.0" x2="498.0" y1="72" y2="75" /><line stroke="black" stroke-width="2" x1="514.0" x2="514.0" y1="72" y2="75" /><line stroke="black" stroke-width="3" x1="530.0" x2="530.0" y1="72" y2="75" /><line stroke="black" stroke-width="2" x1="546.0" x2="546.0" y1="72" y2="75" /><line stroke="black" stroke-width="2" x1="562.0" x2="562.0" y1="72" y2="75" /><line stroke="black" stroke-width="2" x1="578.0" x2="578.0" y1="72" y2="75" /><line stroke="black" stroke-width="3" x1="594.0" x2="594.0" y1="72" y2="75" /><line stroke="black" stroke-width="2" x1="610.0" x2="610.0" y1="72" y2="75" /><line stroke="black" stroke-width="2" x1="626.0" x2="626.0" y1="72" y2="75" /><line stroke="black" stroke-width="2" x1="642.0" x2="642.0" y1="72" y2="75" /><line stroke="black" stroke-width="3" x1="658.0" x2="658.0" y1="72" y2="75" /><line stroke="black" stroke-width="2" x1="674.0" x2="674.0" y1="72" y2="75" /><line stroke="black" stroke-width="2" x1="690.0" x2="690.0" y1="72" y2="75" /><line stroke="black" stroke-width="2" x1="706.0" x2="706.0" y1="72" y2="75" /><polyline fill="none" points="202,75 202,111 726,111 726,75" stroke="green" stroke-width="1" /><line stroke="black" stroke-width="2" x1="226.0" x2="226.0" y1="108" y2="111" /><line stroke="black" stroke-width="2" x1="242.0" x2="242.0" y1="108" y2="111" /><line stroke="black" stroke-width="2" x1="258.0" x2="258.0" y1="108" y2="111" /><line stroke="black" stroke-width="3" x1="274.0" x2="274.0" y1="108" y2="111" /><line stroke="black" stroke-width="2" x1="290.0" x2="290.0" y1="108" y2="111" /><line stroke="black" stroke-width="2" x1="306.0" x2="306.0" y1="108" y2="111" /><line stroke="black" stroke-width="2" x1="322.0" x2="322.0" y1="108" y2="111" /><line stroke="black" stroke-width="3" x1="338.0" x2="338.0" y1="108" y2="111" /><line stroke="black" stroke-width="2" x1="354.0" x2="354.0" y1="108" y2="111" /><line stroke="black" stroke-width="2" x1="370.0" x2="370.0" y1="108" y2="111" /><line stroke="black" stroke-width="2" x1="386.0" x2="386.0" y1="108" y2="111" /><line stroke="black" stroke-width="3" x1="402.0" x2="402.0" y1="108" y2="111" /><line stroke="black" stroke-width="2" x1="418.0" x2="418.0" y1="108" y2="111" /><line stroke="black" stroke-width="2" x1="434.0" x2="434.0" y1="108" y2="111" /><line stroke="black" stroke-width="2" x1="450.0" x2="450.0" y1="108" y2="111" /><line stroke="black" stroke-width="3" x1="466.0" x2="466.0" y1="108" y2="111" /><line stroke="black" stroke-width="2" x1="482.0" x2="482.0" y1="108" y2="111" /><line stroke="black" stroke-width="2" x1="498.0" x2="498.0" y1="108" y2="111" /><line stroke="black" stroke-width="2" x1="514.0" x2="514.0" y1="108" y2="111" /><line stroke="black" stroke-width="3" x1="530.0" x2="530.0" y1="108" y2="111" /><line stroke="black" stroke-width="2" x1="546.0" x2="546.0" y1="108" y2="111" /><line stroke="black" stroke-width="2" x1="562.0" x2="562.0" y1="108" y2="111" /><line stroke="black" stroke-width="2" x1="578.0" x2="578.0" y1="108" y2="111" /><line stroke="black" stroke-width="3" x1="594.0" x2="594.0" y1="108" y2="111" /><line stroke="black" stroke-width="2" x1="610.0" x2="610.0" y1="108" y2="111" /><line stroke="black" stroke-width="2" x1="626.0" x2="626.0" y1="108" y2="111" /><line stroke="black" stroke-width="2" x1="642.0" x2="642.0" y1="108" y2="111" /><line stroke="black" stroke-width="3" x1="658.0" x2="658.0" y1="108" y2="111" /><line stroke="black" stroke-width="2" x1="674.0" x2="674.0" y1="108" y2="111" /><line stroke="black" stroke-width="2" x1="690.0" x2="690.0" y1="108" y2="111" /><line stroke="black" stroke-width="2" x1="706.0" x2="706.0" y1="108" y2="111" /><polyline fill="none" points="196,279 720,279" stroke="darkblue" stroke-width="1" /><line stroke="black" stroke-width="2" x1="220.0" x2="220.0" y1="276" y2="279" /><line stroke="black" stroke-width="2" x1="236.0" x2="236.0" y1="276" y2="279" /><line stroke="black" stroke-width="2" x1="252.0" x2="252.0" y1="276" y2="279" /><line stroke="black" stroke-width="3" x1="268.0" x2="268.0" y1="276" y2="279" /><line stroke="black" stroke-width="2" x1="284.0" x2="284.0" y1="276" y2="279" /><line stroke="black" stroke-width="2" x1="300.0" x2="300.0" y1="276" y2="279" /><line stroke="black" stroke-width="2" x1="316.0" x2="316.0" y1="276" y2="279" /><line stroke="black" stroke-width="3" x1="332.0" x2="332.0" y1="276" y2="279" /><line stroke="black" stroke-width="2" x1="348.0" x2="348.0" y1="276" y2="279" /><line stroke="black" stroke-width="2" x1="364.0" x2="364.0" y1="276" y2="279" /><line stroke="black" stroke-width="2" x1="380.0" x2="380.0" y1="276" y2="279" /><line stroke="black" stroke-width="3" x1="396.0" x2="396.0" y1="276" y2="279" /><line stroke="black" stroke-width="2" x1="412.0" x2="412.0" y1="276" y2="279" /><line stroke="black" stroke-width="2" x1="428.0" x2="428.0" y1="276" y2="279" /><line stroke="black" stroke-width="2" x1="444.0" x2="444.0" y1="276" y2="279" /><line stroke="black" stroke-width="3" x1="460.0" x2="460.0" y1="276" y2="279" /><line stroke="black" stroke-width="2" x1="476.0" x2="476.0" y1="276" y2="279" /><line stroke="black" stroke-width="2" x1="492.0" x2="492.0" y1="276" y2="279" /><line stroke="black" stroke-width="2" x1="508.0" x2="508.0" y1="276" y2="279" /><line stroke="black" stroke-width="3" x1="524.0" x2="524.0" y1="276" y2="279" /><line stroke="black" stroke-width="2" x1="540.0" x2="540.0" y1="276" y2="279" /><line stroke="black" stroke-width="2" x1="556.0" x2="556.0" y1="276" y2="279" /><line stroke="black" stroke-width="2" x1="572.0" x2="572.0" y1="276" y2="279" /><line stroke="black" stroke-width="3" x1="588.0" x2="588.0" y1="276" y2="279" /><line stroke="black" stroke-width="2" x1="604.0" x2="604.0" y1="276" y2="279" /><line stroke="black" stroke-width="2" x1="620.0" x2="620.0" y1="276" y2="279" /><line stroke="black" stroke-width="2" x1="636.0" x2="636.0" y1="276" y2="279" /><line stroke="black" stroke-width="3" x1="652.0" x2="652.0" y1="276" y2="279" /><line stroke="black" stroke-width="2" x1="668.0" x2="668.0" y1="276" y2="279" /><line stroke="black" stroke-width="2" x1="684.0" x2="684.0" y1="276" y2="279" /><line stroke="black" stroke-width="2" x1="700.0" x2="700.0" y1="276" y2="279" /><polyline fill="none" points="196,279 196,315 720,315 720,279" stroke="green" stroke-width="1" /><line stroke="black" stroke-width="2" x1="220.0" x2="220.0" y1="312" y2="315" /><line stroke="black" stroke-width="2" x1="236.0" x2="236.0" y1="312" y2="315" /><line stroke="black" stroke-width="2" x1="252.0" x2="252.0" y1="312" y2="315" /><line stroke="black" stroke-width="3" x1="268.0" x2="268.0" y1="312" y2="315" /><line stroke="black" stroke-width="2" x1="284.0" x2="284.0" y1="312" y2="315" /><line stroke="black" stroke-width="2" x1="300.0" x2="300.0" y1="312" y2="315" /><line stroke="black" stroke-width="2" x1="316.0" x2="316.0" y1="312" y2="315" /><line stroke="black" stroke-width="3" x1="332.0" x2="332.0" y1="312" y2="315" /><line stroke="black" stroke-width="2" x1="348.0" x2="348.0" y1="312" y2="315" /><line stroke="black" stroke-width="2" x1="364.0" x2="364.0" y1="312" y2="315" /><line stroke="black" stroke-width="2" x1="380.0" x2="380.0" y1="312" y2="315" /><line stroke="black" stroke-width="3" x1="396.0" x2="396.0" y1="312" y2="315" /><line stroke="black" stroke-width="2" x1="412.0" x2="412.0" y1="312" y2="315" /><line stroke="black" stroke-width="2" x1="428.0" x2="428.0" y1="312" y2="315" /><line stroke="black" stroke-width="2" x1="444.0" x2="444.0" y1="312" y2="315" /><line stroke="black" stroke-width="3" x1="460.0" x2="460.0" y1="312" y2="315" /><line stroke="black" stroke-width="2" x1="476.0" x2="476.0" y1="312" y2="315" /><line stroke="black" stroke-width="2" x1="492.0" x2="492.0" y1="312" y2="315" /><line stroke="black" stroke-width="2" x1="508.0" x2="508.0" y1="312" y2="315" /><line stroke="black" stroke-width="3" x1="524.0" x2="524.0" y1="312" y2="315" /><line stroke="black" stroke-width="2" x1="540.0" x2="540.0" y1="312" y2="315" /><line stroke="black" stroke-width="2" x1="556.0" x2="556.0" y1="312" y2="315" /><line stroke="black" stroke-width="2" x1="572.0" x2="572.0" y1="312" y2="315" /><line stroke="black" stroke-width="3" x1="588.0" x2="588.0" y1="312" y2="315" /><line stroke="black" stroke-width="2" x1="604.0" x2="604.0" y1="312" y2="315" /><line stroke="black" stroke-width="2" x1="620.0" x2="620.0" y1="312" y2="315" /><line stroke="black" stroke-width="2" x1="636.0" x2="636.0" y1="312" y2="315" /><line stroke="black" stroke-width="3" x1="652.0" x2="652.0" y1="312" y2="315" /><line stroke="black" stroke-width="2" x1="668.0" x2="668.0" y1="312" y2="315" /><line stroke="black" stroke-width="2" x1="684.0" x2="684.0" y1="312" y2="315" /><line stroke="black" stroke-width="2" x1="700.0" x2="700.0" y1="312" y2="315" /><text stroke="brown" x="214" y="48">0</text><text stroke="brown" x="374" y="48">1</text><text stroke="brown" x="534" y="48">2</text><text stroke="brown" x="694" y="48">3</text><text stroke="brown" x="214" y="62">0</text><text stroke="brown" x="230" y="62">1</text><text stroke="brown" x="246" y="62">2</text><text stroke="brown" x="262" y="62">3</text><text stroke="brown" x="278" y="62">4</text><text stroke="brown" x="294" y="62">5</text><text stroke="brown" x="310" y="62">6</text><text stroke="brown" x="326" y="62">7</text><text stroke="brown" x="342" y="62">8</text><text stroke="brown" x="358" y="62">9</text><text stroke="brown" x="374" y="62">0</text><text stroke="brown" x="390" y="62">1</text><text stroke="brown" x="406" y="62">2</text><text stroke="brown" x="422" y="62">3</text><text stroke="brown" x="438" y="62">4</text><text stroke="brown" x="454" y="62">5</text><text stroke="brown" x="470" y="62">6</text><text stroke="brown" x="486" y="62">7</text><text stroke="brown" x="502" y="62">8</text><text stroke="brown" x="518" y="62">9</text><text stroke="brown" x="534" y="62">0</text><text stroke="brown" x="550" y="62">1</text><text stroke="brown" x="566" y="62">2</text><text stroke="brown" x="582" y="62">3</text><text stroke="brown" x="598" y="62">4</text><text stroke="brown" x="614" y="62">5</text><text stroke="brown" x="630" y="62">6</text><text stroke="brown" x="646" y="62">7</text><text stroke="brown" x="662" y="62">8</text><text stroke="brown" x="678" y="62">9</text><text stroke="brown" x="694" y="62">0</text><text stroke="brown" x="710" y="62">1</text><text stroke="red" x="406" y="96">Header 1, Row 2</text><text stroke="brown" x="208" y="252">0</text><text stroke="brown" x="368" y="252">1</text><text stroke="brown" x="528" y="252">2</text><text stroke="brown" x="688" y="252">3</text><text stroke="brown" x="208" y="266">0</text><text stroke="brown" x="224" y="266">1</text><text stroke="brown" x="240" y="266">2</text><text stroke="brown" x="256" y="266">3</text><text stroke="brown" x="272" y="266">4</text><text stroke="brown" x="288" y="266">5</text><text stroke="brown" x="304" y="266">6</text><text stroke="brown" x="320" y="266">7</text><text stroke="brown" x="336" y="266">8</text><text stroke="brown" x="352" y="266">9</text><text stroke="brown" x="368" y="266">0</text><text stroke="brown" x="384" y="266">1</text><text stroke="brown" x="400" y="266">2</text><text stroke="brown" x="416" y="266">3</text><text stroke="brown" x="432" y="266">4</text><text stroke="brown" x="448" y="266">5</text><text stroke="brown" x="464" y="266">6</text><text stroke="brown" x="480" y="266">7</text><text stroke="brown" x="496" y="266">8</text><text stroke="brown" x="512" y="266">9</text><text stroke="brown" x="528" y="266">0</text><text stroke="brown" x="544" y="266">1</text><text stroke="brown" x="560" y="266">2</text><text stroke="brown" x="576" y="266">3</text><text stroke="brown" x="592" y="266">4</text><text stroke="brown" x="608" y="266">5</text><text stroke="brown" x="624" y="266">6</text><text stroke="brown" x="640" y="266">7</text><text stroke="brown" x="656" y="266">8</text><text stroke="brown" x="672" y="266">9</text><text stroke="brown" x="688" y="266">0</text><text stroke="brown" x="704" y="266">1</text><text stroke="red" x="400" y="300">Header 2, Row 2</text></svg>