<?xml version="1.0" encoding="utf-8" ?>
<svg baseProfile="tiny" height="145" version="1.2" viewBox="0,0,530,144" width="531" xmlns="http://www.w3.org/2000/svg" xmlns:ev="http://www.w3.org/2001/xml-events" xmlns:xlink="http://www.w3.org/1999/xlink"><defs /><polyline fill="none" points="3,52 527,52" stroke="black" stroke-width="0.75" /><polyline fill="none" points="3,52 3,105 527,105 527,52" stroke="black" stroke-width="0.75" /><line fill="none" stroke="black" stroke-width="1" x1="27.0" x2="27.0" y1="101" y2="105" /><line fill="none" stroke="black" stroke-width="1" x1="43.0" x2="43.0" y1="101" y2="105" /><line fill="none" stroke="black" stroke-width="1" x1="59.0" x2="59.0" y1="101" y2="105" /><line fill="none" stroke="black" stroke-width="2" x1="75.0" x2="75.0" y1="101" y2="105" /><line fill="none" stroke="black" stroke-width="1" x1="91.0" x2="91.0" y1="101" y2="105" /><line fill="none" stroke="black" stroke-width="1" x1="107.0" x2="107.0" y1="101" y2="105" /><line fill="none" stroke="black" stroke-width="1" x1="123.0" x2="123.0" y1="101" y2="105" /><line fill="none" stroke="black" stroke-width="2" x1="139.0" x2="139.0" y1="101" y2="105" /><line fill="none" stroke="black" stroke-width="1" x1="155.0" x2="155.0" y1="101" y2="105" /><line fill="none" stroke="black" stroke-width="1" x1="171.0" x2="171.0" y1="101" y2="105" /><line fill="none" stroke="black" stroke-width="1" x1="187.0" x2="187.0" y1="101" y2="105" /><line fill="none" stroke="black" stroke-width="2" x1="203.0" x2="203.0" y1="101" y2="105" /><line fill="none" stroke="black" stroke-width="1" x1="219.0" x2="219.0" y1="101" y2="105" /><line fill="none" stroke="black" stroke-width="1" x1="235.0" x2="235.0" y1="101" y2="105" /><line fill="none" stroke="black" stroke-width="1" x1="251.0" x2="251.0" y1="101" y2="105" /><line fill="none" stroke="black" stroke-width="2" x1="267.0" x2="267.0" y1="101" y2="105" /><line fill="none" stroke="black" stroke-width="1" x1="283.0" x2="283.0" y1="101" y2="105" /><line fill="none" stroke="black" stroke-width="1" x1="299.0" x2="299.0" y1="101" y2="105" /><line fill="none" stroke="black" stroke-width="1" x1="315.0" x2="315.0" y1="101" y2="105" /><line fill="none" stroke="black" stroke-width="2" x1="331.0" x2="331.0" y1="101" y2="105" /><line fill="none" stroke="black" stroke-width="1" x1="347.0" x2="347.0" y1="101" y2="105" /><line fill="none" stroke="black" stroke-width="1" x1="363.0" x2="363.0" y1="101" y2="105" /><line fill="none" stroke="black" stroke-width="1" x1="379.0" x2="379.0" y1="101" y2="105" /><line fill="none" stroke="black" stroke-width="2" x1="395.0" x2="395.0" y1="101" y2="105" /><line fill="none" stroke="black" stroke-width="1" x1="411.0" x2="411.0" y1="101" y2="105" /><line fill="none" stroke="black" stroke-width="1" x1="427.0" x2="427.0" y1="101" y2="105" /><line fill="none" stroke="black" stroke-width="1" x1="443.0" x2="443.0" y1="101" y2="105" /><line fill="none" stroke="black" stroke-width="2" x1="459.0" x2="459.0" y1="101" y2="105" /><line fill="none" stroke="black" stroke-width="1" x1="475.0" x2="475.0" y1="101" y2="105" /><line fill="none" stroke="black" stroke-width="1" x1="491.0" x2="491.0" y1="101" y2="105" /><line fill="none" stroke="black" stroke-width="1" x1="507.0" x2="507.0" y1="101" y2="105" /><polyline fill="none" points="3,105 3,141 527,141 527,105" stroke="black" stroke-width="0.75" /><line fill="none" stroke="black" stroke-width="1" x1="27.0" x2="27.0" y1="137" y2="141" /><line fill="none" stroke="black" stroke-width="1" x1="43.0" x2="43.0" y1="137" y2="141" /><line fill="none" stroke="black" stroke-width="1" x1="59.0" x2="59.0" y1="137" y2="141" /><line fill="none" stroke="black" stroke-width="2" x1="75.0" x2="75.0" y1="137" y2="141" /><line fill="none" stroke="black" stroke-width="1" x1="91.0" x2="91.0" y1="137" y2="141" /><line fill="none" stroke="black" stroke-width="1" x1="107.0" x2="107.0" y1="137" y2="141" /><line fill="none" stroke="black" stroke-width="1" x1="123.0" x2="123.0" y1="137" y2="141" /><line fill="none" stroke="black" stroke-width="2" x1="139.0" x2="139.0" y1="137" y2="141" /><line fill="none" stroke="black" stroke-width="1" x1="155.0" x2="155.0" y1="137" y2="141" /><line fill="none" stroke="black" stroke-width="1" x1="171.0" x2="171.0" y1="137" y2="141" /><line fill="none" stroke="black" stroke-width="1" x1="187.0" x2="187.0" y1="137" y2="141" /><line fill="none" stroke="black" stroke-width="2" x1="203.0" x2="203.0" y1="137" y2="141" /><line fill="none" stroke="black" stroke-width="1" x1="219.0" x2="219.0" y1="137" y2="141" /><line fill="none" stroke="black" stroke-width="1" x1="235.0" x2="235.0" y1="137" y2="141" /><line fill="none" stroke="black" stroke-width="1" x1="251.0" x2="251.0" y1="137" y2="141" /><line fill="none" stroke="black" stroke-width="2" x1="267.0" x2="267.0" y1="137" y2="141" /><line fill="none" stroke="black" stroke-width="1" x1="283.0" x2="283.0" y1="137" y2="141" /><line fill="none" stroke="black" stroke-width="1" x1="299.0" x2="299.0" y1="137" y2="141" /><line fill="none" stroke="black" stroke-width="1" x1="315.0" x2="315.0" y1="137" y2="141" /><line fill="none" stroke="black" stroke-width="2" x1="331.0" x2="331.0" y1="137" y2="141" /><line fill="none" stroke="black" stroke-width="1" x1="347.0" x2="347.0" y1="137" y2="141" /><line fill="none" stroke="black" stroke-width="1" x1="363.0" x2="363.0" y1="137" y2="141" /><line fill="none" stroke="black" stroke-width="1" x1="379.0" x2="379.0" y1="137" y2="141" /><line fill="none" stroke="black" stroke-width="2" x1="395.0" x2="395.0" y1="137" y2="141" /><line fill="none" stroke="black" stroke-width="1" x1="411.0" x2="411.0" y1="137" y2="141" /><line fill="none" stroke="black" stroke-width="1" x1="427.0" x2="427.0" y1="137" y2="141" /><line fill="none" stroke="black" stroke-width="1" x1="443.0" x2="443.0" y1="137" y2="141" /><line fill="none" stroke="black" stroke-width="2" x1="459.0" x2="459.0" y1="137" y2="141" /><line fill="none" stroke="black" stroke-width="1" x1="475.0" x2="475.0" y1="137" y2="141" /><line fill="none" stroke="black" stroke-width="1" x1="491.0" x2="491.0" y1="137" y2="141" /><line fill="none" stroke="black" stroke-width="1" x1="507.0" x2="507.0" y1="137" y2="141" /><text font-family="monospace" font-size="17.0px" font-weight="bold" x="12.0" y="21">0</text><text font-family="monospace" font-size="17.0px" font-weight="bold" x="172.0" y="21">1</text><text font-family="monospace" font-size="17.0px" font-weight="bold" x="332.0" y="21">2</text><text font-family="monospace" font-size="17.0px" font-weight="bold" x="492.0" y="21">3</text><text font-family="monospace" font-size="17.0px" font-weight="bold" x="12.0" y="38">0</text><text font-family="monospace" font-size="17.0px" font-weight="bold" x="28.0" y="38">1</text><text font-family="monospace" font-size="17.0px" font-weight="bold" x="44.0" y="38">2</text><text font-family="monospace" font-size="17.0px" font-weight="bold" x="60.0" y="38">3</text><text font-family="monospace" font-size="17.0px" font-weight="bold" x="76.0" y="38">4</text><text font-family="monospace" font-size="17.0px" font-weight="bold" x="92.0" y="38">5</text><text font-family="monospace" font-size="17.0px" font-weight="bold" x="108.0" y="38">6</text><text font-family="monospace" font-size="17.0px" font-weight="bold" x="124.0" y="38">7</text><text font-family="monospace" font-size="17.0px" font-weight="bold" x="140.0" y="38">8</text><text font-family="monospace" font-size="17.0px" font-weight="bold" x="156.0" y="38">9</text><text font-family="monospace" font-size="17.0px" font-weight="bold" x="172.0" y="38">0</text><text font-family="monospace" font-size="17.0px" font-weight="bold" x="188.0" y="38">1</text><text font-family="monospace" font-size="17.0px" font-weight="bold" x="204.0" y="38">2</text><text font-family="monospace" font-size="17.0px" font-weight="bold" x="220.0" y="38">3</text><text font-family="monospace" font-size="17.0px" font-weight="bold" x="236.0" y="38">4</text><text font-family="monospace" font-size="17.0px" font-weight="bold" x="252.0" y="38">5</text><text font-family="monospace" font-size="17.0px" font-weight="bold" x="268.0" y="38">6</text><text font-family="monospace" font-size="17.0px" font-weight="bold" x="284.0" y="38">7</text><text font-family="monospace" font-size="17.0px" font-weight="bold" x="300.0" y="38">8</text><text font-family="monospace" font-size="17.0px" font-weight="bold" x="316.0" y="38">9</text><text font-family="monospace" font-size="17.0px" font-weight="bold" x="332.0" y="38">0</text><text font-family="monospace" font-size="17.0px" font-weight="bold" x="348.0" y="38">1</text><text font-family="monospace" font-size="17.0px" font-weight="bold" x="364.0" y="38">2</text><text font-family="monospace" font-size="17.0px" font-weight="bold" x="380.0" y="38">3</text><text font-family="monospace" font-size="17.0px" font-weight="bold" x="396.0" y="38">4</text><text font-family="monospace" font-size="17.0px" font-weight="bold" x="412.0" y="38">5</text><text font-family="monospace" font-size="17.0px" font-weight="bold" x="428.0" y="38">6</text><text font-family="monospace" font-size="17.0px" font-weight="bold" x="444.0" y="38">7</text><text font-family="monospace" font-size="17.0px" font-weight="bold" x="460.0" y="38">8</text><text font-family="monospace" font-size="17.0px" font-weight="bold" x="476.0" y="38">9</text><text font-family="monospace" font-size="17.0px" font-weight="bold" x="492.0" y="38">0</text><text font-family="monospace" font-size="17.0px" font-weight="bold" x="508.0" y="38">1</text><text font-family="monospace" font-size="17.0px" font-weight="bold" x="252.0" y="71">-3-</text><text font-family="monospace" font-size="17.0px" font-weight="bold" x="252.0" y="88">-1-</text><text font-family="monospace" font-size="17.0px" font-weight="bold" x="252.0" y="127">-2-</text></svg>