<?xml version="1.0" encoding="utf-8" ?>
<svg baseProfile="tiny" height="308.0" version="1.2" width="900.0" xmlns="http://www.w3.org/2000/svg" xmlns:ev="http://www.w3.org/2001/xml-events" xmlns:xlink="http://www.w3.org/1999/xlink"><defs /><text font-family="sans-serif" font-size="16.0" text-anchor="middle" x="16.0" y="28.0">0</text><text font-family="sans-serif" font-size="16.0" text-anchor="middle" x="44.0" y="28.0">1</text><text font-family="sans-serif" font-size="16.0" text-anchor="middle" x="72.0" y="28.0">2</text><text font-family="sans-serif" font-size="16.0" text-anchor="middle" x="100.0" y="28.0">3</text><text font-family="sans-serif" font-size="16.0" text-anchor="middle" x="128.0" y="28.0">4</text><text font-family="sans-serif" font-size="16.0" text-anchor="middle" x="156.0" y="28.0">5</text><text font-family="sans-serif" font-size="16.0" text-anchor="middle" x="184.0" y="28.0">6</text><text font-family="sans-serif" font-size="16.0" text-anchor="middle" x="212.0" y="28.0">7</text><text font-family="sans-serif" font-size="16.0" text-anchor="middle" x="240.0" y="28.0">8</text><text font-family="sans-serif" font-size="16.0" text-anchor="middle" x="268.0" y="28.0">9</text><text font-family="sans-serif" font-size="16.0" text-anchor="middle" x="296.0" y="28.0">10</text><text font-family="sans-serif" font-size="16.0" text-anchor="middle" x="324.0" y="28.0">11</text><text font-family="sans-serif" font-size="16.0" text-anchor="middle" x="352.0" y="28.0">12</text><text font-family="sans-serif" font-size="16.0" text-anchor="middle" x="380.0" y="28.0">13</text><text font-family="sans-serif" font-size="16.0" text-anchor="middle" x="408.0" y="28.0">14</text><text font-family="sans-serif" font-size="16.0" text-anchor="middle" x="436.0" y="28.0">15</text><text font-family="sans-serif" font-size="16.0" text-anchor="middle" x="464.0" y="28.0">16</text><text font-family="sans-serif" font-size="16.0" text-anchor="middle" x="492.0" y="28.0">17</text><text font-family="sans-serif" font-size="16.0" text-anchor="middle" x="520.0" y="28.0">18</text><text font-family="sans-serif" font-size="16.0" text-anchor="middle" x="548.0" y="28.0">19</text><text font-family="sans-serif" font-size="16.0" text-anchor="middle" x="576.0" y="28.0">20</text><text font-family="sans-serif" font-size="16.0" text-anchor="middle" x="604.0" y="28.0">21</text><text font-family="sans-serif" font-size="16.0" text-anchor="middle" x="632.0" y="28.0">22</text><text font-family="sans-serif" font-size="16.0" text-anchor="middle" x="660.0" y="28.0">23</text><text font-family="sans-serif" font-size="16.0" text-anchor="middle" x="688.0" y="28.0">24</text><text font-family="sans-serif" font-size="16.0" text-anchor="middle" x="716.0" y="28.0">25</text><text font-family="sans-serif" font-size="16.0" text-anchor="middle" x="744.0" y="28.0">26</text><text font-family="sans-serif" font-size="16.0" text-anchor="middle" x="772.0" y="28.0">27</text><text font-family="sans-serif" font-size="16.0" text-anchor="middle" x="800.0" y="28.0">28</text><text font-family="sans-serif" font-size="16.0" text-anchor="middle" x="828.0" y="28.0">29</text><text font-family="sans-serif" font-size="16.0" text-anchor="middle" x="856.0" y="28.0">30</text><text font-family="sans-serif" font-size="16.0" text-anchor="middle" x="884.0" y="28.0">31</text><text font-family="sans-serif" font-size="20" text-anchor="middle" x="226.0" y="66.0">Source Port</text><text font-family="sans-serif" font-size="20" text-anchor="middle" x="674.0" y="66.0">Destination Port</text><line stroke="black" stroke-width="1" x1="450.0" x2="450.0" y1="40.0" y2="78.0" /><text font-family="sans-serif" font-size="20" text-anchor="middle" x="450.0" y="104.0">Sequence Number</text><line stroke="black" stroke-width="1" x1="2" x2="898.0" y1="78.0" y2="78.0" /><text font-family="sans-serif" font-size="20" text-anchor="middle" x="450.0" y="142.0">Acknowledgement Number</text><line stroke="black" stroke-width="1" x1="2" x2="898.0" y1="116.0" y2="116.0" /><text font-family="sans-serif" font-size="20" text-anchor="middle" x="58.0" y="180.0">Data Offset</text><line stroke="black" stroke-width="1" x1="2" x2="898.0" y1="154.0" y2="154.0" /><text font-family="sans-serif" font-size="20" text-anchor="middle" x="198.0" y="180.0">Reserved</text><line stroke="black" stroke-width="1" x1="114.0" x2="114.0" y1="154.0" y2="192.0" /><text font-family="sans-serif" font-size="14" text-anchor="middle" x="296.0" y="180.0">Urg</text><line stroke="black" stroke-width="1" x1="282.0" x2="282.0" y1="154.0" y2="192.0" /><text font-family="sans-serif" font-size="14" text-anchor="middle" x="324.0" y="180.0">Ack</text><line stroke="black" stroke-width="1" x1="310.0" x2="310.0" y1="154.0" y2="192.0" /><text font-family="sans-serif" font-size="14" text-anchor="middle" x="352.0" y="180.0">Psh</text><line stroke="black" stroke-width="1" x1="338.0" x2="338.0" y1="154.0" y2="192.0" /><text font-family="sans-serif" font-size="14" text-anchor="middle" x="380.0" y="180.0">Rst</text><line stroke="black" stroke-width="1" x1="366.0" x2="366.0" y1="154.0" y2="192.0" /><text font-family="sans-serif" font-size="14" text-anchor="middle" x="408.0" y="180.0">Syn</text><line stroke="black" stroke-width="1" x1="394.0" x2="394.0" y1="154.0" y2="192.0" /><text font-family="sans-serif" font-size="14" text-anchor="middle" x="436.0" y="180.0">Fin</text><line stroke="black" stroke-width="1" x1="422.0" x2="422.0" y1="154.0" y2="192.0" /><text font-family="sans-serif" font-size="20" text-anchor="middle" x="674.0" y="180.0">Window</text><line stroke="black" stroke-width="1" x1="450.0" x2="450.0" y1="154.0" y2="192.0" /><text font-family="sans-serif" font-size="20" text-anchor="middle" x="226.0" y="218.0">Checksum</text><line stroke="black" stroke-width="1" x1="2" x2="898.0" y1="192.0" y2="192.0" /><text font-family="sans-serif" font-size="20" text-anchor="middle" x="674.0" y="218.0">Urgent Pointer</text><line stroke="black" stroke-width="1" x1="450.0" x2="450.0" y1="192.0" y2="230.0" /><text font-family="sans-serif" font-size="20" text-anchor="middle" x="338.0" y="256.0">Options</text><line stroke="black" stroke-width="1" x1="2" x2="898.0" y1="230.0" y2="230.0" /><text font-family="sans-serif" font-size="20" text-anchor="middle" x="786.0" y="256.0">Padding</text><line stroke="black" stroke-width="1" x1="674.0" x2="674.0" y1="230.0" y2="268.0" /><text font-family="sans-serif" font-size="20" text-anchor="middle" x="450.0" y="294.0">Data</text><line stroke="black" stroke-width="1" x1="2" x2="898.0" y1="268.0" y2="268.0" /><rect fill="none" height="266.0" stroke="black" stroke-width="1" width="896.0" x="2" y="40.0" /></svg>