<?xml version="1.0" encoding="utf-8" ?>
<svg baseProfile="tiny" font-family="monospace" font-size="14" font-weight="normal" height="121" version="1.2" viewBox="0,0,1175,121" width="1175" xmlns="http://www.w3.org/2000/svg" xmlns:ev="http://www.w3.org/2001/xml-events" xmlns:xlink="http://www.w3.org/1999/xlink"><defs /><polyline fill="none" points="666,52 666,28 1023,28 1023,52" stroke="black" stroke-width="1" /><polyline fill="none" points="663,42 666,37 668,42" stroke-width="1" /><polyline fill="none" points="841,30 847,28 841,25" stroke-width="1" /><polyline fill="none" points="1020,36 1023,42 1025,36" stroke-width="1" /><polyline fill="none" points="489,53 489,12 1071,12 1071,54" stroke="black" stroke-width="1" /><polyline fill="none" points="486,34 489,29 491,34" stroke-width="1" /><polyline fill="none" points="776,14 782,12 776,9" stroke-width="1" /><polyline fill="none" points="1068,29 1071,35 1073,29" stroke-width="1" /><polyline fill="none" points="77,54 77,0 1102,0 1102,54" stroke="black" stroke-width="1" /><polyline fill="none" points="74,29 77,24 79,29" stroke-width="1" /><polyline fill="none" points="586,2 592,0 586,-2" stroke-width="1" /><polyline fill="none" points="1099,23 1102,29 1104,23" stroke-width="1" /><polyline fill="none" points="104,54 104,105 458,105 458,54" stroke="black" stroke-width="1" /><polyline fill="none" points="101,76 104,82 106,76" stroke-width="1" /><polyline fill="none" points="277,107 283,105 277,102" stroke-width="1" /><polyline fill="none" points="455,81 458,76 460,81" stroke-width="1" /><polyline fill="none" points="0,54 1169,54" stroke="black" stroke-width="1" /><polyline fill="none" points="581,56 587,54 581,51" stroke-width="1" /><line fill="none" stroke="black" stroke-width="2" x1="2" x2="2" y1="64" y2="50" /><line fill="none" stroke="black" stroke-width="2" x1="-3" x2="-3" y1="64" y2="50" /><line fill="none" stroke="black" stroke-width="2" x1="1171" x2="1171" y1="64" y2="50" /><line fill="none" stroke="black" stroke-width="2" x1="1176" x2="1176" y1="64" y2="50" /><rect fill="white" height="28" stroke="black" stroke-width="1" width="126" x="696" y="42" /><text stroke="black" x="735.0" y="62">query</text><rect fill="white" height="30" stroke="black" stroke-width="1" width="131" x="857" y="42" /><text stroke="black" x="885.5" y="62">fragment</text><rect fill="white" height="25" stroke="black" stroke-width="1" width="106" x="132" y="40" /><text stroke="black" x="157.0" y="58">scheme</text><rect fill="white" height="25" stroke="black" stroke-width="1" width="132" x="213" y="90" /><text stroke="black" x="247.0" y="108">discard</text><rect fill="white" height="25" stroke="black" stroke-width="1" width="162" x="276" y="40" /><text stroke="black" x="315.0" y="58">authority</text><rect fill="white" height="27" stroke="black" stroke-width="1" width="97" x="532" y="41" /><text stroke="black" x="561.5" y="60">path</text></svg>