<?xml version="1.0" encoding="utf-8" ?>
<svg baseProfile="tiny" font-family="monospace" font-size="14" font-weight="normal" height="471" version="1.2" viewBox="0,0,505,471" width="505" xmlns="http://www.w3.org/2000/svg" xmlns:ev="http://www.w3.org/2001/xml-events" xmlns:xlink="http://www.w3.org/1999/xlink"><defs /><polyline fill="none" points="378,24 378,91" stroke="black" stroke-width="1" /><polyline fill="none" points="375,54 378,60 380,54" stroke="black" stroke-width="1" /><polyline fill="none" points="115,95 327,95" stroke="black" stroke-width="1" /><polyline fill="none" points="217,97 223,95 217,92" stroke="black" stroke-width="1" /><polyline fill="none" points="325,116 111,116" stroke="black" stroke-width="1" /><polyline fill="none" points="220,118 215,116 220,113" stroke="black" stroke-width="1" /><polyline fill="none" points="66,33 66,84" stroke="black" stroke-width="1" /><polyline fill="none" points="63,55 66,61 68,55" stroke="black" stroke-width="1" /><polyline fill="none" points="95,120 95,213" stroke="black" stroke-width="1" /><polyline fill="none" points="92,163 95,169 97,163" stroke="black" stroke-width="1" /><polyline fill="none" points="162,237 162,291" stroke="black" stroke-width="1" /><polyline fill="none" points="159,260 162,266 164,260" stroke="black" stroke-width="1" /><polyline fill="none" points="161,314 161,372" stroke="black" stroke-width="1" /><polyline fill="none" points="158,339 161,345 163,339" stroke="black" stroke-width="1" /><polyline fill="none" points="159,400 159,465" stroke="black" stroke-width="1" /><polyline fill="none" points="156,429 159,435 161,429" stroke="black" stroke-width="1" /><polyline fill="none" points="29,130 29,176" stroke="black" stroke-width="1" /><polyline fill="none" points="26,149 29,155 31,149" stroke="black" stroke-width="1" /><rect fill="white" height="39" stroke="black" stroke-width="1" width="203" x="65" y="205" /><text stroke="black" x="101.5" y="223.0">'Search' index</text><rect fill="white" height="39" stroke="black" stroke-width="1" width="210" x="58" y="284" /><text stroke="black" x="116.0" y="302.0">Flow Table</text><rect fill="white" height="43" stroke="black" stroke-width="1" width="210" x="56" y="363" /><text stroke="black" x="92.0" y="383.0">'Collect' index</text><rect fill="white" height="33" stroke="black" stroke-width="1" width="215" x="284" y="0" /><text stroke="black" x="316.5" y="15.0">Current Rule Set</text><rect fill="white" height="45" stroke="black" stroke-width="1" width="142" x="0" y="84" /><text stroke="black" x="39.0" y="104.0"> Packet</text><text stroke="black" x="29.0" y="118.0">Processor</text><rect fill="white" height="55" stroke="black" stroke-width="1" width="141" x="319" y="84" /><text stroke="black" x="357.5" y="102.0"> Packet</text><text stroke="black" x="352.5" y="116.0">Matching</text><text stroke="black" x="357.5" y="130.0"> Engine</text><text stroke="black" x="183" y="89.0">'match key'</text><text stroke="black" x="181" y="140.0">'flow key'</text><text stroke="black" x="4" y="196.0">Ignore</text><text stroke="black" x="54" y="36.0">packet</text><text stroke="black" x="54" y="50.0">header</text></svg>