<?xml version="1.0" encoding="utf-8" ?>
<svg baseProfile="tiny" font-family="monospace" font-size="14" font-weight="normal" height="387.0" version="1.2" viewBox="0,0,609,387.0" width="609" xmlns="http://www.w3.org/2000/svg" xmlns:ev="http://www.w3.org/2001/xml-events" xmlns:xlink="http://www.w3.org/1999/xlink"><defs /><polyline fill="none" points="219,357 319,357" stroke="black" stroke-width="1" /><polyline fill="none" points="265,359 271,357 265,354" stroke-width="1" /><polyline fill="none" points="386,344 486,344" stroke="black" stroke-width="1" /><polyline fill="none" points="432,346 438,344 432,341" stroke-width="1" /><polyline fill="none" points="112,345 212,345" stroke="black" stroke-width="1" /><polyline fill="none" points="158,347 164,345 158,342" stroke-width="1" /><polyline fill="none" points="269,68 269,133" stroke="black" stroke-width="1" /><polyline fill="none" points="266,97 269,103 271,97" stroke-width="1" /><polyline fill="none" points="245,193 245,308" stroke="black" stroke-width="1" /><polyline fill="none" points="242,247 245,253 247,247" stroke-width="1" /><polyline fill="none" points="355,306 355,196" stroke="black" stroke-width="1" /><polyline fill="none" points="352,253 355,248 357,253" stroke-width="1" /><polyline fill="none" points="394,181 537,181" stroke="black" stroke-width="1" /><polyline fill="none" points="462,183 468,181 462,178" stroke-width="1" /><polyline fill="none" points="535,38 396,38" stroke="black" stroke-width="1" /><polyline fill="none" points="467,40 462,38 467,35" stroke-width="1" /><polyline fill="none" points="396,156 542,156" stroke="black" stroke-width="1" /><polyline fill="none" points="465,158 471,156 465,153" stroke-width="1" /><polyline fill="none" points="115,166 210,166" stroke="black" stroke-width="1" /><polyline fill="none" points="159,168 165,166 159,163" stroke-width="1" /><polyline fill="none" points="210,146 115,146" stroke="black" stroke-width="1" /><polyline fill="none" points="164,148 159,146 164,143" stroke-width="1" /><rect fill="white" height="64" stroke="black" stroke-width="1" width="198" x="208" y="134" /><text stroke="black" x="273.0" y="163.5"> Mediation</text><text stroke="black" x="269.0" y="177.5">Device (MD)</text><rect fill="white" height="60" stroke="black" stroke-width="1" width="120" x="0" y="134" /><text stroke="black" x="36.0" y="162.5">IAR IAP</text><rect fill="white" height="70" stroke="black" stroke-width="1" width="179" x="210" y="307" /><text stroke="black" x="275.5" y="339.5">Content</text><text stroke="black" x="283.5" y="353.5">  IAP</text><rect fill="white" height="193" stroke="black" stroke-width="1" width="68" x="535" y="2" /><text stroke="black" x="559.0" y="97.0">LEA</text><rect fill="white" height="68" stroke="black" stroke-width="1" width="231" x="180" y="0" /><text stroke="black" x="232.5" y="31.5">LI Administration </text><text stroke="black" x="300.5" y="45.5">Function</text><text stroke="black" x="148" y="197.0">IRI(e)</text><text stroke="black" x="148" y="337.0">User</text><text stroke="black" x="421" y="335.0">User</text><text stroke="black" x="141" y="374.0">content</text><text stroke="black" x="415" y="371.0">content</text><text stroke="black" x="317" y="109.0">MD Provisioning</text><text stroke="black" x="325" y="123.0">Interface (b)</text><text stroke="black" x="149" y="265.0"> Intercept</text><text stroke="black" x="145" y="279.0">Request (d)</text><text stroke="black" x="390" y="269.0">Intercepted</text><text stroke="black" x="390" y="283.0">Content (f)</text><text stroke="black" x="448" y="32.0">HI1 (a)</text><text stroke="black" x="447" y="149.0">HI2 (g)</text><text stroke="black" x="449" y="210.0">HI2 (h)</text><text stroke="black" x="153" y="133.0">(c)</text></svg>