<?xml version="1.0" encoding="utf-8" ?>
<svg baseProfile="tiny" font-family="monospace" font-size="14" font-weight="normal" height="336" version="1.2" viewBox="0,0,452,336" width="452" xmlns="http://www.w3.org/2000/svg" xmlns:ev="http://www.w3.org/2001/xml-events" xmlns:xlink="http://www.w3.org/1999/xlink"><defs /><polyline fill="none" points="269,295 356,295 356,183" stroke="black" stroke-width="1" /><polyline fill="none" points="309,297 315,295 309,292" stroke="black" stroke-width="1" /><polyline fill="none" points="353,241 356,236 358,241" stroke="black" stroke-width="1" /><polyline fill="none" points="33,54 33,142" stroke="black" stroke-width="1" /><polyline fill="none" points="30,94 33,100 35,94" stroke="black" stroke-width="1" /><polyline fill="none" points="22,144 22,56" stroke="black" stroke-width="1" /><polyline fill="none" points="19,102 22,97 24,102" stroke="black" stroke-width="1" /><polyline fill="none" points="34,178 34,293 152,293" stroke="black" stroke-width="1" /><polyline fill="none" points="31,232 34,238 36,232" stroke="black" stroke-width="1" /><polyline fill="none" points="89,295 95,293 89,290" stroke="black" stroke-width="1" /><polyline fill="none" points="165,309 20,309 20,166" stroke="black" stroke-width="1" /><polyline fill="none" points="94,311 89,309 94,306" stroke="black" stroke-width="1" /><polyline fill="none" points="17,239 20,234 22,239" stroke="black" stroke-width="1" /><polyline fill="none" points="370,177 370,310 263,310" stroke="black" stroke-width="1" /><polyline fill="none" points="367,240 370,246 372,240" stroke="black" stroke-width="1" /><polyline fill="none" points="318,312 313,310 318,307" stroke="black" stroke-width="1" /><polyline fill="none" points="358,150 358,38 120,38" stroke="black" stroke-width="1" /><polyline fill="none" points="355,96 358,91 360,96" stroke="black" stroke-width="1" /><polyline fill="none" points="241,40 236,38 241,35" stroke="black" stroke-width="1" /><polyline fill="none" points="122,24 372,24 372,169" stroke="black" stroke-width="1" /><polyline fill="none" points="243,26 249,24 243,21" stroke="black" stroke-width="1" /><polyline fill="none" points="369,93 372,99 374,93" stroke="black" stroke-width="1" /><polyline fill="none" points="345,156 104,156" stroke="black" stroke-width="1" /><polyline fill="none" points="226,158 221,156 226,153" stroke="black" stroke-width="1" /><rect fill="white" height="46" stroke="black" stroke-width="1" width="121" x="2" y="136" /><text stroke="black" x="41.5" y="157.5">Client</text><rect fill="white" height="46" stroke="black" stroke-width="1" width="126" x="320" y="136" /><text stroke="black" x="362.0" y="157.5">Server</text><rect fill="white" height="56" stroke="black" stroke-width="1" width="142" x="140" y="274" /><text stroke="black" x="176.0" y="300.5">Repository</text><rect fill="white" height="39" stroke="black" stroke-width="1" width="125" x="0" y="14" /><text stroke="black" x="30.5" y="32.0">AC issuer</text><text stroke="black" x="60" y="102.0">Client</text><text stroke="black" x="60" y="116.0">Acquisition</text><text stroke="black" x="53" y="235.0">Client</text><text stroke="black" x="53" y="249.0">Lookup</text><text stroke="black" x="391" y="245.0">Server</text><text stroke="black" x="391" y="259.0">Lookup</text><text stroke="black" x="196" y="10.0">Server Acquisition</text><text stroke="black" x="188" y="148.0">AC \"push\"</text><text stroke="black" x="176" y="195.0">(part of app.</text><text stroke="black" x="188" y="209.0"> protocol)</text></svg>